<svg width="355" height="352" viewBox="0 0 355 352" fill="none" xmlns="http://www.w3.org/2000/svg">
<path d="M228.488 36.3476L198.399 31.9753L184.943 4.71141C184.245 3.29719 183.165 2.10645 181.826 1.27385C180.486 0.44125 178.941 0 177.364 0C175.787 0 174.241 0.44125 172.902 1.27385C171.562 2.10645 170.483 3.29719 169.785 4.71141L156.329 31.9753L126.239 36.3476C124.679 36.5744 123.213 37.2334 122.007 38.2499C120.801 39.2664 119.904 40.5999 119.417 42.0997C118.93 43.5994 118.872 45.2056 119.25 46.7366C119.628 48.2676 120.426 49.6623 121.556 50.763L143.328 71.9862L138.187 101.955C137.92 103.509 138.094 105.107 138.688 106.567C139.283 108.028 140.274 109.294 141.549 110.22C142.825 111.147 144.335 111.699 145.908 111.812C147.481 111.926 149.054 111.597 150.45 110.863L177.364 96.7147L204.276 110.863C205.672 111.597 207.245 111.926 208.818 111.812C210.391 111.699 211.901 111.147 213.177 110.22C214.453 109.294 215.444 108.028 216.038 106.567C216.632 105.107 216.806 103.509 216.539 101.955L211.398 71.9862L233.172 50.763C234.301 49.6623 235.1 48.2676 235.478 46.7366C235.856 45.2056 235.798 43.5994 235.311 42.0997C234.823 40.5999 233.926 39.2664 232.721 38.2499C231.515 37.2334 230.049 36.5744 228.488 36.3476Z" fill="url(#paint0_linear_25_12127)"/>
<path d="M351.348 125.492L327.023 107.251L328.259 76.8699C328.323 75.2939 327.945 73.7313 327.167 72.3589C326.39 70.9865 325.244 69.8592 323.858 69.1043C322.473 68.3495 320.905 67.9974 319.33 68.0878C317.755 68.1781 316.237 68.7074 314.948 69.6157L290.085 87.1139L261.573 76.5495C260.094 76.0017 258.492 75.8786 256.947 76.194C255.402 76.5094 253.976 77.2508 252.83 78.3342C251.684 79.4177 250.865 80.8001 250.463 82.3251C250.062 83.8501 250.096 85.4569 250.56 86.9639L259.518 116.02L240.661 139.872C239.683 141.11 239.071 142.596 238.893 144.163C238.716 145.73 238.98 147.315 239.657 148.739C240.333 150.164 241.395 151.371 242.721 152.224C244.048 153.076 245.587 153.541 247.164 153.565L277.565 154.023L294.423 179.328C295.194 180.486 296.24 181.436 297.467 182.093C298.693 182.75 300.063 183.094 301.455 183.094C301.819 183.094 302.183 183.07 302.545 183.024C304.109 182.821 305.585 182.184 306.806 181.186C308.027 180.188 308.944 178.868 309.454 177.375L319.285 148.603L348.561 140.39C350.079 139.964 351.448 139.122 352.512 137.959C353.577 136.795 354.295 135.357 354.585 133.807C354.875 132.257 354.725 130.657 354.153 129.187C353.581 127.718 352.61 126.438 351.348 125.492Z" fill="url(#paint1_linear_25_12127)"/>
<path d="M95.2094 116.021L104.167 86.9646C104.632 85.4576 104.666 83.8507 104.265 82.3256C103.864 80.8004 103.044 79.4179 101.898 78.3343C100.752 77.2508 99.3264 76.5093 97.7813 76.1939C96.2362 75.8785 94.6337 76.0017 93.1549 76.5495L64.643 87.1139L39.7815 69.6157C38.4919 68.7074 36.9738 68.1781 35.399 68.0878C33.8242 67.9974 32.2556 68.3495 30.8705 69.1043C29.4855 69.8592 28.3393 70.9865 27.5617 72.3589C26.7841 73.7313 26.406 75.2939 26.4703 76.8699L27.7064 107.251L3.38077 125.492C2.11921 126.438 1.14751 127.719 0.575542 129.188C0.00357201 130.658 -0.145852 132.258 0.144164 133.808C0.43418 135.358 1.15207 136.796 2.21666 137.959C3.28125 139.123 4.65007 139.965 6.16837 140.391L35.4437 148.604L45.2736 177.376C45.7835 178.868 46.7007 180.188 47.9216 181.186C49.1425 182.184 50.6182 182.821 52.1821 183.024C53.7459 183.228 55.3354 182.989 56.7708 182.336C58.2062 181.683 59.4303 180.642 60.3046 179.329L77.1625 154.024L107.564 153.565C109.141 153.542 110.68 153.077 112.006 152.224C113.333 151.372 114.394 150.165 115.071 148.74C115.747 147.316 116.012 145.73 115.834 144.163C115.657 142.596 115.044 141.11 114.066 139.873L95.2094 116.021Z" fill="url(#paint2_linear_25_12127)"/>
<path d="M295.685 233.678C295.685 229.195 293.904 224.896 290.734 221.726C287.564 218.556 283.265 216.775 278.782 216.775H216.804V178.039C216.804 167.501 216.804 146.493 189.159 143.81C188.378 143.737 187.59 143.827 186.846 144.076C186.101 144.325 185.417 144.727 184.837 145.255C184.257 145.784 183.794 146.428 183.477 147.146C183.161 147.864 182.997 148.64 182.998 149.425V187.713C182.998 188.755 182.709 189.778 182.162 190.665L166.095 216.775H166.799L132.289 239.312L129.472 279.334L132.289 329.462C132.289 335.439 134.663 341.172 138.89 345.398C143.117 349.625 148.849 351.999 154.826 351.999H267.513C271.996 351.999 276.296 350.218 279.466 347.048C282.636 343.879 284.416 339.579 284.416 335.096C284.416 330.613 282.636 326.314 279.466 323.144C276.296 319.974 271.996 318.193 267.513 318.193H273.148C277.631 318.193 281.93 316.412 285.1 313.242C288.27 310.072 290.051 305.773 290.051 301.29C290.051 296.807 288.27 292.508 285.1 289.338C281.93 286.168 277.631 284.387 273.148 284.387H278.782C283.265 284.387 287.564 282.606 290.734 279.436C293.904 276.266 295.685 271.967 295.685 267.484C295.685 263.001 293.904 258.702 290.734 255.532C287.564 252.362 283.265 250.581 278.782 250.581C283.265 250.581 287.564 248.8 290.734 245.63C293.904 242.46 295.685 238.161 295.685 233.678Z" fill="url(#paint3_linear_25_12127)"/>
<path d="M123.837 216.774H67.494C62.8264 216.774 59.0425 220.558 59.0425 225.225V343.547C59.0425 348.214 62.8264 351.998 67.494 351.998H123.837C128.505 351.998 132.289 348.214 132.289 343.547V225.225C132.289 220.558 128.505 216.774 123.837 216.774Z" fill="url(#paint4_linear_25_12127)"/>
<path d="M97.0743 338.616C101.742 338.616 105.526 334.833 105.526 330.165C105.526 325.497 101.742 321.713 97.0743 321.713C92.4067 321.713 88.6228 325.497 88.6228 330.165C88.6228 334.833 92.4067 338.616 97.0743 338.616Z" fill="#BFE8E5"/>
<defs>
<linearGradient id="paint0_linear_25_12127" x1="136.531" y1="105.348" x2="218.197" y2="23.6823" gradientUnits="userSpaceOnUse">
<stop offset="0.011" stop-color="#F8C73F"/>
<stop offset="1" stop-color="#FADA7F"/>
</linearGradient>
<linearGradient id="paint1_linear_25_12127" x1="250.523" y1="160.298" x2="333.03" y2="77.7911" gradientUnits="userSpaceOnUse">
<stop offset="0.011" stop-color="#F8C73F"/>
<stop offset="1" stop-color="#FADA7F"/>
</linearGradient>
<linearGradient id="paint2_linear_25_12127" x1="23.12" y1="158.876" x2="102.782" y2="79.2138" gradientUnits="userSpaceOnUse">
<stop offset="0.011" stop-color="#F8C73F"/>
<stop offset="1" stop-color="#FADA7F"/>
</linearGradient>
<linearGradient id="paint3_linear_25_12127" x1="135.896" y1="342.404" x2="273.654" y2="204.646" gradientUnits="userSpaceOnUse">
<stop offset="0.004" stop-color="#F1CCCD"/>
<stop offset="1" stop-color="#FAEEEE"/>
</linearGradient>
<linearGradient id="paint4_linear_25_12127" x1="46.0236" y1="334.028" x2="145.308" y2="234.744" gradientUnits="userSpaceOnUse">
<stop offset="0.011" stop-color="#60C6BE"/>
<stop offset="1" stop-color="#80D1CB"/>
</linearGradient>
</defs>
</svg>
