<svg width="375" height="460" viewBox="0 0 375 460" fill="none" xmlns="http://www.w3.org/2000/svg">
<g clip-path="url(#clip0_25_11647)">
<path d="M54.0404 32.3959C54.5327 33.3209 55.4054 34.0431 57.824 34.8401C57.3144 35.8179 56.6045 36.5255 55.3919 37.1768C53.6755 36.3358 52.7219 35.6954 51.5648 34.2438C52.6409 33.8957 53.1655 33.4229 54.0404 32.3959Z" fill="white"/>
<path d="M61.9008 9.17773C60.8454 8.39721 59.7184 7.98678 57.9555 8.24511C58.5714 3.92177 59.5069 1.2517 61.1191 -2.59118C63.659 -2.617 65.0464 -2.03913 65.9924 -1.52506C63.3889 2.10235 62.6305 4.87063 61.9008 9.17773Z" fill="#FF6F3E"/>
<path d="M103.164 75.3316C102.729 75.7822 102.243 75.8684 101.445 75.9824C101.262 74.2307 100.546 72.4242 99.5213 70.4109C100.16 70.2878 100.524 70.0574 101.039 69.5583C102.25 71.6238 102.747 72.8856 103.164 75.3316Z" fill="white"/>
<path d="M32.6639 54.5107C33.7322 53.4952 34.1612 52.6083 33.9929 50.8557C35.7946 51.5661 36.8114 52.4552 38.556 54.1937C38.6394 55.5715 38.2531 56.2617 37.122 57.3438C35.612 55.8662 34.4252 54.9142 32.6639 54.5107Z" fill="white"/>
<path d="M163.362 7.67784C164.518 10.003 165.387 11.2531 167.269 13.0823C166.389 14.0175 165.472 14.6613 164.296 14.8877C162.913 13.7837 161.543 12.0715 159.926 9.60815C161.805 9.41882 162.733 9.0192 163.362 7.67784Z" fill="#1D8F3C"/>
<path d="M301.125 48.107C299.829 46.6448 299.633 44.9755 299.98 42.3039C304.233 42.3673 306.743 41.9178 310.5 40.3956C310.352 42.3585 310.881 43.7226 312.431 46.2129C308.594 47.7251 305.383 48.1223 301.125 48.107Z" fill="white"/>
<path d="M-5.91793 346.909C-7.55579 346.08 -8.30433 344.69 -8.92492 342.236C-5.18758 340.82 -3.15048 339.56 -0.395334 336.931C0.154136 338.697 1.08829 339.705 3.30322 341.345C0.475012 343.992 -2.19261 345.45 -5.91793 346.909Z" fill="white"/>
<path d="M346.097 21.7963C346.459 21.2233 346.656 20.6496 346.79 19.8332C348.179 20.8335 349.16 21.4322 350.376 21.902C350.463 22.795 350.276 23.2602 349.916 23.8584C349.013 23.558 347.604 22.8079 346.097 21.7963Z" fill="#1D8F3C"/>
<path d="M262.623 3.05903C261.146 5.34784 260.61 8.24831 261.865 14.7536C258.997 14.8348 256.489 14.1189 253.473 12.1891C253.209 7.22097 253.455 4.24237 255.287 -0.223855C257.442 1.78015 259.181 2.37285 262.623 3.05903Z" fill="#FF6F3E"/>
<path d="M25.4164 100.362C24.7256 99.321 24.3088 98.8269 23.3667 98.3416C23.6889 97.9637 23.8308 97.6809 23.8043 97.3605C24.857 97.816 25.448 98.3643 26.2786 99.4048C26.0685 99.8221 25.7809 100.115 25.4164 100.362Z" fill="white"/>
<path d="M352.147 68.7598C351.515 65.8885 351.495 64.2484 353.037 61.4881C357.936 61.5574 360.855 61.2565 365.569 60.3451C365.283 62.0856 365.456 63.3536 365.817 64.3868C360.377 65.2654 357.148 66.4971 352.147 68.7598Z" fill="#FF6F3E"/>
<path d="M132.531 5.17817C135.495 6.84103 136.923 8.08319 138.118 11.5339C134.292 15.7047 132.311 18.4538 129.471 23.2178C128.192 21.6345 126.964 20.8077 125.796 20.3251C129.222 14.9605 130.638 11.2292 132.531 5.17817Z" fill="white"/>
<path d="M61.3854 367.883C60.7541 367.374 60.0996 367.061 59.1468 366.79C60.527 365.277 61.3723 364.193 62.0971 362.813C63.1704 362.832 63.6975 363.118 64.3591 363.627C63.8782 364.659 62.7942 366.231 61.3854 367.883Z" fill="white"/>
<path d="M61.4929 102.375C60.2583 102.051 59.6218 101.272 58.6225 99.9649C61.5592 97.895 64.0589 94.8196 66.6208 90.9901C67.4759 92.0041 68.2499 92.4228 69.6509 92.8426C67.1826 97.0558 65.4318 99.1967 61.4929 102.375Z" fill="#008DF0"/>
<path d="M108.309 6.67839C109.373 5.97255 110.123 5.07839 110.473 3.38029C114.222 5.38056 116.353 7.12363 119.332 9.87521C118.511 12.2066 117.521 13.2834 116.737 13.9775C114.285 10.391 112.005 8.77722 108.309 6.67839Z" fill="#FF6F3E"/>
<path d="M48.2585 297.847C48.2506 298.689 48.1113 299.19 47.5967 299.997C46.7628 299.354 46.1569 299.136 45.4219 299.08C45.3696 298.29 45.4669 297.75 45.7171 296.936C46.5372 297.43 47.2015 297.639 48.2585 297.847Z" fill="#FF41AA"/>
<path d="M186.297 79.5059C187.637 78.5912 188.564 78.17 189.869 77.7872C190.106 78.8426 190.065 79.5456 189.874 80.1979C189.033 80.2451 188.479 80.5959 187.667 81.2139C187.397 80.3215 187.036 79.9324 186.297 79.5059Z" fill="#FF6F3E"/>
<path d="M56.7153 142.743C56.1573 143.935 56.1956 144.765 56.4401 145.986C54.3573 145.456 52.3332 144.687 51.5566 144.062C51.775 143.054 52.1929 142.261 52.9171 141.246C53.7863 141.966 54.8708 142.28 56.7153 142.743Z" fill="#008DF0"/>
<path d="M351.97 108.663C349.304 109.947 347.035 110.703 344.571 110.511C343.617 108.79 343.368 107.525 343.534 106.007C346.529 105.996 348.211 105.556 350.803 104.125C350.572 106.152 350.741 107.374 351.97 108.663Z" fill="#1D8F3C"/>
<path d="M122.788 50.2237C121.237 50.5703 120.46 50.8409 119.455 51.7402C119.153 51.1859 118.881 50.8878 118.489 50.7744C119.508 49.7301 120.428 49.2772 122.042 48.7642C122.442 49.2027 122.659 49.6783 122.788 50.2237Z" fill="#1D8F3C"/>
<path d="M3.12207 170.236C2.47859 170.719 1.93429 170.818 1.08265 170.587C0.736469 169.812 0.593094 169.206 0.734196 168.57C1.58552 168.26 2.05949 167.812 2.79488 166.973C2.73577 168.225 2.73708 169.001 3.12207 170.236Z" fill="#FF41AA"/>
<path d="M251.871 35.7188C251.995 34.7794 251.86 33.9244 251.081 32.9014C254.026 31.7788 256.039 31.436 259.029 31.1104C259.934 32.7053 260.054 33.7834 260.06 34.5604C256.859 34.1848 254.846 34.6737 251.871 35.7188Z" fill="#FF6F3E"/>
<path d="M359.683 207.273C359.592 208.29 359.398 209.39 358.622 210.28C357.776 210.404 357.209 210.534 356.401 210.893C356.648 210.176 356.449 209.692 355.76 208.861C357.046 208.649 358.169 208.071 359.683 207.273Z" fill="#008DF0"/>
<path d="M317.338 434.924C318.547 434.602 319.149 434.365 319.911 433.627C320.166 434.053 320.389 434.278 320.701 434.355C319.932 435.208 319.223 435.593 317.97 436.048C317.642 435.715 317.456 435.349 317.338 434.924Z" fill="white"/>
<path d="M325.989 350.102C325.684 349.369 325.83 348.76 326.101 347.772C328.233 348.446 330.698 348.525 333.56 348.35C333.38 349.155 333.464 349.696 333.785 350.548C330.768 350.915 329.048 350.855 325.989 350.102Z" fill="#FF41AA"/>
<path d="M326.023 146.928C327.223 149.043 327.638 150.333 327.094 152.893C323.204 154.034 320.97 154.984 317.466 156.854C317.268 155.409 316.821 154.447 316.284 153.72C320.37 151.698 322.621 149.937 326.023 146.928Z" fill="#008DF0"/>
<path d="M286.084 424.985C284.63 427.146 283.24 428.732 281.284 429.682C279.791 428.799 279.039 427.948 278.491 426.72C280.762 425.378 281.844 424.297 283.178 422.055C283.904 423.7 284.577 424.552 286.084 424.985Z" fill="white"/>
<path d="M161.645 60.6921C162.609 57.9514 163.622 56.4699 166.2 54.4108C168.208 57.4394 169.945 58.8232 172.282 59.8279C171.573 62.4663 170.654 64.1204 168.93 66.499C166.801 63.9741 164.865 62.5511 161.645 60.6921Z" fill="#1D8F3C"/>
<path d="M102.007 446.416C101.586 445.669 101.453 445.156 101.497 444.184C102.56 444.327 103.205 444.21 103.882 443.886C104.33 444.557 104.518 445.081 104.712 445.927C103.737 445.908 103.045 446.062 102.007 446.416Z" fill="white"/>
<path d="M243.716 66.0407C241.445 65.7065 240.076 66.187 238.161 67.207C238.002 63.463 238.272 59.697 238.926 58.0865C240.718 57.9461 242.251 58.2467 244.311 58.947C243.544 60.7595 243.563 62.7281 243.716 66.0407Z" fill="#1D8F3C"/>
<path d="M336.5 247.995C334.23 248.921 332.548 248.791 330.216 247.453C329.796 244.899 329.843 243.002 330.752 241.236C333.501 240.981 335.245 240.028 338.062 238.125C336.919 241.768 336.322 244.056 336.5 247.995Z" fill="#FF41AA"/>
<path d="M23.5205 81.1487C23.5192 82.9302 22.6932 84.0647 21.2816 85.876C17.4489 82.6431 12.4131 80.3558 6.33724 78.2509C7.40387 76.738 7.69567 75.545 7.76695 73.5053C14.3278 75.3479 17.837 76.9547 23.5205 81.1487Z" fill="#008DF0"/>
<path d="M18.7854 179.02C19.3192 180.308 20.1205 181.298 21.8665 182.027C18.9408 185.625 16.6288 187.544 13.0592 190.16C10.7334 188.794 9.78641 187.509 9.20674 186.524C13.5604 184.646 15.7653 182.541 18.7854 179.02Z" fill="#008DF0"/>
<path d="M128.367 66.1355C129.882 65.4955 130.782 65.3177 132.457 65.8848C132.917 68.5869 133.38 70.1619 134.361 72.6624C133.375 72.6821 132.695 72.9062 132.163 73.21C131.126 70.3067 130.12 68.6564 128.367 66.1355Z" fill="#FF6F3E"/>
<path d="M199.343 40.1753C200.548 40.4325 201.226 40.7785 202.232 41.7518C201.066 42.7604 200.578 43.5658 200.282 44.6035C199.134 44.4478 198.388 44.1507 197.294 43.5543C198.241 42.5219 198.735 41.6303 199.343 40.1753Z" fill="#1D8F3C"/>
<path d="M73.9578 33.2481C73.1639 34.87 72.5469 35.6648 70.7501 36.4033C68.4217 34.4971 66.9036 33.5258 64.2893 32.1613C65.0922 31.4341 65.4946 30.7573 65.7154 30.1239C68.6662 31.7815 70.6889 32.4237 73.9578 33.2481Z" fill="#FF41AA"/>
<path d="M283.048 64.2519C285.003 66.3374 285.833 67.6957 285.916 70.7663C281.79 73.1408 279.503 74.843 276.017 77.9434C275.394 76.3492 274.618 75.3744 273.804 74.691C277.912 71.2578 279.995 68.6246 283.048 64.2519Z" fill="white"/>
<path d="M319.476 91.8682C318.525 90.0689 317.658 88.0222 317.988 85.6931C319.269 84.569 320.074 83.7362 321.035 82.2619C321.401 83.7273 322.258 84.3201 324.309 84.9595C322.39 86.7099 321.141 88.8937 319.476 91.8682Z" fill="#008DF0"/>
<path d="M240.356 401.835C241.996 400.811 243.12 400.355 244.693 399.963C244.922 401.231 244.839 402.065 244.58 402.833C243.577 402.848 242.9 403.238 241.904 403.935C241.627 402.859 241.215 402.378 240.356 401.835Z" fill="white"/>
<path d="M22.4188 229.463C26.3 231.506 28.479 233.187 31.0461 235.819C28.8234 237.719 27.0928 238.511 25.2936 238.881C24.1167 236.933 22.5786 236.054 20.0738 234.897C21.8643 233.123 22.3363 231.769 22.4188 229.463Z" fill="#FF41AA"/>
<path d="M86.9563 409.654C87.3141 409.85 87.6774 409.93 88.2095 409.778C88.1992 411.134 88.0208 411.995 87.6832 413.245C86.9022 413.358 86.4518 413.237 86.1387 413.118C86.7903 411.894 86.9102 411.01 86.9563 409.654Z" fill="white"/>
<path d="M74.9957 39.0692C75.0984 42.4931 74.7932 44.6218 73.9902 47.3789C71.8446 46.5981 70.641 45.7259 69.6977 44.645C70.5697 43.0962 70.5762 41.7114 70.3994 39.5653C72.2936 40.1007 73.3964 39.8994 74.9957 39.0692Z" fill="#1D8F3C"/>
<path d="M205.281 46.5475C204.004 46.8084 203.199 46.7599 201.812 46.2421C202.516 44.7708 202.648 43.7833 202.496 42.6519C203.675 42.3167 204.523 42.2893 205.837 42.4042C205.356 43.806 205.254 44.8794 205.281 46.5475Z" fill="#008DF0"/>
</g>
<defs>
<clipPath id="clip0_25_11647">
<rect width="486.675" height="454.838" fill="white" transform="matrix(-1.19249e-08 -1 -1 1.19249e-08 416 459.674)"/>
</clipPath>
</defs>
</svg>
