<svg width="25" height="24" viewBox="0 0 25 24" fill="none" xmlns="http://www.w3.org/2000/svg">
<path d="M17.2008 20.7239C14.2929 23.6319 8.95044 22.9556 5.231 19.27C1.54538 15.5505 0.90293 10.1743 3.81085 7.30016L4.72381 6.38721L18.1476 19.7772L17.2008 20.7239Z" fill="#CC104A"/>
<path d="M18.0788 19.8449C15.1709 22.7529 9.82839 22.0766 6.10896 18.391C2.38952 14.6715 1.74707 9.32907 4.655 6.42115C7.56292 3.51323 12.9054 4.18949 16.591 7.87511C17.7068 8.99094 18.5522 10.2758 19.0932 11.5607C19.2622 12.0003 19.4313 12.4061 19.5327 12.8456C20.2766 15.4831 19.8032 18.1205 18.0788 19.8449Z" fill="#F34B58"/>
<path d="M15.7127 8.78793C18.5868 11.662 19.094 15.821 16.8623 18.0865C14.6307 20.352 10.4379 19.811 7.56374 16.9369C4.68963 14.0628 4.18244 9.90376 6.4141 7.63829C8.64576 5.37281 12.8386 5.91382 15.7127 8.78793Z" fill="white"/>
<path d="M14.8332 9.66715C16.9296 11.7636 17.3015 14.8067 15.6785 16.4298C14.0555 18.0528 11.0123 17.7147 8.9159 15.5844C6.81949 13.488 6.44755 10.4449 8.07058 8.82183C9.6936 7.1988 12.7368 7.57074 14.8332 9.66715Z" fill="#F34B58"/>
<path d="M13.8869 10.6137C15.2394 11.9663 15.4761 13.8936 14.4279 14.9418C13.3797 15.99 11.4523 15.7533 10.0998 14.4008C8.74727 13.0483 8.51058 11.1209 9.55878 10.0727C10.607 9.02453 12.5681 9.26122 13.8869 10.6137Z" fill="white"/>
<path d="M13.0078 11.4933C13.6502 12.1358 13.7855 13.0825 13.2783 13.6236C12.7372 14.1307 11.7905 14.0293 11.148 13.353C10.5056 12.7106 10.3703 11.7638 10.8775 11.2566C11.3847 10.7494 12.3315 10.8509 13.0078 11.4933Z" fill="#F34B58"/>
<g opacity="0.2">
<path d="M19.5663 12.8801L12.2289 12.9139C11.3835 12.9139 11.3497 11.629 12.2289 11.629L19.1267 11.5952C19.2958 12.0348 19.431 12.4405 19.5663 12.8801Z" fill="#1D2943"/>
</g>
<path d="M21.3254 3.17553C21.5959 3.44604 21.5959 3.8518 21.3254 4.08849L12.6693 12.7108C12.4326 12.9475 12.0269 12.9475 11.7563 12.7108C11.5197 12.4741 11.5197 12.0684 11.7563 11.7979L20.4125 3.17553C20.683 2.90503 21.0888 2.90503 21.3254 3.17553Z" fill="#1D2943"/>
<path d="M21.1905 4.18945L22.7121 4.62902C22.9826 4.69665 23.0841 5.03478 22.8812 5.23766L22.4754 5.64342C22.3064 5.81248 22.0359 5.88011 21.7992 5.81248L21.292 5.67723L21.3934 5.77867C21.6639 6.04917 21.6639 6.48874 21.3934 6.75925L20.5481 7.60457C20.379 7.77364 20.1085 7.84126 19.8718 7.77364L18.1136 7.26644L21.1905 4.18945Z" fill="#FFD06C"/>
<path d="M20.3112 3.27627L19.8717 1.75469C19.804 1.48418 19.4659 1.38274 19.263 1.58562L18.0458 2.80289C17.8767 2.97196 17.8091 3.24246 17.8767 3.47915L18.012 3.98635L17.6738 3.64822C17.5386 3.51297 17.3019 3.51297 17.1666 3.64822L16.8961 3.95254C16.7271 4.1216 16.6594 4.39211 16.7271 4.6288L17.2343 6.35326L20.3112 3.27627Z" fill="#FFD06C"/>
</svg>
