<svg width="67" height="93" viewBox="0 0 67 93" fill="none" xmlns="http://www.w3.org/2000/svg">
<path fill-rule="evenodd" clip-rule="evenodd" d="M66.8593 60.1512C66.1135 78.421 51.4432 92.9992 33.4476 92.9992C14.9749 92.9992 2.34796e-05 77.1232 2.34796e-05 58.6925C2.34796e-05 56.229 -0.0430317 51.3056 3.55828 42.999C5.71352 38.0278 7.0653 34.9048 7.82819 32.05C8.24735 30.481 9.06255 27.9883 11.3864 32.05C12.7567 34.4449 12.8097 37.8894 12.8097 37.8894C12.8097 37.8894 17.908 33.8767 21.3496 26.2106C26.3948 14.9722 22.3694 8.25426 20.9937 3.5827C20.5176 1.96664 20.2188 -0.937759 23.4845 0.298014C26.8122 1.55751 35.6096 7.87397 40.2083 14.5317C46.7715 24.0335 49.104 33.1449 49.104 33.1449C49.104 33.1449 51.2055 30.4697 51.9506 27.6704C52.7921 24.5095 52.8045 21.3788 55.5085 24.7511C58.08 27.958 61.8991 33.9847 64.0486 39.7143C67.9517 50.1191 66.8593 60.1512 66.8593 60.1512Z" fill="url(#paint0_linear_67_4785)"/>
<path fill-rule="evenodd" clip-rule="evenodd" d="M33.8041 67.0874C37.0955 67.0874 37.0955 73.3389 41.2765 81.6861C44.0604 87.2441 39.8962 93 33.8041 93C27.712 93 24.5527 87.9346 24.5527 81.6861C24.5527 75.4379 30.5127 67.0874 33.8041 67.0874Z" fill="white"/>
<path fill-rule="evenodd" clip-rule="evenodd" d="M60.6412 62.0305C60.0791 75.4547 49.0228 86.1663 35.4606 86.1663C21.5387 86.1663 10.2529 74.5011 10.2529 60.9587C10.2529 59.1485 10.2204 55.531 12.9346 49.4275C14.5588 45.7748 15.5776 43.4801 16.1526 41.3825C16.4685 40.2296 17.0828 38.3981 18.8342 41.3825C19.8669 43.1422 19.9069 45.6732 19.9069 45.6732C19.9069 45.6732 23.7492 42.7247 26.3429 37.0918C30.1452 28.8342 27.1115 23.898 26.0747 20.4655C25.7159 19.278 25.4907 17.144 27.9519 18.052C30.4598 18.9774 37.0899 23.6186 40.5557 28.5105C45.5021 35.4922 47.2599 42.187 47.2599 42.187C47.2599 42.187 48.8437 40.2213 49.4052 38.1645C50.0394 35.8419 50.0488 33.5416 52.0866 36.0194C54.0247 38.3758 56.9029 42.804 58.5229 47.014C61.4644 54.6592 60.6412 62.0305 60.6412 62.0305Z" fill="url(#paint1_linear_67_4785)"/>
<path fill-rule="evenodd" clip-rule="evenodd" d="M35.4606 86.1663C25.8336 86.1663 18.0305 78.3625 18.0305 68.7356C18.0305 62.9268 20.3713 59.4002 25.2431 54.6177C28.3624 51.5555 31.2819 47.7945 32.5227 45.2335C32.767 44.7293 33.3229 42.1021 35.4664 45.1782C36.5908 46.7915 38.3535 49.6606 39.4838 52.1093C41.4323 56.331 41.8973 60.4224 41.8973 60.4224C41.8973 60.4224 43.8069 59.2972 45.1153 56.3999C45.5371 55.4662 46.3899 51.9312 48.7739 55.4656C50.5232 58.0593 52.9262 62.7228 52.8921 68.7356C52.8921 78.3625 45.0872 86.1663 35.4606 86.1663Z" fill="#FC9502"/>
<path fill-rule="evenodd" clip-rule="evenodd" d="M35.7292 67.1271C38.2098 67.1271 38.2098 71.7205 41.3607 77.8537C43.4589 81.9376 40.3205 86.1669 35.7292 86.1669C31.1379 86.1669 28.7569 82.445 28.7569 77.8537C28.7569 73.2627 33.2487 67.1271 35.7292 67.1271Z" fill="#FCE202"/>
<defs>
<linearGradient id="paint0_linear_67_4785" x1="33.4978" y1="93.0694" x2="33.4978" y2="0.0702764" gradientUnits="userSpaceOnUse">
<stop offset="1" stop-color="white"/>
</linearGradient>
<linearGradient id="paint1_linear_67_4785" x1="30.8432" y1="102.394" x2="30.8432" y2="-24.1747" gradientUnits="userSpaceOnUse">
<stop stop-color="#FF4C0D"/>
<stop offset="1" stop-color="#FC9502"/>
</linearGradient>
</defs>
</svg>
