<svg width="141" height="140" viewBox="0 0 141 140" fill="none" xmlns="http://www.w3.org/2000/svg">
<path d="M126.111 60.2773L125.333 71.1662L123.389 103.833C123 109.277 119.5 114.333 114.445 116.277C74.3889 131.833 75.5556 131.833 74.0001 132.222C72.0556 132.611 69.7223 132.611 67.3889 132.222C65.4445 131.833 67.0001 132.222 26.9445 116.277C21.8889 114.333 18.3889 109.277 18.0001 103.833L16.0556 71.1662L15.2778 60.2773L70.5001 77.7773L126.111 60.2773Z" fill="#F45170"/>
<path d="M73.6111 84.7773V131.833C71.6667 132.222 69.3333 132.222 67 131.833V84.7773C69.3333 85.944 71.6667 85.944 73.6111 84.7773Z" fill="#FA5F7F"/>
<path d="M14.8889 60.2773L15.6667 71.1662L67.3889 93.3329C69.3334 94.1107 71.6667 94.1107 74 93.3329L125.722 71.1662L126.5 60.2773L70.5 77.7773L14.8889 60.2773Z" fill="#CC104A"/>
<g opacity="0.5">
<path d="M67.3889 84.7773V92.944C69.3334 93.7218 71.6667 93.7218 74 92.944V84.7773C71.6667 85.944 69.3334 85.944 67.3889 84.7773Z" fill="#93073A"/>
</g>
<path d="M128.833 62.2218L74 85.5551C73.2222 85.944 72.0556 86.3329 70.8889 86.3329C69.7222 86.3329 68.9445 85.944 67.7778 85.5551L12.1667 62.2218C8.2778 60.6662 7.50002 49.3885 9.05558 41.9996C9.44447 40.444 9.83336 39.2773 10.2222 38.1107C11 36.944 11.3889 36.1662 12.1667 35.7773H128.833C129.611 36.1662 130 36.5551 130.389 37.3329C131.167 38.4996 131.556 40.0551 131.944 41.6107C133.5 49.3885 132.333 60.6662 128.833 62.2218Z" fill="#E93565"/>
<path d="M131.945 41.9992C131.167 39.6659 127.667 40.8326 127.667 40.8326L76.3334 62.6104C74.7779 63.3881 73.6112 64.9437 73.6112 66.8881V85.5548C72.8334 85.9437 71.6667 86.3326 70.5001 86.3326C69.3334 86.3326 68.5556 85.9437 67.389 85.5548V66.4992C67.389 64.5548 66.2223 62.9992 64.6667 62.2215L12.9445 40.4437C11.7779 40.0548 9.44453 39.6659 8.66675 41.6104C9.05564 40.0548 9.44453 38.8881 9.83342 37.7215C10.6112 36.9437 11.389 36.1659 12.1667 35.777L67.0001 12.4437C68.9445 11.6659 71.2779 11.6659 73.6112 12.4437L128.445 35.777C129.222 36.1659 129.611 36.5548 130 37.3326C131.167 38.4992 131.556 40.0548 131.945 41.9992Z" fill="#FA5F7F"/>
<path d="M72.0556 60.2773L123.389 38.8885C124.167 38.4996 124.167 37.3329 123.389 36.944L72.0556 15.944C70.8889 15.5551 69.7223 15.5551 68.5556 15.944L17.6112 36.944C16.8334 37.3329 16.8334 38.4996 17.6112 38.8885L68.5556 59.8885C69.7223 60.6662 71.2778 60.6662 72.0556 60.2773Z" fill="#E93565"/>
<path d="M97.7223 53.2769L93.0556 55.2214C92.2779 54.4436 91.5001 54.0547 89.1667 52.888L94.6112 50.5547C95.7779 51.7214 96.9445 52.4991 97.7223 53.2769Z" fill="#DF3260"/>
<path d="M47.9445 55.6102L43.2778 53.2769C44.0556 52.1102 45.2223 51.3325 46.3889 50.5547L51.8334 52.888C49.8889 54.0547 48.7223 54.8325 47.9445 55.6102Z" fill="#DF3260"/>
<path d="M70.5 37.7217C75.9445 40.4439 87.6111 46.6661 94.6111 50.9439L89.1667 53.2772C83.7222 50.1661 76.3334 46.6661 70.5 44.3328C63.5 47.4439 57.2778 50.1661 51.8334 53.2772L46.3889 50.9439C52.6111 47.055 63.8889 40.8328 70.5 37.7217Z" fill="#CC104A"/>
<path d="M51.8333 28C43.2777 32.6667 35.1111 36.9444 27.7222 41.2222C23.4444 43.9444 20.7222 48.6111 21.1111 53.6667L25.7777 114.722C26.1666 117.833 27.7222 120.944 30.0555 122.5C35.8888 126.778 45.6111 132.611 50.2777 128.722L45.2222 125.222L44.0555 52.1111L70.5 37.3333V28H51.8333Z" fill="#FFD475"/>
<g opacity="0.5">
<path d="M46.3887 62.6107L46.7776 122.5L44.0554 117.833C41.7221 61.0551 40.1665 57.944 43.2776 53.2773L47.9443 55.2218C46.3887 57.1662 46.3887 59.8885 46.3887 62.6107Z" fill="#93073A"/>
</g>
<path d="M39.7777 60.2778L42.4999 124.833C42.4999 127.944 45.611 130.667 48.7221 129.889C50.2777 129.5 51.8332 128.333 52.9999 126.778L47.9443 124.444C47.1666 124.056 46.7777 123.278 46.7777 122.5L44.8332 59.5C44.8332 56.3889 46.3888 52.8889 49.111 51.3333C55.7221 47.4444 62.3332 44.3333 70.111 40.8333V35C62.7221 38.5 52.9999 43.9444 45.9999 48.2222C42.111 50.5556 39.3888 55.2222 39.7777 60.2778Z" fill="#F3A250"/>
<path d="M89.1667 28C97.7222 32.2778 105.889 36.9444 113.278 41.2222C117.556 43.9444 120.278 48.6111 119.889 53.6667L115.222 114.722C114.833 117.833 113.278 120.944 110.944 122.5C105.111 126.778 95.3889 132.611 90.7222 128.722L95.7778 125.222L96.9444 52.1111L70.5 37.3333V28H89.1667Z" fill="#FFD475"/>
<g opacity="0.5">
<path d="M94.611 62.6114L94.2221 122.889L97.3332 117.834C98.8888 61.0559 100.833 58.3337 97.7221 53.667L93.0554 55.6114C94.611 57.167 94.611 59.8892 94.611 62.6114Z" fill="#93073A"/>
</g>
<path d="M101.222 60.2778L98.5 124.833C98.5 127.944 95.3889 130.667 92.2778 129.889C90.7222 129.5 89.1667 128.333 88 126.778L93.0556 124.833C93.8334 124.444 94.2222 124.056 94.2222 123.278L96.1667 60.2778C96.1667 57.1667 94.6111 53.6667 91.8889 52.1111C89.9445 50.9444 87.6111 49.7778 85.6667 48.6111C81.3889 46.2778 76.7222 44.3333 72.4445 42.3889C71.6667 42 71.2778 42 70.8889 41.6111V35C72.8334 36.1667 74.7778 36.9444 76.7222 38.1111C82.9445 41.2222 88.3889 44.3333 95 48.2222C95.3889 48.6111 95.7778 49 96.1667 49C99.2778 51.7222 101.611 56 101.222 60.2778Z" fill="#F3A250"/>
<path d="M64.2777 29.944C64.2777 30.3329 63.8888 31.1107 63.8888 31.4996C61.9443 37.3329 59.2221 40.444 52.9999 38.8885C49.111 37.7218 33.5555 41.2218 32.3888 40.8329C28.8888 39.2773 27.7221 35.3885 28.111 31.1107C28.111 25.6662 30.4443 19.444 32.3888 15.5551C34.3332 11.6662 37.4443 8.55512 40.9443 7.77734H42.4999C47.9444 7.77734 57.2777 16.7218 60.3888 20.6107C63.4999 24.4996 60.7777 20.9996 60.7777 20.9996C62.7221 23.3329 63.8888 25.6662 64.2777 27.6107V29.944Z" fill="#FFD475"/>
<path d="M64.2778 29.944C64.2778 30.3329 63.8889 31.1107 63.8889 31.4996C63.1111 29.1662 60.7778 25.6662 60 24.8885C56.5 20.6107 47.5555 12.0551 42.1111 12.0551C34.3333 12.0551 29.2778 23.3329 28.1111 31.1107C28.1111 25.6662 30.4444 19.444 32.3889 15.5551C33.9444 12.0551 37.8333 8.55512 40.9444 7.77734H42.5C47.9444 7.77734 57.2778 16.7218 60.3889 20.6107C63.5 24.4996 60.7778 20.9996 60.7778 20.9996C63.1111 24.1107 63.8889 26.0551 64.2778 27.6107V29.944Z" fill="#FFDE9B"/>
<g opacity="0.5">
<path d="M68.5554 41.9999C67.3888 42.3888 65.8332 43.1666 64.6665 43.5554C59.9999 43.1666 59.2221 43.1666 58.0554 42.3888C58.4443 42.3888 58.8332 41.9999 58.8332 41.611C60.3888 40.0554 59.611 38.4999 58.4443 36.9443H63.4999L64.2776 37.7221L68.5554 41.9999Z" fill="#DD8536"/>
</g>
<path d="M28.1111 34.6104C28.1111 36.9437 28.1111 44.3326 36.6666 45.4992C39.7778 45.8881 46 45.8881 49.5 45.8881C54.5555 45.4992 61.9444 44.7215 61.9444 39.6659C61.9444 38.8881 61.5555 37.7215 61.1666 36.9437C60.3889 35.3881 57.6666 33.0548 57.2778 33.0548C51.0555 28.3881 41.3333 24.4992 37.0555 24.1104C31.6111 24.1104 28.1111 29.1659 28.1111 34.6104Z" fill="#FFB961"/>
<path d="M45.6109 44.3327C79.0554 44.3327 45.9998 26.0549 37.0554 25.666C32.7776 25.666 29.6665 29.5549 29.6665 34.6105C29.6665 44.7216 35.4998 44.3327 45.6109 44.3327Z" fill="#F3A250"/>
<path d="M59.2222 42C59.6111 41.6111 59.6111 42 59.2222 42V42Z" fill="#F3A250"/>
<path d="M29.6665 34.6105C29.6665 36.5549 30.0554 39.2771 31.2221 40.8327C31.6109 36.5549 34.7221 32.666 38.6109 32.666C42.4998 32.666 52.6109 36.5549 58.8332 41.9994C65.0554 47.4438 58.8332 41.9993 59.2221 41.6105C64.2776 36.5549 44.0554 26.0549 36.6665 25.666C32.7776 26.0549 29.6665 29.5549 29.6665 34.6105Z" fill="#DD8536"/>
<path d="M76.7223 29.944C78.2779 36.1662 81.389 40.8329 88.0001 38.4995C91.889 37.3329 107.445 40.8329 108.611 40.444C111.333 39.2773 112.5 36.5551 112.889 33.444C113.667 24.8884 107.445 5.44397 96.1668 8.16619C92.2779 9.33286 84.889 15.1662 80.2223 20.9995C75.5557 26.8329 79.8335 21.3884 79.8335 21.3884C77.5001 24.4995 75.9446 27.6106 76.7223 29.944Z" fill="#FFD475"/>
<path d="M112.889 31.1108C111.333 22.1664 105.5 10.1108 96.5556 12.0553C90.7222 13.9997 78.6667 24.8886 77.1111 31.1108C76.3333 28.7775 75.5556 26.4442 79.8333 20.9997L80.2222 20.6108C84.8889 14.7775 92.2778 9.33305 96.1667 7.7775C107.056 5.44416 112.889 23.3331 112.889 31.1108Z" fill="#FFDE9B"/>
<g opacity="0.5">
<path d="M114.445 41.9999C111.333 48.611 103.945 48.9999 96.1668 48.9999C94.2223 48.9999 92.6668 48.9999 90.7223 48.9999C87.6112 48.9999 86.4446 48.611 85.2779 48.2221C81.0001 45.8888 76.3334 43.9443 72.0557 41.9999L75.9446 37.7221L76.7223 36.9443H105.5C108.222 38.4999 113.278 41.2221 114.445 41.9999Z" fill="#DD8536"/>
</g>
<path d="M79.0557 40.0556C79.0557 45.1111 86.4445 45.8889 91.5001 46.2778C104.333 46.6667 112.889 47.0556 112.889 35C112.889 29.5556 109.389 24.5 103.945 24.5C97.3334 24.5 79.0557 33.0556 79.0557 40.0556Z" fill="#FFB961"/>
<path d="M95.3888 44.3327C61.9443 44.3327 95.3888 26.0549 103.944 25.666C108.222 25.666 111.333 29.5549 111.333 34.6105C111.333 44.7216 105.111 44.3327 95.3888 44.3327Z" fill="#F3A250"/>
<path d="M111.333 34.6105C111.333 36.5549 110.945 38.8882 109.778 40.8327C109.389 36.166 106.278 32.666 102.389 32.666C98.5001 32.666 88.389 36.5549 82.1668 41.9994C75.9446 47.4438 82.1668 41.9993 81.7779 41.6105C76.7223 36.5549 96.9446 26.0549 104.333 25.666C108.222 26.0549 111.333 29.5549 111.333 34.6105Z" fill="#DD8536"/>
<g opacity="0.1">
<path d="M84.1111 34.9995C82.9445 35.7773 81.3889 37.7217 81 39.2773C81 40.0551 81 40.8328 81.7778 41.6106C81.7778 41.6106 81.7778 41.9995 82.1667 41.9995C82.5556 42.3884 82.5556 42.3884 82.9445 42.7773C82.1667 43.5551 81 43.5551 76.3334 43.944C74.3889 42.7773 72.4445 41.9995 70.5 41.2217C69.7222 41.6106 69.3334 41.6106 68.9445 41.9995C67.7778 42.3884 66.2223 43.1662 65.0556 43.5551C60.3889 43.1662 59.6111 43.1662 58.4445 42.3884C60 41.6106 61.1667 39.6662 58.8334 36.944C58.0556 36.1662 57.6667 35.3884 56.8889 34.9995C56.8889 34.2217 58.8334 23.7217 58.8334 23.3328C59.2222 22.1662 59.6111 21.3884 60.3889 20.9995C61.1667 20.6106 60.7778 21.3884 60.7778 21.3884C63.1111 24.4995 64.6667 27.6106 63.8889 29.944C63.1111 32.6662 62.3334 35.3884 60.3889 36.944C60.7778 37.7217 61.1667 38.4995 61.1667 39.2773C61.9445 38.8884 63.1111 38.1106 64.2778 37.7217C66.6111 36.944 68.5556 35.7773 70.5 34.9995C73.6111 36.5551 76.3334 38.1106 79.4445 39.6662C79.4445 38.8884 79.8334 38.1106 80.2222 37.3328C78.6667 35.3884 77.5 33.0551 76.7222 30.3328C75.9445 27.9995 77.5 24.8884 80.2222 21.7773C80.2222 21.7773 80.2222 21.3884 80.6111 21.3884C81.3889 21.3884 81.7778 22.1662 82.1667 23.3328C82.1667 24.1106 84.1111 34.6106 84.1111 34.9995Z" fill="#111D33"/>
</g>
<path d="M58.0555 38.4998C57.6666 40.0554 58.8333 41.222 60 41.222C68.9444 42.3887 71.2778 42.3887 80.6111 41.222C82.1666 41.222 82.9444 39.6665 82.5555 38.4998L80.6111 29.1665C80.6111 27.9998 79.4444 27.6109 78.2778 27.6109C73.2222 28.7776 66.6111 28.7776 61.5555 27.6109C60.3889 27.222 59.6111 27.9998 59.2222 29.1665L58.0555 38.4998Z" fill="#FFB961"/>
<path d="M59.222 32.2778C58.8331 33.4445 59.9998 35 61.1665 35C68.9443 36.1667 72.0554 36.1667 79.8331 35C80.9998 35 82.1665 33.8334 81.7776 32.2778L80.222 23.7223C80.222 22.9445 79.0554 22.1667 78.2776 22.5556C73.9998 23.7223 67.3887 23.7223 63.1109 22.5556C62.3331 22.1667 61.1665 22.9445 61.1665 23.7223L59.222 32.2778Z" fill="#FFD475"/>
</svg>
