<svg width="271" height="270" viewBox="0 0 271 270" fill="none" xmlns="http://www.w3.org/2000/svg">
<g clip-path="url(#clip0_23_7748)">
<path d="M209.57 139.025L225.912 170.174V235.539H170.762L148.549 221.493L120.719 235.539H45.1519C45.1719 235.099 45.1819 233.549 45.1719 231.099C45.1889 224.048 45.1231 208.979 45.0918 192.615C45.0679 180.131 45.0746 167.154 45.0919 154.869C45.1119 133.289 45.2419 115.769 45.622 115.439C45.882 112.849 46.2619 110.279 46.7419 107.729C48.5165 98.4239 70.2898 99.4484 74.7615 91.2804C78.1521 85.0873 63.7229 69.3807 68.4019 64.2187C69.062 63.4787 69.7319 62.7587 70.4219 62.0487C120.902 8.66869 209.502 38.0687 223.902 104.789C225.272 111.119 209.63 132.075 209.57 139.025Z" fill="#F4F3F2"/>
<path d="M111.012 96.0484C111.012 114.378 96.1517 129.238 77.8217 129.238C63.6017 129.238 51.4717 120.298 46.7417 107.728C49.8617 91.3684 57.5517 76.1884 68.4017 64.2184C71.3917 63.3284 74.5517 62.8584 77.8217 62.8584C96.1517 62.8584 111.012 77.7184 111.012 96.0484Z" fill="#FF9E71"/>
<path d="M225.912 124.728V169.998C223.612 170.498 221.212 170.768 218.762 170.768C200.432 170.768 185.572 155.908 185.572 137.578C185.572 119.248 200.432 104.388 218.762 104.388C220.512 104.388 222.232 104.528 223.902 104.788C225.272 111.118 225.972 117.778 225.912 124.728Z" fill="#FF9E71"/>
<path d="M178.762 213.828C178.762 222.128 175.712 229.718 170.692 235.538H120.452C115.432 229.718 112.382 222.128 112.382 213.828C112.382 195.498 127.242 180.638 145.572 180.638C163.902 180.638 178.762 195.498 178.762 213.828Z" fill="#FF9E71"/>
<path d="M187.177 86.1522C187.177 86.1522 187.17 86.284 187.137 86.5364L187.135 86.577C186.865 88.8912 185.169 100.445 176.66 116.064C167.265 133.305 151.451 132.227 149.04 145.462C147.602 153.349 163.784 171.992 165.135 182.795C166.111 190.591 164.036 198.222 162.804 201.87C162.326 203.269 161.979 204.084 161.979 204.084C161.979 204.084 128.489 212.772 96.0498 193.983C95.9612 193.928 95.872 193.883 95.7833 193.827C95.645 193.749 95.5066 193.671 95.3784 193.593C95.4009 193.351 95.4296 192.986 95.4837 192.521C95.6007 191.419 95.8176 189.753 96.2041 187.749C97.4317 181.397 100.327 171.633 106.996 165.822C117.495 156.667 132.726 149.827 134.344 141.777C135.963 133.727 116.536 121.14 116.325 104.692C116.193 93.6857 117.457 84.2247 118.304 79.1646C118.726 76.6649 119.042 75.2476 119.042 75.2476L139.118 78.4639L187.177 86.1522Z" fill="#FFE4D2"/>
<path d="M162.804 201.87C162.326 203.269 161.979 204.085 161.979 204.085C161.979 204.085 128.489 212.772 96.0498 193.984C95.9612 193.928 95.872 193.883 95.7833 193.828C95.645 193.749 95.5066 193.671 95.3784 193.594C95.4009 193.351 95.4296 192.986 95.4837 192.521C95.6007 191.419 95.8176 189.753 96.2041 187.75C103.076 191.748 116.44 198.832 128.392 201.086C142.076 203.663 157.397 202.439 162.804 201.87Z" fill="#FF9E71"/>
<path d="M160.193 188.033C161.933 197.158 159.832 200.346 159.832 200.346C159.832 200.346 143.969 203.433 125.536 198.47C107.104 193.508 100.051 186.664 100.051 186.664C100.051 186.664 102.916 173.706 117.517 164.841C132.108 155.976 137.269 154.033 138.52 147.224C139.78 140.437 135.952 121.954 126.445 101.587C126.409 101.493 126.363 101.399 126.317 101.306L172.516 109.184L172.899 109.254C172.899 109.254 141.975 132.863 140.978 147.471C139.971 162.089 157.02 171.391 160.193 188.033Z" fill="#B3CEE7"/>
<path d="M172.516 109.184C166.678 109.66 154.048 110.329 143.394 108.537C132.488 106.702 127.981 103.179 126.445 101.587C126.409 101.493 126.363 101.399 126.317 101.306L172.516 109.184Z" fill="#4BA5F9"/>
<path d="M173.696 98.4612C171.948 101.402 170.749 104.698 170.438 108.105C170.366 108.896 170.345 109.712 170.601 110.464C170.857 111.216 171.441 111.898 172.215 112.076C173.301 112.325 174.345 111.555 175.117 110.751C177.848 107.904 179.413 103.97 179.384 100.024C179.375 98.7287 179.207 96.127 177.642 95.681C175.91 95.1875 174.43 97.2259 173.696 98.4612Z" fill="white"/>
<path d="M168.238 117.339C168.287 117.978 168.564 118.615 169.065 119.014C169.731 119.544 170.727 119.568 171.47 119.151C172.213 118.734 172.699 117.932 172.829 117.09C173.037 115.74 172.094 113.922 170.567 113.866C168.951 113.807 168.136 116.013 168.238 117.339Z" fill="white"/>
<path d="M92.6446 189.403C92.6446 189.403 108.778 198.948 126.646 202.162C148.765 206.141 164.05 201.597 164.05 201.597L162.738 206.981C162.738 206.981 146.696 211.097 124.59 206.859C102.484 202.621 90.2007 194.08 90.2007 194.08L92.6446 189.403Z" fill="#D84918"/>
<path d="M187.137 86.5364L187.135 86.577L118.304 79.1646C118.726 76.6649 119.042 75.2476 119.042 75.2476L139.118 78.4639L187.137 86.5364Z" fill="#FF9E71"/>
<path d="M116.587 75.8121L188.86 87.0991L189.27 82.448L116.97 71.6787L116.587 75.8121Z" fill="#D84918"/>
<path d="M87.4196 82.1065L94.2671 70.6616L92.2415 83.1974L103.538 85.9547L93.3666 88.7398L92.3067 99.2727L87.0807 89.8531L77.8574 93.6031L83.0188 86.3768L76.8628 79.3896L87.4196 82.1065Z" fill="#FFE4D2"/>
<path d="M186.488 140.684L193.335 129.239L191.31 141.775L202.607 144.532L192.435 147.317L191.375 157.85L186.149 148.43L176.926 152.18L182.087 144.954L175.931 137.967L186.488 140.684Z" fill="#FF6F3E"/>
<path d="M190.107 214.214L186.793 201.295L194.275 211.555L204.183 205.468L199.005 214.655L205.744 222.82L195.373 219.905L191.548 229.097L190.045 220.345L180.749 219.803L190.107 214.214Z" fill="#FF6F3E"/>
<path d="M65.2797 144.353L65.5543 131.019L70.0083 142.91L81.1866 139.706L73.7326 147.166L78.0325 156.84L68.8249 151.249L62.6728 159.077L63.574 150.243L54.7642 147.225L65.2797 144.353Z" fill="#FF6F3E"/>
</g>
<defs>
<clipPath id="clip0_23_7748">
<rect width="180.83" height="201.078" fill="white" transform="translate(45.085 34.4609)"/>
</clipPath>
</defs>
</svg>
