<svg width="24" height="24" viewBox="0 0 24 24" fill="none" xmlns="http://www.w3.org/2000/svg">
<path d="M22.5 12C22.5 6.20105 17.799 1.5 12 1.5C6.20105 1.5 1.5 6.20105 1.5 12C1.5 17.2408 5.33972 21.5848 10.3594 22.3724V15.0352H7.69336V12H10.3594V9.68672C10.3594 7.05516 11.927 5.60156 14.3254 5.60156C15.4742 5.60156 16.6758 5.80664 16.6758 5.80664V8.39062H15.3518C14.0474 8.39062 13.6406 9.20003 13.6406 10.0304V12H16.5527L16.0872 15.0352H13.6406V22.3724C18.6603 21.5848 22.5 17.2409 22.5 12Z" fill="#1877F2"/>
<path d="M16.0872 15.0352L16.5527 12H13.6406V10.0304C13.6406 9.19995 14.0474 8.39062 15.3518 8.39062H16.6758V5.80664C16.6758 5.80664 15.4742 5.60156 14.3253 5.60156C11.927 5.60156 10.3594 7.05516 10.3594 9.68672V12H7.69336V15.0352H10.3594V22.3724C10.9021 22.4575 11.4506 22.5001 12 22.5C12.5494 22.5001 13.0979 22.4575 13.6406 22.3724V15.0352H16.0872Z" fill="white"/>
</svg>
