<svg width="181" height="202" viewBox="0 0 181 202" fill="none" xmlns="http://www.w3.org/2000/svg">
<g clip-path="url(#clip0_23_7749)">
<path d="M164.639 104.662L180.996 135.84V201.266H125.794L103.561 187.207L75.705 201.266H0.0670501C0.0870689 200.826 0.0970782 199.274 0.0870689 196.822C0.104085 189.764 0.0381847 174.681 0.00685537 158.302C-0.017067 145.807 -0.0103223 132.818 0.00699391 120.521C0.0270127 98.9203 0.157134 81.3839 0.537591 81.0536C0.797834 78.4612 1.17809 75.8888 1.65854 73.3364C3.4348 64.0229 25.2285 65.0483 29.7044 56.8727C33.0982 50.6738 18.6554 34.9525 23.3388 29.7856C23.9996 29.0449 24.6701 28.3243 25.3607 27.6136C75.888 -25.8164 164.571 3.61112 178.985 70.3936C180.356 76.7296 164.699 97.7056 164.639 104.662Z" fill="#F4F3F2"/>
<path d="M65.9885 61.6452C65.9885 79.9923 51.1146 94.8663 32.7674 94.8663C18.5341 94.8663 6.39272 85.9179 1.65829 73.3361C4.78121 56.9608 12.4784 41.7666 23.3386 29.7853C26.3314 28.8945 29.4943 28.4241 32.7674 28.4241C51.1146 28.4241 65.9885 43.298 65.9885 61.6452Z" fill="#FF9E71"/>
<path d="M180.996 90.3518V135.664C178.694 136.165 176.292 136.435 173.84 136.435C155.492 136.435 140.618 121.561 140.618 103.214C140.618 84.8667 155.492 69.9928 173.84 69.9928C175.591 69.9928 177.313 70.1329 178.984 70.3931C180.356 76.7291 181.056 83.3953 180.996 90.3518Z" fill="#FF9E71"/>
<path d="M133.802 179.535C133.802 187.843 130.749 195.44 125.725 201.266H75.4374C70.4127 195.44 67.3599 187.843 67.3599 179.535C67.3599 161.188 82.2338 146.314 100.581 146.314C118.928 146.314 133.802 161.188 133.802 179.535Z" fill="#FF9E71"/>
<path d="M142.225 51.7397C142.225 51.7397 142.218 51.8716 142.185 52.1242L142.183 52.1649C141.913 54.4812 140.216 66.0455 131.698 81.6794C122.294 98.9367 106.466 97.8574 104.052 111.105C102.613 118.999 118.81 137.659 120.163 148.473C121.14 156.277 119.063 163.914 117.829 167.565C117.351 168.966 117.004 169.782 117.004 169.782C117.004 169.782 83.4824 178.478 51.0126 159.672C50.9239 159.616 50.8346 159.571 50.7459 159.516C50.6074 159.438 50.4689 159.359 50.3406 159.282C50.3631 159.038 50.3918 158.674 50.446 158.208C50.5631 157.105 50.7802 155.437 51.1671 153.432C52.3958 147.074 55.2939 137.3 61.9695 131.484C72.4781 122.321 87.7227 115.475 89.3431 107.417C90.9635 99.3589 71.518 86.7606 71.3067 70.2965C71.1748 59.2802 72.4397 49.8103 73.2873 44.7455C73.7096 42.2435 74.0258 40.8248 74.0258 40.8248L94.1211 44.0441L142.225 51.7397Z" fill="#FFE4D2"/>
<path d="M117.829 167.566C117.351 168.966 117.004 169.783 117.004 169.783C117.004 169.783 83.4824 178.478 51.0126 159.672C50.9239 159.617 50.8346 159.571 50.7459 159.516C50.6074 159.438 50.4689 159.359 50.3406 159.282C50.3631 159.039 50.3918 158.674 50.446 158.208C50.5631 157.105 50.7802 155.437 51.1671 153.432C58.0455 157.435 71.4217 164.525 83.3849 166.782C97.082 169.36 112.417 168.135 117.829 167.566Z" fill="#FF9E71"/>
<path d="M115.216 153.716C116.957 162.85 114.854 166.04 114.854 166.04C114.854 166.04 98.9764 169.13 80.5268 164.163C62.0772 159.196 55.0178 152.345 55.0178 152.345C55.0178 152.345 57.8851 139.375 72.5001 130.502C87.1048 121.629 92.2709 119.684 93.523 112.869C94.784 106.075 90.9522 87.5751 81.4367 67.1886C81.4007 67.0952 81.3547 67.0012 81.3085 66.9074L127.551 74.7931L127.934 74.8635C127.934 74.8635 96.9805 98.4942 95.983 113.116C94.9746 127.748 112.04 137.059 115.216 153.716Z" fill="#B3CEE7"/>
<path d="M127.551 74.7931C121.707 75.2695 109.065 75.9395 98.4013 74.1459C87.485 72.3089 82.9735 68.7829 81.4368 67.1886C81.4007 67.0952 81.3547 67.0012 81.3085 66.9074L127.551 74.7931Z" fill="#4BA5F9"/>
<path d="M128.731 64.0603C126.982 67.0041 125.782 70.3026 125.471 73.7129C125.399 74.5047 125.377 75.322 125.634 76.0746C125.89 76.8271 126.475 77.5101 127.25 77.6877C128.336 77.9369 129.382 77.1658 130.153 76.3614C132.887 73.5118 134.454 69.5739 134.425 65.6249C134.416 64.328 134.247 61.7239 132.681 61.2775C130.948 60.7835 129.466 62.8238 128.731 64.0603Z" fill="white"/>
<path d="M123.268 82.9561C123.318 83.5952 123.595 84.2329 124.096 84.6321C124.763 85.1632 125.76 85.1864 126.503 84.7692C127.247 84.3521 127.733 83.549 127.864 82.7063C128.072 81.3556 127.128 79.5351 125.6 79.4794C123.983 79.4204 123.166 81.6285 123.268 82.9561Z" fill="white"/>
<path d="M47.6042 155.087C47.6042 155.087 63.7532 164.641 81.6374 167.858C103.777 171.841 119.076 167.293 119.076 167.293L117.763 172.682C117.763 172.682 101.706 176.802 79.5799 172.56C57.4533 168.318 45.158 159.769 45.158 159.769L47.6042 155.087Z" fill="#D84918"/>
<path d="M142.185 52.1242L142.183 52.1649L73.2874 44.7455C73.7096 42.2435 74.0259 40.8248 74.0259 40.8248L94.1212 44.0441L142.185 52.1242Z" fill="#FF9E71"/>
<path d="M71.5689 41.3899L143.91 52.6875L144.32 48.032L71.9525 37.2526L71.5689 41.3899Z" fill="#D84918"/>
<path d="M42.3743 47.6902L49.2282 36.2346L47.2007 48.7821L58.5083 51.542L48.3269 54.3297L47.266 64.8725L42.0351 55.4441L32.8031 59.1976L37.9694 51.9645L31.8076 44.9708L42.3743 47.6902Z" fill="#FFE4D2"/>
<path d="M141.535 106.322L148.389 94.8666L146.362 107.414L157.669 110.174L147.488 112.962L146.427 123.505L141.196 114.076L131.964 117.83L137.131 110.597L130.969 103.603L141.535 106.322Z" fill="#FF6F3E"/>
<path d="M145.158 179.921L141.841 166.99L149.33 177.26L159.247 171.167L154.064 180.363L160.809 188.535L150.429 185.618L146.6 194.819L145.096 186.059L135.791 185.516L145.158 179.921Z" fill="#FF6F3E"/>
<path d="M20.2136 109.995L20.4885 96.6481L24.9467 108.551L36.1354 105.343L28.6744 112.811L32.9784 122.493L23.7621 116.897L17.6043 124.733L18.5063 115.89L9.68827 112.87L20.2136 109.995Z" fill="#FF6F3E"/>
</g>
<defs>
<clipPath id="clip0_23_7749">
<rect width="180.83" height="201.078" fill="white" transform="scale(1.00094)"/>
</clipPath>
</defs>
</svg>
