<svg width="270" height="270" viewBox="0 0 270 270" fill="none" xmlns="http://www.w3.org/2000/svg">
<circle cx="135" cy="135" r="102" fill="#F4F3F2"/>
<mask id="mask0_1_881" style="mask-type:alpha" maskUnits="userSpaceOnUse" x="33" y="33" width="204" height="204">
<circle cx="135" cy="135" r="102" fill="#F4F3F2"/>
</mask>
<g mask="url(#mask0_1_881)">
<path d="M99.7318 318.631H199.082C206.914 318.631 212.951 312.224 212.491 304.384L200.38 97.8888C199.919 90.0486 193.136 83.6421 185.295 83.6421H85.9454C78.1127 83.6421 72.0759 90.0486 72.5362 97.8888L84.6475 304.391C85.1078 312.224 91.8916 318.638 99.7243 318.638L99.7318 318.631Z" fill="#FF6F3E"/>
<path opacity="0.8" d="M99.7318 318.631H199.082C206.914 318.631 212.951 312.224 212.491 304.384L200.38 97.8888C199.919 90.0486 193.136 83.6421 185.295 83.6421H85.9454C78.1127 83.6421 72.0759 90.0486 72.5362 97.8888L84.6475 304.391C85.1078 312.224 91.8916 318.638 99.7243 318.638L99.7318 318.631Z" fill="white"/>
<path d="M100.32 314.495H196.901C202.41 314.495 206.65 309.99 206.326 304.482L194.268 98.8923C193.943 93.3837 189.174 88.8788 183.673 88.8788H87.0924C81.5838 88.8788 77.343 93.3837 77.6675 98.8923L89.7259 304.489C90.0504 309.998 94.8194 314.503 100.32 314.503V314.495Z" fill="#FF6F3E"/>
<path d="M101.361 313.393H197.942C203.45 313.393 207.691 308.888 207.367 303.38L195.308 97.7829C194.984 92.2744 190.215 87.7695 184.714 87.7695H88.1332C82.6246 87.7695 78.3838 92.2744 78.7083 97.7829L90.7667 303.38C91.0912 308.888 95.8602 313.393 101.361 313.393Z" fill="white"/>
<path opacity="0.1" d="M104.184 305.749H194.222C197.625 305.749 200.244 302.965 200.047 299.562L195.014 213.802C194.818 210.399 191.868 207.614 188.464 207.614H98.4185C95.0153 207.614 92.3969 210.399 92.5931 213.802L97.6262 299.562C97.8224 302.965 100.773 305.749 104.176 305.749H104.184Z" fill="#FF6F3E"/>
<path opacity="0.1" d="M124.187 103.02H150.432C151.647 103.02 152.59 102.024 152.515 100.802C152.447 99.5791 151.39 98.5831 150.168 98.5831H123.923C122.708 98.5831 121.765 99.5791 121.84 100.802C121.908 102.016 122.965 103.02 124.187 103.02Z" fill="#FF6F3E"/>
<path opacity="0.1" d="M113.741 185.792C97.5757 170.094 96.4721 145.009 111.276 129.764C126.081 114.52 151.187 114.887 167.352 130.586C183.518 146.284 184.621 171.369 169.817 186.614C155.013 201.858 129.907 201.491 113.741 185.792Z" fill="#FF6F3E"/>
<path d="M168.294 184.433C174.949 177.378 178.292 167.998 177.711 158.03L176.957 158.075C177.53 167.832 174.255 177.008 167.743 183.913L168.294 184.433Z" fill="#FF6F3E"/>
<path d="M103.383 158.347L104.138 158.302C103.942 154.929 104.198 151.593 104.915 148.386L104.176 148.22C103.451 151.495 103.18 154.898 103.383 158.339V158.347Z" fill="#FF6F3E"/>
<path d="M107.089 141.821C108.636 138.38 110.741 135.226 113.352 132.457C116.966 128.623 121.298 125.756 126.218 123.937L125.954 123.228C120.92 125.084 116.498 128.02 112.801 131.936C110.13 134.766 107.979 137.988 106.394 141.512L107.081 141.821H107.089Z" fill="#FF6F3E"/>
<path d="M117.189 182.241C103.101 168.56 102.138 146.702 115.038 133.418C127.937 120.135 149.815 120.457 163.903 134.137C177.99 147.818 178.954 169.676 166.054 182.96C153.154 196.244 131.277 195.922 117.189 182.241Z" fill="#FF6F3E"/>
<path d="M98.833 98.1829H88.2007C87.6046 98.1829 87.0915 97.6999 87.0613 97.1038C87.0236 96.5077 87.4839 96.0247 88.0725 96.0247H98.7047C99.3008 96.0247 99.814 96.5077 99.8441 97.1038C99.8819 97.6999 99.4216 98.1829 98.8254 98.1829H98.833Z" fill="#FF6F3E"/>
<path d="M99.0527 101.888H88.4205C87.8244 101.888 87.3112 101.405 87.281 100.809C87.2433 100.213 87.7036 99.73 88.2998 99.73H98.932C99.5281 99.73 100.041 100.213 100.071 100.809C100.109 101.405 99.6489 101.888 99.0603 101.888H99.0527Z" fill="#FF6F3E"/>
<path d="M185.068 101.888H174.436C173.84 101.888 173.327 101.405 173.297 100.809C173.259 100.213 173.719 99.73 174.316 99.73H184.948C185.544 99.73 186.057 100.213 186.087 100.809C186.125 101.405 185.665 101.888 185.068 101.888Z" fill="#FF6F3E"/>
<path d="M99.2715 105.586H88.6392C88.0431 105.586 87.53 105.103 87.4998 104.506C87.4621 103.91 87.9224 103.427 88.5185 103.427H99.1508C99.7469 103.427 100.26 103.91 100.29 104.506C100.328 105.103 99.8676 105.586 99.2715 105.586Z" fill="#FF6F3E"/>
<path d="M113.239 240.968H177.568C182.692 240.968 186.638 236.78 186.336 231.656C186.034 226.532 181.597 222.344 176.474 222.344H112.152C107.028 222.344 103.082 226.532 103.384 231.656C103.686 236.78 108.123 240.968 113.246 240.968H113.239Z" fill="white"/>
<path d="M172.575 234.995C170.617 233.093 170.482 230.056 172.273 228.211C174.064 226.367 177.104 226.413 179.062 228.315C181.021 230.216 181.156 233.253 179.365 235.098C177.573 236.943 174.534 236.897 172.575 234.995Z" fill="#FF6F3E"/>
<path opacity="0.2" d="M115.405 230.667H163.533C164.37 230.667 165.012 229.988 164.959 229.151C164.914 228.313 164.189 227.634 163.352 227.634H115.224C114.386 227.634 113.745 228.313 113.797 229.151C113.843 229.988 114.567 230.667 115.405 230.667Z" fill="#FF6F3E"/>
<path opacity="0.2" d="M124.527 235.678H163.827C164.664 235.678 165.306 234.999 165.253 234.161C165.208 233.323 164.483 232.644 163.646 232.644H124.346C123.509 232.644 122.867 233.323 122.92 234.161C122.965 234.999 123.69 235.678 124.527 235.678Z" fill="#FF6F3E"/>
</g>
<path d="M141.022 158.522C144.533 158.231 147.143 155.149 146.851 151.638C146.559 148.128 143.477 145.518 139.967 145.81C136.456 146.101 133.847 149.183 134.138 152.694C134.43 156.205 137.512 158.814 141.022 158.522Z" stroke="white" stroke-width="1.5" stroke-linecap="round" stroke-linejoin="round"/>
<path d="M152.999 170.328C152.59 165.408 147.365 161.836 141.339 162.336C135.313 162.837 130.749 167.222 131.158 172.142" stroke="white" stroke-width="1.5" stroke-linecap="round" stroke-linejoin="round"/>
</svg>
