<svg width="16" height="16" viewBox="0 0 16 16" fill="none" xmlns="http://www.w3.org/2000/svg">
<path opacity="0.4" d="M7.99992 14.6666C11.6818 14.6666 14.6666 11.6818 14.6666 7.99992C14.6666 4.31802 11.6818 1.33325 7.99992 1.33325C4.31802 1.33325 1.33325 4.31802 1.33325 7.99992C1.33325 11.6818 4.31802 14.6666 7.99992 14.6666Z" fill="#FF6F3E"/>
<path d="M10.4733 10.6199C10.3867 10.6199 10.3 10.5999 10.22 10.5466L8.15334 9.31326C7.64001 9.00659 7.26001 8.33326 7.26001 7.73992V5.00659C7.26001 4.73326 7.48668 4.50659 7.76001 4.50659C8.03334 4.50659 8.26001 4.73326 8.26001 5.00659V7.73992C8.26001 7.97992 8.46001 8.33326 8.66668 8.45326L10.7333 9.68659C10.9733 9.82659 11.0467 10.1333 10.9067 10.3733C10.8067 10.5333 10.64 10.6199 10.4733 10.6199Z" fill="#FF6F3E"/>
</svg>
