<svg width="36" height="36" viewBox="0 0 36 36" fill="none" xmlns="http://www.w3.org/2000/svg">
<path fill-rule="evenodd" clip-rule="evenodd" d="M11.7694 4.23441C11.7588 4.23309 11.7479 4.23242 11.7369 4.23242H14.2023C19.3189 4.23242 23.473 8.38644 23.473 13.503C23.473 13.503 23.0407 13.8363 22.9552 13.8469C22.9325 13.8498 22.9094 13.8498 22.8867 13.8469C22.5295 13.8023 22.1657 13.7794 21.7965 13.7794C21.5332 13.7794 21.2726 13.791 21.0154 13.8138C21.0073 13.8146 20.9991 13.8149 20.991 13.8149C20.991 13.8149 20.9167 13.8268 20.8297 13.7631C20.8297 13.7631 20.6718 13.589 20.6718 13.503C20.6718 8.69136 16.7654 4.78496 11.9538 4.78496L11.7392 4.78762C11.6556 4.78762 11.5807 4.75048 11.53 4.69186C11.4889 4.64424 11.4637 4.58244 11.4629 4.51453C11.4611 4.36333 11.5812 4.23866 11.7326 4.23507L11.7694 4.23441Z" fill="#213BF1"/>
<path fill-rule="evenodd" clip-rule="evenodd" d="M21.2247 13.505V13.5029C21.2247 8.38638 17.0706 4.23236 11.9541 4.23236C6.83747 4.23236 2.68346 8.38638 2.68346 13.5029C2.68346 14.9075 2.9966 16.2395 3.55644 17.4326C3.5571 17.434 3.55776 17.4353 3.55829 17.4366C3.84955 18.0327 3.83788 18.732 3.52699 19.318C3.52553 19.3206 3.52421 19.3234 3.52288 19.3261C3.24661 19.8916 2.88532 20.4168 2.43848 20.824L2.43305 20.8289C2.2589 20.9731 2.20121 21.2159 2.29312 21.4235C2.38649 21.6345 2.61077 21.7556 2.83837 21.7181C3.66586 21.591 4.86484 21.4076 6.07338 21.2665C6.52499 21.2158 6.98085 21.3136 7.37198 21.5447C7.37237 21.545 7.37277 21.5453 7.37317 21.5455C8.71872 22.3315 10.2852 22.7736 11.9541 22.7736C12.2487 22.7736 12.5402 22.7598 12.8286 22.7327C12.9701 22.7195 13.0784 22.6009 13.079 22.4588C13.0983 17.9419 16.5604 14.2312 20.974 13.8176L20.9483 13.8188C20.9483 13.8188 21.2237 13.7947 21.2245 13.5426L21.2247 13.505Z" fill="#3D74F4"/>
<path fill-rule="evenodd" clip-rule="evenodd" d="M30.952 30.2376C30.952 30.2376 31.0749 30.4064 31.1772 30.4205C31.9294 30.5236 32.6243 30.6299 33.1638 30.7128C33.3885 30.7498 33.6128 30.6287 33.7061 30.4177C33.7979 30.2101 33.7403 29.9674 33.5663 29.8233C33.1168 29.4154 32.7537 28.8882 32.4764 28.3204C32.475 28.3176 32.4736 28.3148 32.4721 28.3122C32.1612 27.7262 32.1496 27.0269 32.4408 26.4308C32.4415 26.4295 32.4421 26.4283 32.4427 26.427C33.0026 25.2337 33.3157 23.9017 33.3157 22.4971C33.3157 17.3806 29.1616 13.2266 24.0451 13.2266C23.6527 13.2266 23.266 13.251 22.8864 13.2984C22.7482 13.3157 22.6445 13.4333 22.6445 13.5726C22.6445 13.712 22.7482 13.8295 22.8866 13.8469C27.1845 14.3838 30.5145 18.0547 30.5145 22.4971C30.5145 23.8173 30.2204 25.0694 29.6944 26.191C29.3276 26.9438 29.342 27.8265 29.7332 28.5668C30.0426 29.1992 30.4506 29.7841 30.952 30.2376Z" fill="#079FEB"/>
<path fill-rule="evenodd" clip-rule="evenodd" d="M27.7549 30.2698C28.8986 30.4051 30.0267 30.5766 30.8351 30.6988C31.0686 30.737 31.3019 30.6119 31.4007 30.3933C31.4978 30.1783 31.4411 29.9254 31.2626 29.7725C30.8756 29.4071 30.5541 28.9531 30.3082 28.4573C30.3063 28.4537 30.3045 28.4501 30.3025 28.4466C29.9421 27.7935 29.9179 27.007 30.2372 26.3329C30.2379 26.3316 30.2384 26.3303 30.2391 26.3291C30.7705 25.161 31.0668 23.8635 31.0668 22.4971C31.0668 17.3806 26.9128 13.2266 21.7962 13.2266C16.6797 13.2266 12.5256 17.3806 12.5256 22.4971C12.5256 27.6138 16.6797 31.7678 21.7962 31.7678C23.4391 31.7678 24.9826 31.3394 26.3121 30.573C26.3119 30.5732 26.3124 30.5729 26.3121 30.573C26.7478 30.3197 27.2542 30.2132 27.7549 30.2698Z" fill="#20BFFC"/>
<g filter="url(#filter0_i_0_86)">
<path d="M21.6651 25.9331C21.6303 25.9369 21.5948 25.9387 21.5598 25.9375C21.4521 25.9332 21.3475 25.9 21.257 25.8415C21.1665 25.783 21.0933 25.7012 21.0452 25.6047L19.6477 22.771C19.5009 22.4735 19.623 22.1139 19.9206 21.9671C20.2181 21.8204 20.5777 21.9425 20.7245 22.24L21.6329 24.0819L24.1773 19.7692C24.3453 19.4829 24.7139 19.3874 25.0001 19.5554C25.2864 19.7233 25.3819 20.0919 25.2139 20.3782L22.1047 25.6459C22.0571 25.7231 21.993 25.7889 21.917 25.8386C21.841 25.8883 21.755 25.9205 21.6651 25.9331Z" fill="white"/>
<path opacity="0.35" d="M23.5029 22.68C23.5682 22.6085 24.7469 20.7332 24.7469 20.7332C24.7469 20.7332 24.8475 20.5918 24.7324 20.4957C24.6246 20.4081 24.5109 20.4908 24.461 20.5642C24.411 20.6376 23.3449 22.3119 23.3027 22.3933C23.2831 22.4378 23.2758 22.4867 23.2817 22.535C23.2875 22.5832 23.3062 22.629 23.3358 22.6676C23.3926 22.7364 23.458 22.7315 23.5029 22.68Z" fill="#B3E7FA"/>
<path opacity="0.35" d="M24.9298 20.2799C25.0201 20.2676 25.0831 20.1844 25.0708 20.0942C25.0584 20.004 24.9752 19.9409 24.885 19.9533C24.7948 19.9657 24.7317 20.0488 24.7441 20.139C24.7565 20.2292 24.8396 20.2923 24.9298 20.2799Z" fill="#B3E7FA"/>
<path opacity="0.35" d="M20.2813 23.1676C20.3144 23.1626 20.282 22.978 20.3442 22.7884C20.3878 22.6543 20.4578 22.5802 20.4477 22.5099C20.4375 22.4397 20.296 22.1102 20.2283 22.1427C20.1341 22.1874 20.0258 22.3314 20.0247 22.5327C20.0233 22.8496 20.2206 23.177 20.2813 23.1676Z" fill="#B3E7FA"/>
</g>
<path fill-rule="evenodd" clip-rule="evenodd" d="M16.9848 30.4213C15.7833 28.8582 15.0686 26.9015 15.0686 24.7792C15.0686 19.6626 19.2226 15.5086 24.3392 15.5086C26.1003 15.5086 27.7475 16.0007 29.1506 16.855C27.455 14.6492 24.7905 13.2266 21.7962 13.2266C16.6797 13.2266 12.5256 17.3806 12.5256 22.4971C12.5256 25.8525 14.3122 28.794 16.9848 30.4213Z" fill="#0DB0EE"/>
<path d="M11.9538 14.7522C12.6438 14.7522 13.2031 14.1929 13.2031 13.503C13.2031 12.813 12.6438 12.2537 11.9538 12.2537C11.2639 12.2537 10.7046 12.813 10.7046 13.503C10.7046 14.1929 11.2639 14.7522 11.9538 14.7522Z" fill="#F1FBFF"/>
<path d="M15.9365 14.7522C16.6265 14.7522 17.1858 14.1929 17.1858 13.503C17.1858 12.813 16.6265 12.2537 15.9365 12.2537C15.2466 12.2537 14.6873 12.813 14.6873 13.503C14.6873 14.1929 15.2466 14.7522 15.9365 14.7522Z" fill="#F1FBFF"/>
<path d="M7.97069 14.7523C8.66064 14.7523 9.21995 14.193 9.21995 13.503C9.21995 12.8131 8.66064 12.2538 7.97069 12.2538C7.28075 12.2538 6.72144 12.8131 6.72144 13.503C6.72144 14.193 7.28075 14.7523 7.97069 14.7523Z" fill="#F1FBFF"/>
<path fill-rule="evenodd" clip-rule="evenodd" d="M3.72769 17.9363H3.74891C3.65461 17.4064 3.6054 16.8612 3.6054 16.3045C3.6054 11.188 7.75942 7.034 12.8761 7.034C16.4566 7.034 19.5659 9.0683 21.1102 12.0438C20.4097 7.61956 16.5742 4.23242 11.954 4.23242C6.83737 4.23242 2.68335 8.38644 2.68335 13.503C2.68335 14.9075 2.99649 16.2395 3.55633 17.4327C3.55699 17.434 3.55766 17.4354 3.55819 17.4367C3.6367 17.5972 3.69307 17.7651 3.72769 17.9363Z" fill="#1D5AEA"/>
<defs>
<filter id="filter0_i_0_86" x="19.5854" y="19.4725" width="5.71143" height="6.46533" filterUnits="userSpaceOnUse" color-interpolation-filters="sRGB">
<feFlood flood-opacity="0" result="BackgroundImageFix"/>
<feBlend mode="normal" in="SourceGraphic" in2="BackgroundImageFix" result="shape"/>
<feColorMatrix in="SourceAlpha" type="matrix" values="0 0 0 0 0 0 0 0 0 0 0 0 0 0 0 0 0 0 127 0" result="hardAlpha"/>
<feOffset dx="0.2"/>
<feComposite in2="hardAlpha" operator="arithmetic" k2="-1" k3="1"/>
<feColorMatrix type="matrix" values="0 0 0 0 0.894118 0 0 0 0 0.964706 0 0 0 0 0.992157 0 0 0 1 0"/>
<feBlend mode="normal" in2="shape" result="effect1_innerShadow_0_86"/>
</filter>
</defs>
</svg>
