<svg width="36" height="36" viewBox="0 0 36 36" fill="none" xmlns="http://www.w3.org/2000/svg">
<path d="M5.01855 21.6914C4.50858 21.6914 4.0957 21.2785 4.0957 20.7686V18.9229C4.0957 15.2252 5.53574 11.7491 8.15024 9.13462C8.51073 8.77414 9.09472 8.77414 9.45521 9.13462C9.8157 9.49511 9.8157 10.0791 9.45521 10.4396C7.18966 12.7054 5.94141 15.7181 5.94141 18.9229V20.7686C5.94141 21.2785 5.52853 21.6914 5.01855 21.6914Z" fill="#3E5959"/>
<path d="M30.9812 21.6914C30.4712 21.6914 30.0583 21.2785 30.0583 20.7686V18.9229C30.0583 15.7181 28.8101 12.7054 26.5445 10.4396C26.184 10.0791 26.184 9.49511 26.5445 9.13462C26.905 8.77414 27.489 8.77414 27.8495 9.13462C30.464 11.7491 31.904 15.2252 31.904 18.9229V20.7686C31.904 21.2785 31.4912 21.6914 30.9812 21.6914Z" fill="#384949"/>
<path d="M8.70996 30.9199H5.01855C3.492 30.9199 2.25 29.6779 2.25 28.1514V22.6143C2.25 21.0877 3.492 19.8457 5.01855 19.8457H8.70996C9.21993 19.8457 9.63281 20.2586 9.63281 20.7686V29.9971C9.63281 30.507 9.21993 30.9199 8.70996 30.9199Z" fill="#FF7816"/>
<path d="M29.1537 7.83013C26.1821 4.877 22.1893 3.23438 17.9995 3.23438C13.8097 3.23438 9.81688 4.877 6.84525 7.83013C6.49462 8.19927 6.49462 8.77148 6.84525 9.14062L8.24803 10.5432C9.2264 11.503 10.7767 11.6138 11.8657 10.8015C13.6191 9.47275 15.8402 8.80825 17.9995 8.80825C20.1588 8.80825 22.3799 9.47275 24.1333 10.8015C25.2408 11.6138 26.7911 11.503 27.751 10.5432L29.1537 9.14062C29.5044 8.77148 29.5044 8.19927 29.1537 7.83013Z" fill="#FF7816"/>
<path d="M30.9814 30.9199H27.29C26.7801 30.9199 26.3672 30.507 26.3672 29.9971V20.7686C26.3672 20.2586 26.7801 19.8457 27.29 19.8457H30.9814C32.508 19.8457 33.75 21.0877 33.75 22.6143V28.1514C33.75 29.6779 32.508 30.9199 30.9814 30.9199Z" fill="#FF4B00"/>
<path d="M23.5986 29.0742C23.0887 29.0742 22.6758 28.6613 22.6758 28.1514V22.6143C22.6758 22.1043 23.0887 21.6914 23.5986 21.6914C24.1086 21.6914 24.5215 22.1043 24.5215 22.6143V28.1514C24.5215 28.6613 24.1086 29.0742 23.5986 29.0742Z" fill="#3EBBF2"/>
<path d="M19.8457 32.7656C19.3357 32.7656 18.9229 32.3527 18.9229 31.8428V18.9229C18.9229 18.4129 19.3357 18 19.8457 18C20.3557 18 20.7686 18.4129 20.7686 18.9229V31.8428C20.7686 32.3527 20.3557 32.7656 19.8457 32.7656Z" fill="#3EBBF2"/>
<path d="M16.1543 32.7656C15.6443 32.7656 15.2314 32.3527 15.2314 31.8428V18.9229C15.2314 18.4129 15.6443 18 16.1543 18C16.6643 18 17.0771 18.4129 17.0771 18.9229V31.8428C17.0771 32.3527 16.6643 32.7656 16.1543 32.7656Z" fill="#84CEEF"/>
<path d="M12.4014 29.0742C11.8914 29.0742 11.4785 28.6613 11.4785 28.1514V22.6143C11.4785 22.1043 11.8914 21.6914 12.4014 21.6914C12.9113 21.6914 13.3242 22.1043 13.3242 22.6143V28.1514C13.3242 28.6613 12.9113 29.0742 12.4014 29.0742Z" fill="#84CEEF"/>
<path d="M29.1542 9.14062L27.7515 10.5432C26.7916 11.503 25.2413 11.6138 24.1338 10.8015C22.3804 9.47275 20.1593 8.80825 18 8.80825V3.23438C22.1898 3.23438 26.1826 4.877 29.1542 7.83013C29.5049 8.19927 29.5049 8.77148 29.1542 9.14062Z" fill="#FF4B00"/>
</svg>
