<svg width="100" height="109" viewBox="0 0 100 109" fill="none" xmlns="http://www.w3.org/2000/svg">
<path d="M37.3421 14.6913C38.0034 14.6913 38.6744 14.5321 39.2977 14.1978L51.2287 7.78586C53.2423 6.70375 53.9973 4.19371 52.915 2.18006C51.8338 0.167134 49.3246 -0.587896 47.3099 0.493494L35.3789 6.90547C33.3653 7.98758 32.6099 10.4976 33.6923 12.5106C34.4395 13.9017 35.8672 14.6913 37.3421 14.6913Z" fill="#D84918"/>
<path d="M5.79328 33.1935C6.49262 33.1935 7.2018 33.0163 7.85164 32.6431L27.8778 21.139C29.8598 20.0007 30.5437 17.4705 29.4051 15.4878C28.2664 13.5059 25.7364 12.8222 23.7541 13.9605L3.7279 25.4653C1.74583 26.6036 1.06197 29.1338 2.20061 31.1158C2.96609 32.4486 4.3597 33.1935 5.79328 33.1935Z" fill="#D84918"/>
<path d="M28.8697 35.2759C29.6377 36.599 31.0259 37.3376 32.4533 37.3376C33.1586 37.3376 33.8734 37.1573 34.5274 36.7776L70.8061 15.7165C72.7832 14.5689 73.4554 12.0358 72.3078 10.0589C71.1596 8.08123 68.6265 7.40977 66.6501 8.55672L30.3713 29.6183C28.3943 30.7659 27.722 33.299 28.8697 35.2759Z" fill="#D84918"/>
<path d="M4.4586 53.6458C5.16667 53.6458 5.8843 53.4637 6.5403 53.0812L23.4764 43.2012C25.4512 42.0491 26.1184 39.5146 24.9663 37.5398C23.8142 35.5653 21.2802 34.8982 19.3052 36.0506L2.36902 45.9305C0.393988 47.0826 -0.272989 49.6169 0.879167 51.5913C1.64858 52.9104 3.03459 53.6458 4.4586 53.6458Z" fill="#D84918"/>
<path d="M69.4729 31.7088C70.235 33.0517 71.6348 33.8046 73.0755 33.8046C73.7686 33.8046 74.4703 33.6309 75.1158 33.2642L89.9073 24.8645C91.895 23.7356 92.5917 21.209 91.4627 19.2213C90.3331 17.2328 87.8072 16.5376 85.8195 17.6658L71.0281 26.0662C69.0401 27.1945 68.3438 29.7211 69.4729 31.7088Z" fill="#D84918"/>
<path d="M65.0597 34.6131C63.893 32.6477 61.3539 32.0007 59.3876 33.1664L2.02738 67.2134C0.0616362 68.3803 -0.586485 70.9201 0.580302 72.8853C1.35422 74.1886 2.73095 74.9127 4.14398 74.9127C4.86218 74.9127 5.59022 74.7253 6.25242 74.3321L63.6132 40.2859C65.579 39.1188 66.2265 36.5795 65.0597 34.6131Z" fill="#D84918"/>
<path d="M91.2429 74.522L71.1952 86.1826C69.2193 87.3325 68.5486 89.8662 69.698 91.8418C70.4666 93.1636 71.854 93.9007 73.28 93.9007C73.9867 93.9007 74.7028 93.7191 75.357 93.3387L95.4049 81.6776C97.3811 80.5293 98.0511 77.9949 96.902 76.0193C95.7521 74.0431 93.2176 73.373 91.2429 74.522Z" fill="#D84918"/>
<path d="M60.6396 92.3953L47.2483 100.394C45.2854 101.566 44.6451 104.107 45.8173 106.069C46.5925 107.368 47.9656 108.087 49.3748 108.087C50.0966 108.087 50.8283 107.897 51.4933 107.5L64.8843 99.5018C66.8473 98.3297 67.4875 95.7878 66.3154 93.8261C65.1438 91.8629 62.6031 91.224 60.6396 92.3953Z" fill="#D84918"/>
<path d="M93.07 54.041L74.4126 65.1913C72.4501 66.3639 71.8102 68.9055 72.9825 70.8676C73.7577 72.1647 75.1309 72.8843 76.5401 72.8843C77.262 72.8843 77.994 72.6949 78.6597 72.2973L97.3171 61.1472C99.2788 59.9742 99.9186 57.4333 98.7464 55.4701C97.5743 53.5085 95.0332 52.8682 93.07 54.041Z" fill="#D84918"/>
<path d="M68.9494 73.1825C67.8116 71.2002 65.2828 70.5157 63.2993 71.6524L28.8698 91.4104C26.8869 92.5482 26.2022 95.0776 27.3397 97.0611C28.1052 98.3945 29.4993 99.1403 30.9335 99.1403C31.6323 99.1403 32.3406 98.9635 32.9901 98.5903L67.4196 78.8329C69.4022 77.6946 70.0875 75.1652 68.9494 73.1825Z" fill="#D84918"/>
<path d="M35.1504 72.1297C35.922 73.4395 37.303 74.1684 38.7211 74.1684C39.4348 74.1684 40.158 73.9832 40.818 73.5951L97.9606 40.2503C99.9303 39.0896 100.587 36.5526 99.4267 34.5828C98.2668 32.6138 95.7308 31.9582 93.7589 33.1174L36.6163 66.4621C34.6466 67.6221 33.9904 70.1592 35.1504 72.1297Z" fill="#D84918"/>
<path d="M30.5497 74.7995C29.3964 72.8254 26.8614 72.1612 24.888 73.3139L9.6984 82.5052C7.72509 83.6588 7.05977 86.1933 8.21276 88.1672C8.98249 89.4851 10.3673 90.2191 11.7908 90.2191C12.4997 90.2191 13.2185 90.0362 13.8748 89.6537L29.0644 80.4615C31.0377 79.3088 31.703 76.7735 30.5497 74.7995Z" fill="#D84918"/>
</svg>
