<svg width="20" height="20" viewBox="0 0 20 20" fill="none" xmlns="http://www.w3.org/2000/svg">
<path d="M3.5498 9.18353V13.3252C3.5498 14.8419 3.5498 14.8419 4.98314 15.8085L8.9248 18.0835C9.51647 18.4252 10.4831 18.4252 11.0748 18.0835L15.0165 15.8085C16.4498 14.8419 16.4498 14.8419 16.4498 13.3252V9.18353C16.4498 7.66686 16.4498 7.66686 15.0165 6.7002L11.0748 4.4252C10.4831 4.08353 9.51647 4.08353 8.9248 4.4252L4.98314 6.7002C3.5498 7.66686 3.5498 7.66686 3.5498 9.18353Z" stroke="#80706B" stroke-width="1.25" stroke-linecap="round" stroke-linejoin="round"/>
<path d="M14.5833 6.35817V4.1665C14.5833 2.49984 13.75 1.6665 12.0833 1.6665H7.91663C6.24996 1.6665 5.41663 2.49984 5.41663 4.1665V6.29984" stroke="#80706B" stroke-width="1.25" stroke-linecap="round" stroke-linejoin="round"/>
<path d="M10.5249 9.1583L10.9999 9.89997C11.0749 10.0166 11.2415 10.1333 11.3665 10.1666L12.2165 10.3833C12.7415 10.5166 12.8832 10.9666 12.5415 11.3833L11.9832 12.0583C11.8999 12.1666 11.8332 12.3583 11.8415 12.4916L11.8915 13.3666C11.9249 13.9083 11.5415 14.1833 11.0415 13.9833L10.2249 13.6583C10.0999 13.6083 9.89152 13.6083 9.76652 13.6583L8.94986 13.9833C8.44986 14.1833 8.06652 13.9 8.09986 13.3666L8.14986 12.4916C8.15819 12.3583 8.09152 12.1583 8.00819 12.0583L7.44986 11.3833C7.10819 10.9666 7.24986 10.5166 7.77486 10.3833L8.62486 10.1666C8.75819 10.1333 8.92486 10.0083 8.99152 9.89997L9.46652 9.1583C9.76652 8.7083 10.2332 8.7083 10.5249 9.1583Z" stroke="#80706B" stroke-width="1.25" stroke-linecap="round" stroke-linejoin="round"/>
</svg>
