<svg width="270" height="270" viewBox="0 0 270 270" fill="none" xmlns="http://www.w3.org/2000/svg">
<circle cx="135.5" cy="134.231" r="100" fill="#F4F3F2"/>
<path d="M172.958 58.0754H209.912C209.912 58.0754 206.647 52.1291 197.132 52.9946C188.049 53.8208 187.583 50.0664 182.968 49.6055C178.348 49.1447 174.498 52.6855 172.958 58.0754Z" fill="#E0E0E0"/>
<path d="M76.3672 155.768C76.3672 155.768 72.6634 157.769 78.0533 165.503C83.4432 173.236 86.9503 176.946 86.9503 176.946C86.9503 176.946 87.9676 178.772 86.3826 179.295C84.7977 179.818 81.1388 179.739 80.6892 181.83C80.2227 183.994 81.9875 185.736 85.2642 187.023C88.5352 188.31 95.6056 191.395 96.2407 191.677C96.8646 191.952 97.5671 192.772 96.5498 193.301C95.5325 193.829 87.5966 195.779 88.7432 199.489C89.8953 203.198 99.6017 205.289 100.658 205.536C101.715 205.784 102.013 206.177 102.007 206.739C102.002 207.301 99.2701 207.706 97.0388 208.352C94.8075 208.998 92.3289 210.139 93.172 212.224C94.0151 214.31 100.119 218.092 113.591 217.564L119.818 216.912L122.471 211.207C127.406 198.657 125.837 191.648 124.146 190.165C122.454 188.681 120.56 190.648 119.217 192.542C117.873 194.436 116.592 196.881 116.058 196.701C115.524 196.521 115.254 196.111 115.367 195.032C115.479 193.953 116.699 184.095 113.574 181.79C110.449 179.486 105.998 186.337 105.16 187.124C104.323 187.917 103.783 186.984 103.727 186.298C103.671 185.601 103.081 177.912 102.94 174.4C102.8 170.887 101.737 168.644 99.5399 168.375C97.421 168.11 96.2913 171.589 95.274 172.916C94.2567 174.237 92.8685 172.674 92.8685 172.674C92.8685 172.674 90.5136 168.139 84.9888 160.506C79.4584 152.874 76.2885 155.796 76.2885 155.796" fill="#EBEBEB"/>
<path d="M120.346 218.334C116.305 212.713 109.297 202.602 103.232 193.947C97.1681 185.297 91.677 177.474 87.6641 171.831C85.6576 169.015 84.0334 166.739 82.9093 165.154C82.3529 164.373 81.9201 163.76 81.6166 163.339C81.4761 163.136 81.3637 162.979 81.285 162.861C81.2119 162.754 81.1782 162.692 81.1782 162.692C81.1782 162.692 81.2232 162.743 81.3019 162.844C81.3862 162.957 81.4986 163.108 81.6503 163.311C81.9595 163.727 82.4035 164.334 82.9711 165.104C84.1177 166.666 85.7588 168.931 87.7765 171.747C91.8175 177.367 97.3311 185.179 103.39 193.829C109.454 202.479 116.446 212.601 120.453 218.244" fill="#E0E0E0"/>
<path d="M85.8093 182.15C85.8093 182.15 85.9723 182.161 86.259 182.212C86.5456 182.262 86.9559 182.347 87.4673 182.459C88.4846 182.678 89.8785 183.021 91.4128 183.426C92.9247 183.831 94.2904 184.196 95.3358 184.477C95.8079 184.601 96.207 184.702 96.5273 184.786C96.8083 184.859 96.9657 184.904 96.9601 184.915C96.9601 184.926 96.7971 184.91 96.5105 184.859C96.2238 184.808 95.8135 184.724 95.3021 184.606C94.2848 184.376 92.8966 184.016 91.3622 183.611C89.8504 183.218 88.479 182.864 87.4336 182.588C86.9615 182.465 86.5625 182.364 86.2421 182.285C85.9611 182.212 85.8093 182.161 85.8093 182.15Z" fill="#E0E0E0"/>
<path d="M97.3256 184.46C97.275 184.449 97.8539 181.537 98.6183 177.963C99.3826 174.383 100.046 171.494 100.102 171.505C100.153 171.516 99.5793 174.428 98.8094 178.002C98.045 181.582 97.3818 184.471 97.3256 184.46Z" fill="#E0E0E0"/>
<path d="M106.037 198.162C106.037 198.162 106.099 198.005 106.234 197.746C106.391 197.449 106.594 197.078 106.83 196.639C107.33 195.706 108.021 194.414 108.724 192.958C109.432 191.502 110.028 190.165 110.455 189.192C110.657 188.737 110.826 188.349 110.961 188.04C111.079 187.77 111.152 187.619 111.168 187.624C111.18 187.624 111.135 187.787 111.034 188.068C110.932 188.349 110.786 188.754 110.584 189.243C110.191 190.232 109.612 191.581 108.903 193.042C108.195 194.504 107.487 195.791 106.953 196.707C106.683 197.168 106.464 197.533 106.301 197.786C106.144 198.039 106.048 198.174 106.037 198.168V198.162Z" fill="#E0E0E0"/>
<path d="M95.156 198.365C95.156 198.365 95.3078 198.331 95.5832 198.314C95.8979 198.297 96.2857 198.275 96.7409 198.247C97.7189 198.196 99.0734 198.146 100.568 198.101C102.063 198.056 103.418 198.022 104.401 198.011C104.857 198.011 105.25 198.011 105.565 198.011C105.84 198.011 105.992 198.022 105.992 198.033C105.992 198.044 105.84 198.067 105.565 198.084C105.25 198.101 104.862 198.123 104.407 198.151C103.429 198.202 102.075 198.252 100.574 198.297C99.079 198.342 97.7245 198.376 96.7409 198.387C96.2857 198.387 95.8923 198.387 95.5775 198.387C95.3021 198.387 95.1504 198.376 95.1504 198.365H95.156Z" fill="#E0E0E0"/>
<path d="M101.31 211.438C101.31 211.438 101.501 211.404 101.855 211.376C102.243 211.353 102.743 211.32 103.339 211.286C104.593 211.218 106.329 211.134 108.246 211.055C110.162 210.977 111.899 210.915 113.158 210.881C113.759 210.87 114.26 210.859 114.647 210.853C115.001 210.853 115.193 210.853 115.193 210.87C115.193 210.881 115.001 210.904 114.647 210.932C114.26 210.954 113.759 210.988 113.164 211.022C111.91 211.089 110.174 211.174 108.257 211.252C106.341 211.331 104.604 211.393 103.35 211.426C102.749 211.438 102.249 211.449 101.861 211.455C101.507 211.455 101.316 211.455 101.316 211.438H101.31Z" fill="#E0E0E0"/>
<path d="M114.861 210.791C114.861 210.791 114.934 210.595 115.097 210.257C115.277 209.886 115.518 209.409 115.799 208.83C116.395 207.621 117.21 205.952 118.053 204.081C118.902 202.209 119.627 200.501 120.144 199.253C120.391 198.657 120.599 198.162 120.757 197.78C120.903 197.432 120.987 197.241 121.004 197.246C121.015 197.246 120.953 197.449 120.83 197.808C120.706 198.162 120.515 198.674 120.273 199.303C119.79 200.562 119.082 202.288 118.233 204.159C117.384 206.031 116.553 207.7 115.923 208.892C115.608 209.487 115.35 209.965 115.164 210.297C114.979 210.623 114.872 210.803 114.861 210.797V210.791Z" fill="#E0E0E0"/>
<path d="M167.124 127.846C160.431 120.343 161.077 109.518 163.606 100.245C164.028 98.6991 164.247 97.013 165.315 95.8159C166.383 94.6243 168.333 94.096 169.575 95.0852C170.603 95.9058 170.789 97.3727 171.177 98.6429C171.688 100.329 172.683 101.863 174.009 103.004C174.881 103.757 176.033 104.359 177.146 104.055C178.669 103.634 179.264 101.807 179.624 100.256C180.293 97.3615 180.956 94.4614 181.625 91.5669C181.985 90.0157 182.356 88.4251 183.187 87.0706C184.019 85.7105 185.407 84.5977 186.981 84.5302C188.555 84.4684 190.179 85.7498 190.129 87.3404C190.106 88.0036 189.825 88.6274 189.713 89.285C189.606 89.937 189.735 90.7238 190.303 91.0498C190.882 91.3758 191.607 91.0835 192.174 90.7407C194.147 89.5548 195.71 87.79 197.205 86.0252C198.694 84.2604 200.166 82.4394 202.027 81.0737C203.887 79.7079 206.214 78.8312 208.468 79.2302C210.721 79.6293 212.762 81.5627 212.807 83.8782C212.852 86.1995 211.047 88.116 209.243 89.5604C206.562 91.7018 203.572 93.4441 200.403 94.7255C199.829 94.9559 199.211 95.2089 198.891 95.7372C198.306 96.6926 199.048 97.9516 199.987 98.5361C201.054 99.1937 202.336 99.3735 203.511 99.8007C204.685 100.228 205.871 101.077 206.057 102.324C206.315 104.061 204.595 105.41 203.033 106.191C199.902 107.753 196.508 108.771 193.051 109.181C191.809 109.327 190.522 109.411 189.415 109.996C188.302 110.581 187.42 111.845 187.717 113.07C188.015 114.296 189.359 114.987 190.606 115.043C191.854 115.105 193.079 114.711 194.321 114.548C196.643 114.251 199.363 115.049 200.296 117.213C200.908 118.634 200.588 120.343 199.79 121.681C198.992 123.018 197.778 124.041 196.53 124.957C192.163 128.155 187.02 130.347 181.67 130.892C176.319 131.438 171.621 130.814 167.13 127.852" fill="#F5F5F5"/>
<path d="M168.479 128.751C169.693 125.126 168.423 126.947 170.924 122.563C173.419 118.174 176.55 113.587 179.989 108.9C180.855 107.731 181.709 106.579 182.552 105.438C183.395 104.303 184.233 103.178 185.115 102.133C186.88 100.025 188.735 98.137 190.55 96.3947C192.365 94.6524 194.153 93.0675 195.833 91.5949C197.519 90.128 199.116 88.7904 200.622 87.6326C203.629 85.3058 206.276 83.7208 208.136 82.7035C209.064 82.1921 209.8 81.8211 210.3 81.5738C210.542 81.4558 210.727 81.3659 210.873 81.2984C211.003 81.2366 211.07 81.2085 211.07 81.2141C211.07 81.2141 211.008 81.2591 210.885 81.3266C210.744 81.3996 210.559 81.5008 210.328 81.6301C209.839 81.8942 209.114 82.282 208.192 82.8047C206.355 83.8501 203.735 85.4575 200.751 87.7956C199.256 88.959 197.671 90.3022 195.996 91.7804C194.321 93.2585 192.545 94.8491 190.736 96.5914C188.931 98.3337 187.088 100.222 185.334 102.319C184.458 103.364 183.626 104.477 182.783 105.612C181.94 106.747 181.091 107.905 180.226 109.069C176.786 113.75 173.655 118.32 171.16 122.692C168.653 127.059 169.912 125.21 168.676 128.813" fill="#E0E0E0"/>
<path d="M185.2 102.139C185.2 102.139 185.183 101.891 185.2 101.442C185.222 100.992 185.273 100.346 185.346 99.5477C185.492 97.9515 185.768 95.7539 186.088 93.3316C186.403 90.9092 186.65 88.7116 186.774 87.1154C186.835 86.3174 186.88 85.671 186.908 85.227C186.937 84.7774 186.959 84.5301 186.982 84.5301C187.004 84.5301 187.015 84.7774 187.021 85.227C187.032 85.6766 187.021 86.323 186.982 87.1267C186.914 88.7285 186.701 90.9373 186.38 93.3653C186.065 95.7539 185.773 97.9178 185.554 99.5701C185.458 100.318 185.38 100.947 185.318 101.453C185.262 101.897 185.217 102.144 185.2 102.139Z" fill="#E0E0E0"/>
<path d="M206.034 103.133C206.034 103.133 205.736 103.117 205.214 103.038C204.691 102.965 203.938 102.847 202.999 102.74C201.128 102.504 198.526 102.268 195.642 102.139C192.759 102.009 190.151 102.004 188.257 102.054C187.313 102.071 186.549 102.111 186.02 102.127C185.492 102.15 185.2 102.155 185.194 102.133C185.194 102.111 185.481 102.071 186.009 102.009C186.537 101.953 187.302 101.886 188.246 101.841C190.14 101.734 192.759 101.706 195.648 101.841C198.537 101.976 201.145 102.245 203.016 102.532C203.955 102.667 204.708 102.813 205.225 102.925C205.742 103.038 206.029 103.111 206.023 103.133H206.034Z" fill="#E0E0E0"/>
<path d="M171.261 122.248C171.261 122.248 171.222 122.158 171.182 121.973C171.137 121.754 171.081 121.489 171.014 121.169C170.868 120.472 170.688 119.455 170.474 118.202C170.053 115.689 169.581 112.199 169.108 108.338C168.636 104.477 168.198 100.986 167.833 98.4686C167.653 97.2433 167.501 96.2373 167.389 95.4842C167.344 95.1582 167.304 94.894 167.271 94.6692C167.248 94.4837 167.237 94.3826 167.248 94.3826C167.259 94.3826 167.287 94.4781 167.327 94.658C167.372 94.8772 167.428 95.1413 167.495 95.4617C167.641 96.1586 167.821 97.1759 168.035 98.4292C168.456 100.942 168.929 104.432 169.401 108.293C169.873 112.154 170.311 115.639 170.676 118.162C170.862 119.387 171.008 120.394 171.12 121.147C171.165 121.473 171.205 121.742 171.239 121.962C171.261 122.147 171.272 122.248 171.261 122.248Z" fill="#E0E0E0"/>
<path d="M199.795 119.983C199.795 119.983 199.694 120.011 199.509 120.028C199.284 120.051 199.009 120.073 198.677 120.101C197.913 120.163 196.879 120.247 195.62 120.349C193.04 120.557 189.477 120.888 185.542 121.259C181.608 121.63 178.039 121.928 175.454 122.085C174.161 122.164 173.116 122.215 172.391 122.237C172.059 122.243 171.778 122.254 171.559 122.26C171.368 122.26 171.267 122.26 171.267 122.248C171.267 122.237 171.368 122.22 171.553 122.203C171.778 122.181 172.053 122.158 172.385 122.13C173.149 122.068 174.184 121.984 175.443 121.883C178.022 121.675 181.586 121.343 185.52 120.972C189.454 120.602 193.023 120.304 195.608 120.146C196.901 120.068 197.946 120.017 198.671 119.995C199.003 119.989 199.278 119.978 199.503 119.972C199.694 119.972 199.795 119.972 199.795 119.983Z" fill="#E0E0E0"/>
<path d="M221.929 177.187C221.929 177.187 221.9 177.277 221.833 177.452C221.754 177.637 221.653 177.884 221.524 178.199C221.237 178.873 220.833 179.823 220.327 181.026C219.27 183.471 217.781 186.922 215.994 191.047L215.965 191.109L215.898 191.12C211.902 191.778 207.243 192.548 202.285 193.368C200.734 193.621 199.206 193.874 197.722 194.116L197.514 194.15L197.564 193.947C198.672 189.569 199.695 185.539 200.566 182.116L200.628 182.246C197.306 180.762 194.563 179.537 192.63 178.671C191.691 178.244 190.949 177.907 190.421 177.665C190.179 177.553 189.994 177.463 189.848 177.395C189.718 177.334 189.651 177.3 189.657 177.294C189.662 177.289 189.73 177.311 189.865 177.367C190.016 177.429 190.207 177.508 190.455 177.609C190.989 177.834 191.736 178.154 192.686 178.559C194.631 179.402 197.385 180.599 200.723 182.043L200.813 182.083L200.79 182.178C199.936 185.607 198.93 189.642 197.84 194.026L197.682 193.857C199.166 193.616 200.689 193.363 202.246 193.11C207.203 192.3 211.868 191.547 215.864 190.895L215.774 190.968C217.595 186.86 219.118 183.426 220.198 180.987C220.731 179.795 221.159 178.857 221.462 178.188C221.603 177.879 221.721 177.637 221.805 177.452C221.884 177.289 221.929 177.204 221.934 177.204L221.929 177.187Z" fill="#E0E0E0"/>
<path d="M199.324 192.497L198.953 193.481L199.549 194.341L198.503 194.29L197.868 195.122L197.593 194.11L196.604 193.767L197.481 193.194L197.503 192.143L198.324 192.801L199.324 192.497Z" fill="#E0E0E0"/>
<path d="M189.977 176.62L189.792 177.109L190.089 177.536L189.572 177.513L189.252 177.923L189.117 177.423L188.628 177.249L189.061 176.962L189.072 176.445L189.482 176.771L189.977 176.62Z" fill="#E0E0E0"/>
<path d="M216.376 190.429L216.19 190.918L216.488 191.345L215.971 191.317L215.651 191.733L215.516 191.233L215.027 191.058L215.46 190.772L215.471 190.249L215.881 190.575L216.376 190.429Z" fill="#E0E0E0"/>
<path d="M201.145 181.661L200.96 182.15L201.257 182.577L200.735 182.555L200.42 182.965L200.285 182.465L199.791 182.291L200.229 182.004L200.24 181.487L200.645 181.813L201.145 181.661Z" fill="#E0E0E0"/>
<path d="M222.564 176.698L222.378 177.187L222.676 177.614L222.153 177.586L221.839 178.002L221.698 177.502L221.209 177.328L221.648 177.041L221.659 176.518L222.064 176.844L222.564 176.698Z" fill="#E0E0E0"/>
<path d="M52.2109 217.598H81.6334C81.6334 217.598 79.0312 212.865 71.4606 213.551C64.2272 214.208 63.8619 211.224 60.1806 210.853C56.4993 210.482 53.4362 213.304 52.2109 217.598Z" fill="#E0E0E0"/>
<path d="M58.0562 101.757H87.4787C87.4787 101.757 84.8764 97.0242 77.3058 97.7099C70.0725 98.3675 69.7071 95.3831 66.0258 95.0121C62.3501 94.6468 59.2814 97.4626 58.0562 101.757Z" fill="#F5F5F5"/>
<path d="M207.49 122.215H231.663C231.663 122.215 229.527 118.325 223.305 118.893C217.365 119.433 217.061 116.976 214.037 116.679C211.014 116.375 208.496 118.691 207.49 122.22V122.215Z" fill="#F5F5F5"/>
<path d="M182.953 200.535C184.256 190.724 177.354 182.63 168.736 177.767C160.119 172.904 150.119 171.273 140.6 168.571C131.624 166.021 122.695 162.296 116.043 155.748C109.391 149.199 105.405 139.358 107.797 130.332C108.399 128.068 109.47 125.792 111.412 124.484C113.359 123.175 116.329 123.212 117.778 125.05C120.869 128.969 114.844 135.986 118.618 139.254C119.482 140.003 120.675 140.283 121.569 140.995C123.955 142.894 123.182 146.594 123.517 149.625C124.18 155.62 129.804 159.783 135.324 162.211C142.718 165.461 150.728 166.995 158.573 168.924C166.418 170.853 174.323 173.282 180.86 178.029C187.396 182.776 193.062 190.207 193.02 198.283C193.008 200.541 192.722 203.316 191.304 205.075C189.885 206.834 188.084 207.199 186.039 206.238C183.994 205.276 182.57 203.791 182.947 200.529" fill="#FF6F3E"/>
<g opacity="0.8">
<path d="M182.953 200.535C184.256 190.724 177.354 182.63 168.736 177.767C160.119 172.904 150.119 171.273 140.6 168.571C131.624 166.021 122.695 162.296 116.043 155.748C109.391 149.199 105.405 139.358 107.797 130.332C108.399 128.068 109.47 125.792 111.412 124.484C113.359 123.175 116.329 123.212 117.778 125.05C120.869 128.969 114.844 135.986 118.618 139.254C119.482 140.003 120.675 140.283 121.569 140.995C123.955 142.894 123.182 146.594 123.517 149.625C124.18 155.62 129.804 159.783 135.324 162.211C142.718 165.461 150.728 166.995 158.573 168.924C166.418 170.853 174.323 173.282 180.86 178.029C187.396 182.776 193.062 190.207 193.02 198.283C193.008 200.541 192.722 203.316 191.304 205.075C189.885 206.834 188.084 207.199 186.039 206.238C183.994 205.276 182.57 203.791 182.947 200.529" fill="white"/>
</g>
<path d="M141.264 122.56C140.954 118.927 143.662 115.762 146.742 114.064C149.821 112.366 153.345 111.678 156.522 110.175C164.403 106.438 169.412 97.6501 169.783 88.6305C170.155 79.611 166.247 70.6036 160.131 63.9759C157.648 61.2858 154.586 58.468 154.55 54.792C154.513 50.9578 158.226 47.9391 161.938 47.9878C165.651 48.0365 169.071 50.5196 171.293 53.6478C173.514 56.776 174.744 60.5007 175.942 64.1524C175.09 62.6248 176.843 60.732 178.529 60.8902C180.215 61.0545 181.548 62.4604 182.588 63.8602C187.062 69.8793 189.271 77.6147 188.656 85.0641C188.042 92.5134 184.597 99.6037 179.223 104.509C173.216 109.98 165.274 112.549 157.575 114.977L141.495 120.053" fill="#FF6F3E"/>
<g opacity="0.8">
<path d="M141.264 122.56C140.954 118.927 143.662 115.762 146.742 114.064C149.821 112.366 153.345 111.678 156.522 110.175C164.403 106.438 169.412 97.6501 169.783 88.6305C170.155 79.611 166.247 70.6036 160.131 63.9759C157.648 61.2858 154.586 58.468 154.55 54.792C154.513 50.9578 158.226 47.9391 161.938 47.9878C165.651 48.0365 169.071 50.5196 171.293 53.6478C173.514 56.776 174.744 60.5007 175.942 64.1524C175.09 62.6248 176.843 60.732 178.529 60.8902C180.215 61.0545 181.548 62.4604 182.588 63.8602C187.062 69.8793 189.271 77.6147 188.656 85.0641C188.042 92.5134 184.597 99.6037 179.223 104.509C173.216 109.98 165.274 112.549 157.575 114.977L141.495 120.053" fill="white"/>
</g>
<path d="M136.791 46.2107C135.196 46.8801 134.32 48.9068 134.923 50.5318C135.525 52.1568 137.509 53.1184 139.158 52.5889C140.808 52.0594 141.855 50.1179 141.398 48.4443C140.942 46.7706 139.049 45.6447 137.357 46.0281" fill="#FF6F3E"/>
<g opacity="0.8">
<path d="M136.791 46.2107C135.196 46.8801 134.32 48.9068 134.923 50.5318C135.525 52.1568 137.509 53.1184 139.158 52.5889C140.808 52.0594 141.855 50.1179 141.398 48.4443C140.942 46.7706 139.049 45.6447 137.357 46.0281" fill="white"/>
</g>
<path d="M95.6738 74.4074C92.4482 72.0155 90.4763 68.0109 90.5493 63.9941C90.6224 59.9773 92.7342 56.0518 96.039 53.7695C97.9074 52.4854 100.129 51.6942 101.79 50.1483C103.269 48.7729 104.231 46.8679 105.886 45.7116C107.943 44.2753 110.925 44.3361 112.922 45.8637C114.918 47.3852 115.764 50.2457 114.918 52.6132C114.157 54.7494 112.24 56.3074 111.437 58.4314C110.572 60.7137 111.132 63.276 110.81 65.6921C110.414 68.6682 108.607 71.4252 106.038 72.9711C103.47 74.5169 100.19 74.8273 97.3718 73.7805" fill="#FF6F3E"/>
<g opacity="0.8">
<path d="M95.6738 74.4074C92.4482 72.0155 90.4763 68.0109 90.5493 63.9941C90.6224 59.9773 92.7342 56.0518 96.039 53.7695C97.9074 52.4854 100.129 51.6942 101.79 50.1483C103.269 48.7729 104.231 46.8679 105.886 45.7116C107.943 44.2753 110.925 44.3361 112.922 45.8637C114.918 47.3852 115.764 50.2457 114.918 52.6132C114.157 54.7494 112.24 56.3074 111.437 58.4314C110.572 60.7137 111.132 63.276 110.81 65.6921C110.414 68.6682 108.607 71.4252 106.038 72.9711C103.47 74.5169 100.19 74.8273 97.3718 73.7805" fill="white"/>
</g>
<path d="M95.9106 61.3588H103.39V76.7809C103.39 78.6006 101.912 80.0734 100.098 80.0734H99.2093C97.3896 80.0734 95.9167 78.5945 95.9167 76.7809V61.3588H95.9106Z" fill="#FF6F3E"/>
<path d="M95.9109 61.3588L99.6477 54.4998L103.391 61.3588H95.9109Z" fill="#FFBE9D"/>
<path d="M98.1689 57.2141C98.1689 57.2141 99.307 58.9243 101.133 57.2141L99.6539 54.4997L98.175 57.2141H98.1689Z" fill="#FF6F3E"/>
<path d="M103.495 76.0262C103.495 76.1114 101.791 76.1784 99.691 76.1784C97.5913 76.1784 95.8872 76.1114 95.8872 76.0262C95.8872 75.941 97.5913 75.8741 99.691 75.8741C101.791 75.8741 103.495 75.941 103.495 76.0262Z" fill="#513E37"/>
<path d="M103.415 74.8819C103.415 74.9672 101.748 75.0341 99.6905 75.0341C97.6334 75.0341 95.9658 74.9672 95.9658 74.8819C95.9658 74.7967 97.6334 74.7298 99.6905 74.7298C101.748 74.7298 103.415 74.7967 103.415 74.8819Z" fill="#513E37"/>
<path d="M98.1082 61.4683C98.1934 61.4683 98.2604 64.4566 98.2604 68.1387C98.2604 71.8207 98.1934 74.809 98.1082 74.809C98.023 74.809 97.9561 71.8268 97.9561 68.1387C97.9561 64.4505 98.023 61.4683 98.1082 61.4683Z" fill="#FAFAFA"/>
<path d="M101.133 61.4683C101.218 61.4683 101.285 64.4566 101.285 68.1387C101.285 71.8207 101.218 74.809 101.133 74.809C101.048 74.809 100.981 71.8268 100.981 68.1387C100.981 64.4505 101.048 61.4683 101.133 61.4683Z" fill="#FAFAFA"/>
<path d="M211.639 142.311C211.041 142.295 210.409 142.316 209.758 142.396C205.839 142.882 202.919 146.249 202.926 150.197C202.926 151.348 203.051 152.633 203.412 153.916C204.506 157.796 204.843 161.215 204.718 162.88L208.38 164.847C208.38 164.847 210.074 162.411 211.712 161.363C213.35 160.312 218.799 157.505 220.958 154.616C222.35 152.756 222.616 148.937 219.3 145.596C217.273 143.556 214.514 142.391 211.639 142.309V142.311Z" fill="#FF6F3E"/>
<path d="M202.985 167.117L206.292 168.902L204.138 171.639L201.934 170.636L202.985 167.117Z" fill="#63514B"/>
<path d="M203.144 167.226C203.115 167.215 203.442 166.234 203.877 165.034C204.311 163.833 204.686 162.868 204.716 162.88C204.745 162.891 204.418 163.871 203.983 165.072C203.549 166.273 203.174 167.238 203.144 167.226Z" fill="#513E37"/>
<path d="M206.083 168.768C206.055 168.752 206.574 167.824 207.24 166.696C207.907 165.568 208.469 164.667 208.496 164.683C208.523 164.699 208.005 165.627 207.338 166.755C206.672 167.883 206.11 168.784 206.083 168.768Z" fill="#513E37"/>
<g opacity="0.4">
<path d="M212.742 142.414C212.594 142.423 210.775 144.552 209.97 145.994C207.261 150.845 207.14 155.565 206.387 161.069C206.28 161.856 205.889 163.551 205.896 163.512C206.296 163.826 207.643 164.451 207.643 164.451C207.643 164.451 208.912 162.918 209.417 162.147C211.439 159.058 213.632 156.652 215.363 153.393C217.093 150.133 218.758 147.243 217.157 143.917C217.157 143.917 214.384 142.321 212.74 142.414H212.742Z" fill="#37251F"/>
</g>
<path d="M220.972 155.105C220.972 155.105 220.953 155.071 220.924 155.001C220.894 154.933 220.858 154.826 220.797 154.694C220.678 154.43 220.483 154.048 220.157 153.618C219.832 153.193 219.377 152.71 218.752 152.308C218.138 151.894 217.344 151.566 216.448 151.455H216.425L216.411 151.434C215.991 150.868 215.508 150.281 214.933 149.738C214.36 149.196 213.689 148.698 212.915 148.348C212.144 148.004 211.314 147.852 210.532 147.893C209.749 147.932 209.015 148.182 208.446 148.589L208.414 148.612L208.385 148.584C207.705 147.986 206.89 147.677 206.156 147.595C205.416 147.511 204.761 147.645 204.261 147.836C203.758 148.027 203.401 148.273 203.174 148.448C203.06 148.537 202.974 148.609 202.919 148.662C202.862 148.712 202.833 148.737 202.83 148.735C202.83 148.735 202.855 148.703 202.908 148.648C202.96 148.594 203.042 148.516 203.153 148.421C203.378 148.234 203.731 147.979 204.241 147.777C204.745 147.575 205.412 147.429 206.167 147.509C206.918 147.586 207.752 147.895 208.453 148.507H208.389C208.971 148.082 209.727 147.822 210.529 147.782C211.33 147.736 212.178 147.891 212.965 148.243C213.752 148.598 214.432 149.105 215.012 149.656C215.592 150.206 216.077 150.8 216.495 151.371L216.461 151.35C217.378 151.468 218.181 151.81 218.8 152.235C219.43 152.651 219.884 153.145 220.207 153.579C220.528 154.018 220.717 154.407 220.828 154.678C220.885 154.812 220.915 154.921 220.94 154.992C220.963 155.064 220.974 155.101 220.972 155.103V155.105Z" fill="#513E37"/>
<path d="M214.164 159.939C214.141 159.945 214.146 159.609 213.848 159.143C213.698 158.917 213.473 158.66 213.145 158.467C212.824 158.269 212.397 158.135 211.933 158.18L211.887 158.185L211.88 158.14C211.808 157.669 211.612 157.168 211.28 156.725C210.95 156.284 210.486 155.89 209.922 155.669C209.458 155.485 208.965 155.419 208.503 155.451C208.039 155.485 207.604 155.617 207.238 155.808L207.204 155.826L207.177 155.797C206.811 155.406 206.338 155.185 205.905 155.108C205.471 155.019 205.075 155.064 204.766 155.144C204.14 155.315 203.874 155.617 203.861 155.592C203.861 155.592 203.874 155.574 203.908 155.542C203.942 155.513 203.99 155.465 204.063 155.412C204.206 155.31 204.431 155.176 204.748 155.083C205.062 154.992 205.469 154.939 205.919 155.023C206.367 155.096 206.863 155.317 207.25 155.726L207.188 155.715C207.566 155.513 208.014 155.374 208.494 155.337C208.971 155.303 209.483 155.369 209.963 155.56C210.55 155.788 211.028 156.197 211.366 156.654C211.708 157.114 211.905 157.632 211.976 158.119L211.924 158.078C212.413 158.035 212.858 158.183 213.186 158.394C213.523 158.601 213.748 158.87 213.896 159.106C214.041 159.345 214.107 159.559 214.139 159.704C214.155 159.777 214.157 159.834 214.162 159.873C214.166 159.911 214.166 159.93 214.162 159.932L214.164 159.939Z" fill="#513E37"/>
<path d="M205.653 169.764C205.653 169.764 205.616 169.719 205.532 169.685C205.448 169.648 205.309 169.644 205.145 169.696C205.061 169.719 204.966 169.749 204.852 169.751C204.738 169.751 204.613 169.699 204.525 169.608C204.349 169.426 204.281 169.159 204.117 168.977C204.036 168.889 203.926 168.841 203.813 168.85C203.699 168.855 203.583 168.893 203.467 168.918C203.353 168.946 203.233 168.964 203.121 168.937C203.01 168.914 202.921 168.859 202.851 168.798C202.709 168.675 202.648 168.529 202.632 168.429C202.616 168.329 202.632 168.272 202.637 168.272C202.646 168.272 202.646 168.327 202.675 168.418C202.703 168.507 202.771 168.632 202.901 168.734C202.967 168.784 203.046 168.827 203.139 168.843C203.23 168.861 203.333 168.843 203.442 168.816C203.551 168.789 203.669 168.745 203.808 168.736C203.947 168.725 204.101 168.789 204.199 168.898C204.393 169.116 204.452 169.378 204.6 169.532C204.672 169.61 204.761 169.653 204.854 169.655C204.948 169.66 205.039 169.635 205.125 169.619C205.298 169.573 205.459 169.589 205.55 169.646C205.644 169.701 205.657 169.767 205.653 169.767V169.764Z" fill="#513E37"/>
<path d="M206.033 169.234C206.019 169.262 205.296 168.905 204.42 168.438C203.544 167.97 202.844 167.57 202.86 167.542C202.873 167.515 203.597 167.872 204.472 168.338C205.348 168.807 206.046 169.207 206.033 169.234Z" fill="#513E37"/>
<path d="M205.375 170.067C205.375 170.067 205.33 170.09 205.25 170.126C205.209 170.144 205.164 170.172 205.1 170.197C205.036 170.224 204.955 170.233 204.873 170.226C204.707 170.215 204.504 170.162 204.327 170.017C204.24 169.946 204.165 169.842 204.12 169.73C204.072 169.623 204.033 169.512 203.961 169.432C203.811 169.271 203.565 169.253 203.362 169.26C203.153 169.266 202.948 169.273 202.787 169.205C202.628 169.139 202.532 169.025 202.496 168.939C202.459 168.85 202.471 168.796 202.478 168.796C202.487 168.796 202.491 168.846 202.535 168.918C202.578 168.991 202.671 169.08 202.814 169.13C202.958 169.18 203.144 169.169 203.358 169.155C203.565 169.144 203.845 169.148 204.045 169.355C204.138 169.46 204.177 169.583 204.222 169.685C204.265 169.789 204.322 169.871 204.397 169.937C204.547 170.069 204.729 170.126 204.882 170.147C205.034 170.174 205.146 170.11 205.237 170.085C205.325 170.06 205.378 170.06 205.378 170.067H205.375Z" fill="#513E37"/>
<path d="M81.6046 99.8117C81.1157 92.258 74.6017 86.5365 67.0479 87.0198C59.4942 87.5088 53.7727 94.0228 54.256 101.577C54.6101 107.045 58.1228 111.553 62.9001 113.441C63.0069 115.06 63.1249 116.892 63.1249 116.892L75.1075 116.116C75.1075 116.116 75.0569 114.177 74.9726 112.446C79.2272 109.889 81.9475 105.106 81.6046 99.8117Z" fill="#FF6F3E"/>
<path d="M70.7741 116.341C70.7741 116.341 70.7741 116.285 70.7741 116.173C70.7797 116.055 70.7853 115.886 70.7966 115.678C70.819 115.24 70.8584 114.599 70.9258 113.767C70.9933 112.941 71.0888 111.929 71.2799 110.76C71.471 109.597 71.752 108.27 72.2747 106.877C72.5389 106.18 72.848 105.46 73.2695 104.758C73.4887 104.415 73.7641 104.072 74.1519 103.859C74.5397 103.645 75.0343 103.611 75.4502 103.819C75.6582 103.92 75.838 104.106 75.9167 104.331C76.0066 104.555 75.9954 104.814 75.9054 105.039C75.72 105.483 75.3378 105.814 74.9107 106.017C74.0283 106.393 72.9829 106.376 72.0555 106C71.1225 105.623 70.3525 104.825 69.976 103.842C69.7961 103.353 69.6781 102.813 69.7905 102.268C69.8861 101.728 70.3694 101.223 70.9708 101.239C71.2687 101.239 71.5497 101.425 71.6958 101.678C71.8476 101.925 71.9038 102.229 71.8588 102.515C71.7633 103.094 71.3811 103.549 70.9876 103.937C70.1727 104.707 69.0261 105.174 67.8627 105.067C66.7049 104.96 65.6315 104.269 65.0919 103.268C64.8109 102.779 64.7097 102.167 64.8952 101.616C64.9851 101.346 65.1762 101.088 65.4572 100.975C65.727 100.852 66.0474 100.88 66.3059 100.998C66.5644 101.116 66.7836 101.318 66.9241 101.56C67.0646 101.801 67.1433 102.066 67.1827 102.335C67.2557 102.869 67.2164 103.409 67.0759 103.909C66.8061 104.921 66.1542 105.803 65.2942 106.326C64.4399 106.854 63.4283 107.045 62.4897 106.899C62.0288 106.826 61.5511 106.674 61.2139 106.326C60.8879 105.983 60.7642 105.415 61.0509 105.016C61.1914 104.82 61.4218 104.707 61.6466 104.673C61.8714 104.645 62.1019 104.673 62.3098 104.758C62.7314 104.932 63.0011 105.292 63.2091 105.64C63.6025 106.36 63.9229 107.062 64.2489 107.731C65.5191 110.417 66.4408 112.637 67.0646 114.177C67.3738 114.947 67.6042 115.549 67.7616 115.959C67.8346 116.161 67.8908 116.313 67.9358 116.426C67.9751 116.532 67.992 116.589 67.992 116.589C67.992 116.589 67.9639 116.538 67.9246 116.431C67.8796 116.319 67.8178 116.167 67.7335 115.97C67.5649 115.56 67.3176 114.964 67.0084 114.2C66.3677 112.671 65.4291 110.457 64.1477 107.782C63.8217 107.118 63.4901 106.405 63.1079 105.702C62.9056 105.365 62.6414 105.028 62.2705 104.876C61.9108 104.724 61.4218 104.758 61.1801 105.089C60.9441 105.415 61.0453 105.921 61.3319 106.219C61.6298 106.534 62.0738 106.68 62.5234 106.747C63.4227 106.888 64.4062 106.702 65.2212 106.191C66.0417 105.685 66.6712 104.836 66.9241 103.864C67.059 103.381 67.0927 102.858 67.0253 102.352C66.9579 101.858 66.7162 101.346 66.2441 101.144C66.0193 101.043 65.7551 101.02 65.5303 101.121C65.3055 101.217 65.1425 101.425 65.0582 101.667C64.9008 102.156 64.9795 102.723 65.2493 103.184C65.7607 104.134 66.7892 104.791 67.8908 104.898C68.998 105.005 70.1053 104.55 70.8865 103.814C71.2687 103.443 71.6284 103.004 71.7127 102.487C71.752 102.24 71.7014 101.976 71.5722 101.762C71.4429 101.549 71.2237 101.408 70.982 101.402C70.7404 101.397 70.4987 101.498 70.3188 101.667C70.1334 101.83 70.0209 102.06 69.9704 102.302C69.8636 102.791 69.9704 103.313 70.1446 103.78C70.4987 104.724 71.2406 105.488 72.1342 105.848C73.0166 106.213 74.0339 106.225 74.8657 105.876C75.2704 105.685 75.6301 105.376 75.793 104.983C75.9673 104.589 75.7818 104.117 75.4052 103.943C75.0399 103.757 74.579 103.785 74.2306 103.977C73.8709 104.173 73.6067 104.494 73.3932 104.825C72.9772 105.511 72.6625 106.225 72.404 106.916C71.8757 108.299 71.589 109.614 71.3923 110.777C71.1956 111.941 71.0888 112.947 71.0157 113.773C70.9483 114.593 70.8921 115.234 70.8584 115.678C70.8415 115.892 70.8247 116.055 70.819 116.173C70.8078 116.285 70.8022 116.341 70.8022 116.341H70.7741Z" fill="#513E37"/>
<path d="M74.3316 118.398L64.0408 119.061C63.6136 119.09 63.2483 118.764 63.2202 118.336C63.1921 117.909 63.5181 117.544 63.9452 117.516L74.2361 116.853C74.6632 116.825 75.0285 117.151 75.0566 117.578C75.0847 118.005 74.7588 118.37 74.3316 118.398Z" fill="#513E37"/>
<path d="M74.3766 119.073L64.0858 119.736C63.6586 119.764 63.3383 120.129 63.3607 120.557C63.3888 120.984 63.7542 121.304 64.1813 121.282L65.311 121.209L66.9915 123.963C67.1826 124.277 67.5367 124.463 67.902 124.435L71.5777 124.199C71.9486 124.176 72.2746 123.946 72.4263 123.603L73.6965 120.663L74.4665 120.613C74.8937 120.585 75.214 120.219 75.1916 119.792C75.1635 119.365 74.7981 119.045 74.371 119.067L74.3766 119.073Z" fill="#513E37"/>
<g opacity="0.2">
<path d="M58.5835 92.5503C59.449 91.6398 60.3708 90.9822 61.2026 90.555C62.0344 90.1223 62.7594 89.8918 63.2709 89.8075C63.7823 89.7176 64.0802 89.7513 64.1139 89.8581C64.187 90.0998 63.1753 90.5382 61.8377 91.5611C60.5057 92.5615 58.8645 94.2757 57.9596 96.5969C57.0604 98.9237 57.1166 101.296 57.4257 102.931C57.7236 104.589 58.1788 105.589 57.954 105.719C57.8585 105.775 57.6168 105.601 57.2964 105.19C56.9761 104.78 56.5939 104.123 56.2735 103.246C55.9476 102.369 55.7115 101.256 55.6834 100.003C55.6553 98.7495 55.8633 97.3557 56.3859 95.9899" fill="white"/>
</g>
<g opacity="0.2">
<path d="M67.4412 90.2348C66.5756 90.2854 65.7944 90.0943 65.6764 89.6447C65.6258 89.4199 65.7663 89.167 66.0698 88.959C66.3677 88.751 66.8229 88.5881 67.3456 88.56C67.8627 88.5319 68.3348 88.633 68.6552 88.8072C68.9811 88.9815 69.1497 89.2119 69.1273 89.4423" fill="white"/>
</g>
<path d="M72.258 123.856C72.258 123.856 71.9826 123.783 71.5386 123.681C71.0946 123.586 70.4651 123.513 69.7794 123.575C69.0881 123.642 68.4867 123.828 68.0708 124.007C67.6549 124.187 67.4076 124.333 67.3964 124.311C67.3852 124.294 67.61 124.109 68.0259 123.901C68.4418 123.693 69.06 123.479 69.7682 123.412C70.4763 123.344 71.1283 123.44 71.5723 123.569C72.0219 123.698 72.2749 123.839 72.2636 123.856H72.258Z" fill="#63514B"/>
<path d="M73.7305 120.697C73.7305 120.742 71.8757 120.899 69.5826 121.051C67.2895 121.197 65.4236 121.282 65.4236 121.237C65.4236 121.192 67.2783 121.034 69.5714 120.883C71.8645 120.736 73.7305 120.652 73.7305 120.697Z" fill="#63514B"/>
<path d="M73.1684 121.962C73.1684 121.962 72.7862 122.052 72.1624 122.13C71.5385 122.209 70.673 122.304 69.7119 122.378C68.7508 122.451 67.8853 122.496 67.2558 122.518C66.6263 122.535 66.2385 122.529 66.2329 122.507C66.2329 122.484 66.6207 122.445 67.2446 122.394C67.9246 122.344 68.7621 122.276 69.695 122.209C70.628 122.136 71.4654 122.063 72.1455 122.012C72.775 121.962 73.1628 121.939 73.1628 121.962H73.1684Z" fill="#63514B"/>
<path d="M117.798 159.7L120.421 163.898C120.421 163.898 131.596 153.612 142.686 156.518C142.686 156.518 132.723 148.07 117.805 159.7H117.798Z" fill="#FF6F3E"/>
<path d="M142.68 156.518C142.68 156.518 150.884 147.609 162.916 149.638L166.198 150.133L165.15 148.235C165.15 148.235 144.229 141.072 142.687 156.511L142.68 156.518Z" fill="#FF6F3E"/>
<path d="M125.363 126.483C125.363 126.483 108.929 123.657 98.1555 129.488L115.268 161.71C115.268 161.71 129.277 148.208 142.68 156.524L125.363 126.483Z" fill="#F5F5F5"/>
<path d="M125.363 126.483C125.363 126.483 125.396 126.523 125.449 126.615C125.508 126.714 125.594 126.852 125.693 127.024C125.917 127.399 126.233 127.933 126.641 128.625C127.472 130.048 128.678 132.111 130.206 134.727C133.27 140.005 137.619 147.51 142.805 156.452C142.845 156.524 142.825 156.61 142.752 156.649C142.706 156.676 142.647 156.676 142.601 156.649C140.743 155.509 138.608 154.64 136.301 154.231C135.148 154.04 133.956 153.961 132.75 153.987C131.544 154.033 130.325 154.192 129.112 154.442C124.256 155.516 119.545 158.152 115.519 161.697L115.38 161.829C115.314 161.894 115.209 161.888 115.15 161.829C115.136 161.815 115.13 161.802 115.123 161.789C108.765 149.79 102.874 138.674 98.0371 129.547C98.0042 129.482 98.024 129.402 98.0899 129.369C101.859 127.419 105.681 126.576 109.041 126.128C112.415 125.693 115.38 125.679 117.805 125.745C120.23 125.824 122.121 126.022 123.406 126.18C124.045 126.259 124.539 126.332 124.869 126.385C125.027 126.411 125.146 126.437 125.245 126.45C125.33 126.47 125.37 126.477 125.37 126.483C125.37 126.483 125.324 126.483 125.238 126.47C125.146 126.457 125.02 126.444 124.862 126.424C124.533 126.385 124.039 126.319 123.4 126.259C122.115 126.128 120.223 125.956 117.805 125.897C115.387 125.851 112.428 125.884 109.074 126.338C105.733 126.806 101.938 127.663 98.2216 129.6L98.2744 129.416C103.124 138.535 109.035 149.638 115.413 161.624L115.156 161.585L115.301 161.446C117.331 159.628 119.545 158.106 121.851 156.847C124.164 155.602 126.582 154.646 129.047 154.119C130.279 153.862 131.518 153.711 132.743 153.658C133.969 153.638 135.181 153.717 136.354 153.915C138.7 154.337 140.874 155.226 142.752 156.386L142.548 156.583C137.415 147.629 133.112 140.123 130.088 134.839C128.585 132.203 127.399 130.121 126.589 128.684C126.193 127.979 125.884 127.432 125.666 127.05C125.567 126.872 125.488 126.734 125.436 126.628C125.383 126.529 125.357 126.483 125.363 126.477V126.483Z" fill="#513E37"/>
<path d="M151.193 119.868C151.193 119.868 138.765 111.947 125.573 126.477L142.89 156.518C142.89 156.518 146.422 144.327 167.1 148.564L151.193 119.868Z" fill="#F5F5F5"/>
<path d="M151.193 119.868C151.193 119.868 151.226 119.907 151.279 119.993C151.338 120.092 151.411 120.217 151.509 120.382C151.714 120.737 152.004 121.251 152.379 121.91C153.144 123.268 154.251 125.238 155.654 127.735C158.461 132.776 162.461 139.939 167.225 148.498C167.265 148.571 167.238 148.657 167.172 148.696C167.146 148.716 167.113 148.716 167.08 148.709C166.072 148.545 165.044 148.373 164.003 148.202C163.482 148.096 162.949 148.07 162.415 148.024C161.881 147.984 161.341 147.938 160.794 147.892C160.247 147.826 159.7 147.839 159.147 147.853C158.593 147.859 158.033 147.866 157.473 147.872C156.913 147.886 156.353 147.984 155.786 148.037C155.219 148.11 154.646 148.136 154.086 148.294C153.526 148.419 152.959 148.551 152.386 148.676C151.832 148.867 151.279 149.065 150.725 149.256C150.165 149.447 149.658 149.757 149.111 150.001C148.834 150.119 148.584 150.278 148.333 150.442L147.576 150.93C147.075 151.266 146.627 151.674 146.159 152.05C145.744 152.492 145.276 152.887 144.914 153.381C144.136 154.317 143.47 155.397 143.069 156.544C143.036 156.636 142.943 156.682 142.858 156.656C142.818 156.643 142.792 156.616 142.772 156.584C142.555 156.201 142.311 155.786 142.074 155.371C135.952 144.729 130.246 134.819 125.475 126.53C125.442 126.477 125.455 126.411 125.495 126.365C128.42 123.169 131.656 120.737 134.878 119.314C138.094 117.858 141.224 117.496 143.727 117.654C146.245 117.812 148.149 118.425 149.388 118.919C150.007 119.169 150.468 119.406 150.771 119.571C150.916 119.657 151.022 119.716 151.108 119.769C151.18 119.815 151.22 119.841 151.213 119.848C151.213 119.848 151.167 119.828 151.094 119.789C151.009 119.743 150.89 119.683 150.745 119.611C150.435 119.459 149.974 119.235 149.348 118.998C148.109 118.523 146.205 117.944 143.708 117.812C141.23 117.673 138.133 118.056 134.957 119.518C131.781 120.942 128.585 123.373 125.692 126.549L125.712 126.391C130.489 134.667 136.216 144.578 142.35 155.206C142.587 155.621 142.825 156.037 143.049 156.419L142.752 156.452C143.181 155.22 143.859 154.139 144.657 153.17C145.032 152.663 145.507 152.254 145.935 151.806C146.416 151.417 146.877 150.996 147.391 150.66L148.169 150.166C148.426 149.994 148.683 149.836 148.959 149.711C149.513 149.46 150.033 149.151 150.607 148.953C151.173 148.755 151.74 148.558 152.3 148.367C152.88 148.235 153.453 148.11 154.027 147.978C154.593 147.82 155.18 147.793 155.746 147.721C156.32 147.668 156.886 147.569 157.46 147.556C158.026 147.556 158.593 147.543 159.153 147.536C159.713 147.523 160.273 147.517 160.82 147.582C161.367 147.629 161.914 147.675 162.454 147.714C162.995 147.76 163.535 147.787 164.056 147.899C165.103 148.077 166.138 148.248 167.153 148.413L166.994 148.624C162.276 140.057 158.323 132.882 155.542 127.834C154.165 125.317 153.084 123.334 152.333 121.963C151.971 121.291 151.694 120.77 151.496 120.408C151.404 120.237 151.338 120.105 151.285 120.006C151.239 119.914 151.22 119.868 151.22 119.861L151.193 119.868Z" fill="#513E37"/>
<path d="M102.781 113.996L121.31 149.678C121.31 149.678 136.374 149.019 142.746 156.359L125.574 126.483C125.574 126.483 115.505 113.996 102.781 113.996Z" fill="#F5F5F5"/>
<path d="M102.781 113.997C102.781 113.997 102.933 113.997 103.249 114.01C103.585 114.023 104.06 114.043 104.679 114.069C104.837 114.076 105.009 114.082 105.18 114.095C105.351 114.122 105.529 114.155 105.72 114.188C106.103 114.254 106.511 114.319 106.959 114.392C107.414 114.445 107.875 114.596 108.376 114.728C108.87 114.88 109.424 114.985 109.964 115.196C114.392 116.672 120.335 120.243 125.673 126.391V126.404H125.686C130.575 134.891 136.493 145.171 142.884 156.267C142.93 156.346 142.904 156.445 142.825 156.491C142.759 156.531 142.68 156.518 142.627 156.465H142.621C142.39 156.228 142.14 155.984 141.896 155.733C140.519 154.396 138.884 153.342 137.152 152.597C135.425 151.833 133.646 151.246 131.854 150.857C128.269 150.053 124.698 149.75 121.317 149.816C121.258 149.816 121.205 149.783 121.179 149.731C115.776 139.254 111.163 130.305 107.888 123.96C106.274 120.817 104.996 118.319 104.106 116.593C103.678 115.749 103.342 115.097 103.111 114.642C103.006 114.431 102.92 114.267 102.861 114.142C102.808 114.03 102.781 113.977 102.781 113.977C102.781 113.977 102.821 114.036 102.88 114.155C102.946 114.28 103.038 114.451 103.15 114.669C103.394 115.13 103.744 115.789 104.192 116.639C105.101 118.365 106.412 120.863 108.066 124.012C111.361 130.312 116.006 139.194 121.449 149.592L121.304 149.513C124.717 149.441 128.302 149.737 131.92 150.548C133.732 150.936 135.531 151.529 137.283 152.3C139.043 153.058 140.71 154.126 142.12 155.496C142.377 155.753 142.627 156.004 142.864 156.241L142.601 156.432C136.229 145.322 130.325 135.036 125.449 126.536L125.462 126.556C122.853 123.492 120.006 121.087 117.351 119.215C114.669 117.37 112.112 116.085 109.911 115.341C109.371 115.117 108.831 115.011 108.336 114.86C107.836 114.721 107.374 114.563 106.926 114.504C106.485 114.425 106.076 114.352 105.694 114.28C105.509 114.247 105.325 114.214 105.154 114.181C104.982 114.161 104.824 114.155 104.673 114.142C103.539 114.049 103.019 114.01 102.768 113.99L102.781 113.997Z" fill="#513E37"/>
<path d="M85.0678 196.403L85.405 196.965C85.7872 197.6 86.338 198.106 87.0012 198.438L87.5913 198.73L87.0293 199.067C86.3942 199.45 85.8884 200 85.5568 200.664L85.2645 201.254L84.9273 200.692C84.5451 200.057 83.9943 199.551 83.3311 199.219L82.741 198.927L83.303 198.59C83.9381 198.207 84.4439 197.657 84.7755 196.993L85.0678 196.403Z" fill="#FF6F3E"/>
<path d="M53.9028 80.478L54.24 81.0401C54.6222 81.6752 55.1729 82.181 55.8361 82.5126L56.4263 82.8049L55.8643 83.1421C55.2292 83.5243 54.7233 84.075 54.3917 84.7383L54.0995 85.3284L53.7622 84.7663C53.3801 84.1313 52.8293 83.6254 52.1661 83.2938L51.5759 83.0016L52.138 82.6643C52.7731 82.2822 53.2789 81.7314 53.6105 81.0682L53.9028 80.478Z" fill="#FF6F3E"/>
<path d="M198.115 100.475L198.453 101.037C198.835 101.672 199.386 102.178 200.049 102.51L200.639 102.802L200.077 103.139C199.442 103.522 198.936 104.072 198.604 104.736L198.312 105.326L197.975 104.764C197.593 104.129 197.042 103.623 196.379 103.291L195.789 102.999L196.351 102.662C196.986 102.279 197.492 101.729 197.823 101.065L198.115 100.475Z" fill="#FF6F3E"/>
<path d="M181.086 203.687L181.423 204.249C181.805 204.884 182.356 205.39 183.019 205.722L183.609 206.014L183.047 206.351C182.412 206.733 181.906 207.284 181.575 207.947L181.282 208.538L180.945 207.976C180.563 207.34 180.012 206.835 179.349 206.503L178.759 206.211L179.321 205.874C179.956 205.491 180.462 204.941 180.793 204.277L181.086 203.687Z" fill="#FF6F3E"/>
<path d="M184.328 225.376L184.491 225.444C184.671 225.517 184.873 225.539 185.064 225.5L185.239 225.466L185.171 225.629C185.098 225.809 185.076 226.011 185.115 226.202L185.149 226.377L184.986 226.309C184.806 226.236 184.604 226.214 184.413 226.253L184.238 226.287L184.306 226.124C184.379 225.944 184.401 225.742 184.362 225.55L184.328 225.376Z" fill="#FF6F3E"/>
<path d="M194.13 78.719L194.293 78.7864C194.473 78.8595 194.675 78.882 194.866 78.8426L195.041 78.8089L194.973 78.9719C194.9 79.1518 194.878 79.3541 194.917 79.5452L194.951 79.7194L194.788 79.652C194.608 79.5789 194.406 79.5564 194.215 79.5958L194.04 79.6295L194.108 79.4665C194.181 79.2866 194.203 79.0843 194.164 78.8932L194.13 78.719Z" fill="#FF6F3E"/>
<path d="M60.2423 65.3312L60.4053 65.3987C60.5851 65.4717 60.7874 65.4942 60.9785 65.4549L61.1528 65.4212L61.0853 65.5842C61.0123 65.764 60.9898 65.9663 61.0291 66.1574L61.0628 66.3317L60.8999 66.2642C60.72 66.1911 60.5177 66.1687 60.3266 66.208L60.1523 66.2417L60.2198 66.0787C60.2929 65.8989 60.3153 65.6966 60.276 65.5055L60.2423 65.3312Z" fill="#FF6F3E"/>
<path d="M76.7664 179.52L76.9294 179.587C77.1093 179.66 77.3116 179.683 77.5027 179.643L77.6769 179.61L77.6095 179.773C77.5364 179.953 77.5139 180.155 77.5533 180.346L77.587 180.52L77.424 180.453C77.2442 180.38 77.0418 180.357 76.8507 180.397L76.6765 180.43L76.744 180.267C76.817 180.087 76.8395 179.885 76.8002 179.694L76.7664 179.52Z" fill="#FF6F3E"/>
<path d="M77.8876 206.479C84.0771 206.479 89.0946 201.462 89.0946 195.272C89.0946 189.083 84.0771 184.065 77.8876 184.065C71.6982 184.065 66.6807 189.083 66.6807 195.272C66.6807 201.462 71.6982 206.479 77.8876 206.479Z" fill="#FF6F3E"/>
<g opacity="0.3">
<path d="M76.432 198.774C76.432 199.786 75.6115 200.601 74.6054 200.601C73.5994 200.601 72.7788 199.78 72.7788 198.774C72.7788 197.768 73.5994 196.947 74.6054 196.947C75.6115 196.947 76.432 197.768 76.432 198.774Z" fill="white"/>
</g>
<g opacity="0.3">
<path d="M73.8354 193.496C73.8354 194.087 73.3577 194.559 72.7732 194.559C72.1887 194.559 71.7109 194.081 71.7109 193.496C71.7109 192.912 72.1887 192.434 72.7732 192.434C73.3577 192.434 73.8354 192.912 73.8354 193.496Z" fill="white"/>
</g>
<path d="M67.0124 197.998C67.063 198.195 57.4185 207.446 59.9027 209.419C62.3869 211.391 72.8464 206.333 81.7602 199.133C90.6741 191.934 98.818 183.189 96.5867 180.873C94.3554 178.557 83.2159 185.409 83.2159 185.409L84.5479 186.257C84.5479 186.257 91.2811 181.935 93.4168 183.616C95.5469 185.291 89.4713 191.844 80.9003 198.099C72.3293 204.355 64.0449 208.75 62.7578 207.036C61.4708 205.321 67.5408 199.606 67.5408 199.606L67.0068 197.998H67.0124Z" fill="#FF6F3E"/>
<g opacity="0.3">
<path d="M67.0124 197.998C67.063 198.195 57.4185 207.446 59.9027 209.419C62.3869 211.391 72.8464 206.333 81.7602 199.133C90.6741 191.934 98.818 183.189 96.5867 180.873C94.3554 178.557 83.2159 185.409 83.2159 185.409L84.5479 186.257C84.5479 186.257 91.2811 181.935 93.4168 183.616C95.5469 185.291 89.4713 191.844 80.9003 198.099C72.3293 204.355 64.0449 208.75 62.7578 207.036C61.4708 205.321 67.5408 199.606 67.5408 199.606L67.0068 197.998H67.0124Z" fill="#37251F"/>
</g>
<g opacity="0.3">
<path d="M71.7109 187.376C71.8008 187.483 71.0421 188.129 70.1822 189.422C69.3223 190.697 68.423 192.715 68.3724 195.053C68.3274 197.397 69.148 199.448 69.9573 200.758C70.7667 202.084 71.4973 202.759 71.4018 202.865C71.3456 202.944 70.4463 202.421 69.4459 201.101C68.9513 200.443 68.4567 199.583 68.0858 198.549C67.7148 197.52 67.4844 196.312 67.5069 195.036C67.5406 193.76 67.816 192.563 68.2263 191.552C68.6366 190.534 69.1649 189.691 69.6876 189.056C70.7386 187.775 71.6603 187.291 71.7109 187.37V187.376Z" fill="white"/>
</g>
<path d="M185.41 79.3754C189.097 75.8425 189.221 69.9899 185.689 66.3033C182.156 62.6166 176.303 62.492 172.616 66.0249C168.93 69.5578 168.805 75.4104 172.338 79.097C175.871 82.7836 181.723 82.9083 185.41 79.3754Z" fill="#FF6F3E"/>
<g opacity="0.4">
<path d="M182.035 69.1588C182.058 68.327 182.743 67.6694 183.581 67.6862C184.418 67.7031 185.07 68.3944 185.053 69.2318C185.031 70.0636 184.345 70.7212 183.508 70.7044C182.676 70.6819 182.018 69.9962 182.035 69.1588Z" fill="#37251F"/>
</g>
<g opacity="0.4">
<path d="M185.047 72.6827C185.059 72.1994 185.463 71.8172 185.947 71.8284C186.43 71.8397 186.812 72.2443 186.801 72.7277C186.79 73.211 186.385 73.5932 185.902 73.582C185.418 73.5707 185.036 73.1661 185.047 72.6827Z" fill="#37251F"/>
</g>
<g opacity="0.4">
<path d="M183.873 75.3748C184.053 75.3748 184.193 75.5265 184.188 75.7064C184.188 75.8863 184.036 76.0268 183.856 76.0211C183.676 76.0211 183.536 75.8694 183.541 75.6895C183.541 75.5097 183.693 75.3692 183.873 75.3748Z" fill="#37251F"/>
</g>
</svg>
