<svg width="270" height="270" viewBox="0 0 270 270" fill="none" xmlns="http://www.w3.org/2000/svg">
<circle cx="130.337" cy="135" r="100" fill="#F4F3F2"/>
<path d="M129.179 216.027C172.438 216.027 207.506 180.978 207.506 137.742C207.506 94.5059 172.438 59.4563 129.179 59.4563C85.9211 59.4563 50.8533 94.5059 50.8533 137.742C50.8533 180.978 85.9211 216.027 129.179 216.027Z" fill="#B6E7AE"/>
<path d="M188.837 54.3384H180.783L128.588 129.904L94.8409 91.919H86.7855L87.7403 98.2212L66.741 116.859L126.043 193.008H133.915L219.147 76.5422L188.837 54.3384Z" fill="#429702"/>
<path d="M125.984 192.603L58.687 116.859L86.7857 91.919L123.184 132.885L180.783 54.3384L211.093 76.5422L125.984 192.603Z" fill="white"/>
<path d="M126.004 193.017L125.789 192.776L58.3186 116.838L86.808 91.5511L86.9814 91.7457L123.165 132.469L180.726 53.9729L211.457 76.4844L211.302 76.6953L126.003 193.017H126.004ZM59.0561 116.88L125.965 192.187L210.728 76.5974L180.839 54.7024L123.203 133.299L86.7653 92.2869L59.0561 116.88Z" fill="#429702"/>
</svg>
