<svg width="43" height="43" viewBox="0 0 43 43" fill="none" xmlns="http://www.w3.org/2000/svg">
<path d="M34.8981 9.85711C35.495 15.9466 33.3375 20.6391 27.3316 21.8069C27.3039 21.8098 27.2801 21.7954 27.2773 21.7677C27.2222 21.4756 26.9702 20.1402 26.9863 20.2255C26.9785 20.204 27.0039 20.1791 27.0316 20.1763C32.1171 19.1764 33.7505 15.2197 33.2479 10.0193C33.2473 10.0137 33.2456 9.99709 33.2279 9.9877C33.2085 9.96167 33.1863 9.96392 33.1809 9.96448C29.1193 10.3602 29.1987 10.4065 29.191 10.3309C29.0617 8.85872 28.9856 8.72416 29.0715 8.71543L32.9411 8.3221C33.9875 8.21573 34.8034 8.92494 34.8981 9.85711Z" fill="#FFB63C"/>
<path d="M33.9415 9.95452C34.6278 16.893 31.6173 20.5866 27.2654 21.6963C27.0173 20.2514 26.9284 20.1869 27.0326 20.1763C32.1181 19.1764 33.7515 15.2198 33.2489 10.0193C33.2483 10.0138 33.2466 9.99716 33.2289 9.98776C33.2095 9.96174 33.1874 9.96399 33.1819 9.96455C28.0756 10.4662 28.2418 10.5033 28.2342 10.4283L28.0761 8.87276C28.065 8.76347 28.0017 8.85285 31.9844 8.41951C32.4052 8.37674 32.856 8.46515 33.2058 8.71485C33.6315 8.99602 33.8902 9.45073 33.9415 9.95452Z" fill="#FFCA6C"/>
<path d="M15.9689 22.8783L15.9673 22.9176C15.9701 22.9453 15.9496 22.9642 15.9165 22.9676C9.85075 23.0315 6.74536 18.9127 6.1001 12.7846C6.00795 11.8781 6.64648 10.9952 7.71383 10.8867C11.7078 10.5093 11.6221 10.4334 11.6334 10.5443C11.7692 12.0942 11.8376 12.1343 11.7511 12.143C7.58592 12.5664 7.79556 12.5173 7.76803 12.5759C7.74706 12.5892 7.74875 12.6059 7.74931 12.6114C8.31056 17.794 10.6949 21.3532 15.8877 21.3093C15.9793 21.3 15.9175 21.3693 15.9689 22.8783Z" fill="#FFB63C"/>
<path d="M15.9688 22.8784C10.2396 22.5961 7.46411 18.4589 6.85852 12.7077C6.76515 11.7891 7.41234 10.9174 8.47218 10.8097C12.4405 10.4347 12.3803 10.354 12.3918 10.4673C12.5302 12.0469 12.6004 12.0568 12.504 12.0666C7.53234 12.572 7.79545 12.5175 7.76795 12.576C7.74698 12.5894 7.74867 12.606 7.74924 12.6115C8.31049 17.7941 10.6949 21.3533 15.8877 21.3094C15.9792 21.3001 15.9174 21.3695 15.9688 22.8784Z" fill="#FFCA6C"/>
<path d="M26.1482 31.0257L18.9355 31.7588C19.4447 29.7858 19.9177 28.0818 20.2242 26.5563C20.2293 26.55 20.2299 26.5557 20.2299 26.5557C20.393 25.7198 20.5152 24.9343 20.5602 24.1854L23.0329 23.9341C23.2425 24.634 23.5253 25.3725 23.8653 26.1631C24.4828 27.5831 25.2799 29.1812 26.1482 31.0257Z" fill="#FFCA6C"/>
<path d="M23.1481 24.273C23.1116 24.1613 23.0658 24.0438 23.0328 23.9341L20.5601 24.1854C20.5532 24.3006 20.5334 24.423 20.5229 24.5398L23.1481 24.273Z" fill="#D84918"/>
<path d="M19.3662 30.1064C19.2271 30.6379 19.084 31.1839 18.9355 31.7589L26.1482 31.0258C25.8971 30.4924 25.6546 29.9851 25.4181 29.4912L19.3662 30.1064Z" fill="#D84918"/>
<path d="M31.582 31.6965L31.9761 35.5741L14.1414 37.3869L13.7473 33.5093C13.6399 32.4528 14.41 31.5148 15.4608 31.408L29.4807 29.9829C30.5142 29.8779 31.4735 30.6293 31.582 31.6965Z" fill="#613941"/>
<path d="M30.4441 30.9464L30.7401 33.8589C30.7943 34.3919 30.4061 34.868 29.8731 34.9221L14.0544 36.5301L13.7473 33.5091C13.6399 32.4525 14.41 31.5145 15.4608 31.4077L29.4807 29.9827C29.6862 29.9618 29.8896 29.9758 30.0845 30.0194C30.278 30.2767 30.4087 30.598 30.4441 30.9464Z" fill="#804F59"/>
<path d="M15.9655 22.9156C15.9684 22.9441 15.9473 22.9636 15.9187 22.9665C15.4864 22.9701 15.0694 22.9547 14.6672 22.9148C14.149 22.286 13.5742 21.4411 13.3179 20.9922C14.0722 21.204 14.9262 21.3191 15.8886 21.3079C15.982 21.2984 15.9193 21.3753 15.9655 22.9156Z" fill="#D84918"/>
<path d="M29.4849 19.3496C29.2165 20.1154 28.9035 20.8396 28.5448 21.5107C28.1583 21.625 27.7529 21.724 27.3344 21.8069C27.2436 21.8161 27.3005 21.7835 26.9891 20.2264C26.9389 20.0874 27.9218 20.1561 29.4849 19.3496Z" fill="#D84918"/>
<path d="M30.5435 10.2345C29.2818 10.3467 29.1993 10.4067 29.1917 10.3316C29.0629 8.85655 28.9848 8.72559 29.0737 8.71654L30.3587 8.58594C30.4421 9.14514 30.5204 9.90404 30.5435 10.2345Z" fill="#D84918"/>
<path d="M23.8653 26.1631C22.7696 26.626 21.5167 26.7806 20.23 26.5557C20.3931 25.7198 20.5152 24.9343 20.5602 24.1854L23.033 23.9341C23.2426 24.634 23.5254 25.3725 23.8653 26.1631Z" fill="#D84918"/>
<path d="M21.9432 25.5376C19.0137 25.8354 16.1843 23.8843 14.197 20.6245C11.9911 17.0225 11.0791 12.2865 11.4673 7.96039L28.6738 6.21143C31.2807 14.8821 28.2141 24.9002 21.9432 25.5376Z" fill="#FFB63C"/>
<path d="M11.7907 12.1003C11.7983 12.1751 11.7071 12.133 10.4527 12.2766C10.3897 11.8956 10.3184 11.0294 10.2964 10.6251L11.5813 10.4945C11.6702 10.4855 11.6198 10.6273 11.7907 12.1003Z" fill="#D84918"/>
<path d="M26.7379 7.14682C27.5378 15.0162 24.1538 21.7992 19.1855 22.3042C17.4323 22.4824 15.7127 21.8553 14.197 20.6246C11.9911 17.0226 11.0791 12.2866 11.4673 7.96046L26.6522 6.41699C26.6823 6.65629 26.7129 6.9013 26.7379 7.14682Z" fill="#FFCA6C"/>
<path d="M29.5379 5.7385C29.3218 5.99704 29.0114 6.17861 28.6459 6.21576L11.4966 7.95892C10.9884 8.01057 10.5133 7.7646 10.259 7.3635C10.2459 7.34757 10.2327 7.33159 10.2253 7.31502C9.72453 6.43884 10.3127 5.42519 11.2296 5.33199C29.3426 3.51487 28.4153 3.52451 28.8142 3.61382C29.7656 3.83694 30.1494 4.9888 29.5379 5.7385Z" fill="#D84918"/>
<path d="M27.3856 5.6229L10.259 7.36374C10.2459 7.34782 10.2327 7.33183 10.2253 7.31526C9.72453 6.43908 10.3127 5.42543 11.2296 5.33224L28.3617 3.59082C28.882 4.38877 28.401 5.51968 27.3856 5.6229Z" fill="#FFB63C"/>
<path d="M26.9335 3.73535C26.7905 4.24689 26.3342 4.62131 25.8002 4.67558L10.0957 6.27188C10.2174 5.81601 10.6546 5.39004 11.229 5.33165L26.9335 3.73535Z" fill="#FFCA6C"/>
<path d="M33.3129 36.1137L33.411 37.0788C33.4267 37.233 33.3132 37.3657 33.1648 37.3808L13.1445 39.4158C12.996 39.4308 12.8639 39.3231 12.8482 39.1689L12.7501 38.2038C12.713 37.8384 12.974 37.5118 13.3395 37.4746L32.5832 35.5186C32.9486 35.4814 33.2758 35.7482 33.3129 36.1137Z" fill="#613941"/>
<path d="M32.4518 35.5312L32.5494 36.4907C32.565 36.6449 32.4573 36.777 32.3031 36.7927L12.8082 38.7742L12.7501 38.2032C12.713 37.8377 12.974 37.5111 13.3395 37.4739L32.4518 35.5312Z" fill="#804F59"/>
<path d="M21.6795 10.4622L22.4772 11.7353C22.6286 11.977 22.8893 12.1287 23.1743 12.141L24.6752 12.2055C25.3928 12.2364 25.7635 13.0768 25.3025 13.6276L24.3383 14.7796C24.1552 14.9984 24.0915 15.2932 24.1679 15.568L24.5703 17.0154C24.7627 17.7075 24.078 18.3197 23.4117 18.0515L22.0181 17.4904C21.7535 17.3839 21.4534 17.4144 21.2157 17.572L19.9634 18.402C19.3647 18.7988 18.5708 18.3368 18.6201 17.6202L18.723 16.1214C18.7425 15.8369 18.6208 15.5609 18.3974 15.3835L17.2211 14.449C16.6587 14.0022 16.8527 13.1045 17.5495 12.9298L19.0067 12.5646C19.2834 12.4952 19.5082 12.2942 19.6079 12.0269L20.1332 10.6194C20.3843 9.94646 21.2981 9.85358 21.6795 10.4622Z" fill="#D84918"/>
<path d="M20.9866 9.78207L21.7843 11.0551C21.9357 11.2968 22.1964 11.4485 22.4814 11.4608L23.9823 11.5254C24.7 11.5562 25.0707 12.3966 24.6096 12.9474L23.6454 14.0995C23.4623 14.3182 23.3986 14.613 23.475 14.8878L23.8774 16.3352C24.0698 17.0273 23.3852 17.6395 22.7188 17.3713L21.3252 16.8102C21.0606 16.7037 20.7605 16.7342 20.5228 16.8918L19.2705 17.7218C18.6718 18.1186 17.878 17.6567 17.9272 16.9401L18.0301 15.4413C18.0496 15.1567 17.9279 14.8807 17.7046 14.7033L16.5282 13.7688C15.9658 13.3221 16.1599 12.4243 16.8566 12.2497L18.3138 11.8844C18.5905 11.815 18.8153 11.614 18.9151 11.3468L19.4403 9.93925C19.6914 9.26629 20.6052 9.1734 20.9866 9.78207Z" fill="white"/>
<g opacity="0.5">
<path d="M27.2457 31.985L27.4224 33.7234C27.4495 33.99 27.2553 34.2281 26.9887 34.2552L18.7613 35.0915C18.4947 35.1186 18.2566 34.9244 18.2295 34.6578L18.0528 32.9195C18.0257 32.6528 18.2199 32.4147 18.4865 32.3876L26.7139 31.5514C26.9805 31.5242 27.2186 31.7184 27.2457 31.985Z" fill="white"/>
</g>
<g opacity="0.49">
<path d="M15.1239 35.2105C15.1308 35.2692 15.1657 35.6832 15.1214 35.7611C15.0769 35.8226 14.9731 35.7788 14.9069 35.7048C14.7919 35.5539 14.7506 35.2582 14.7418 35.0904C14.7288 34.9716 14.7954 34.6707 14.9424 34.7197C15.0996 34.8027 15.101 34.9635 15.1239 35.2105Z" fill="white"/>
<path d="M15.3755 33.1246C15.3686 33.3052 15.3114 34.0506 15.1941 34.1871C15.08 34.319 14.8458 34.2754 14.7271 34.1429C14.503 33.8921 14.5047 33.3291 14.5348 33.0105C14.5529 32.7858 14.7965 32.1786 15.1132 32.2307C15.4712 32.2694 15.3836 32.8163 15.3755 33.1246Z" fill="white"/>
</g>
<path d="M13.015 9.05171C13.2057 9.22217 13.3023 9.64814 13.3528 9.99817C13.497 10.9971 13.5398 12.0085 13.3531 12.7727C13.2609 13.1498 13.0023 13.198 12.7858 12.7377C12.0549 11.1834 12.4393 8.53691 13.015 9.05171Z" fill="white"/>
<path d="M13.4783 14.126C13.6549 14.6463 13.7894 15.2126 13.7971 15.7241C13.8048 16.2421 13.4262 16.063 13.1609 14.9825C12.9108 13.9639 13.1617 13.1931 13.4783 14.126Z" fill="white"/>
<path d="M21.8228 5.58278C25.6831 4.75047 26.3427 5.49324 27.5901 4.16504C27.3382 4.61083 26.9256 4.99036 26.4184 5.17297C25.7965 5.43417 22.742 5.59179 21.8228 5.58278Z" fill="white"/>
<path d="M36.5524 28.3066C36.2364 27.8795 35.7742 27.5169 35.2067 27.1892C34.7421 27.8864 34.3326 28.4908 33.4339 29.5177C34.9025 25.0303 28.8997 23.4506 28.7651 19.5775C30.0244 18.9276 31.1703 17.9485 32.1117 16.8745C30.4736 21.8943 38.1906 23.2809 36.5524 28.3066Z" fill="#FF6161"/>
<path d="M11.5708 32.4024C10.7225 31.7004 10.0262 31.0392 9.44113 30.3957C8.99528 30.7553 8.56553 31.2 8.29442 31.7121C5.86061 27.0257 13.2499 24.3988 10.8161 19.7124C11.9743 20.3634 13.1305 20.9087 14.42 21.1926C15.6955 25.3992 9.27729 27.9852 11.5708 32.4024Z" fill="#FF6161"/>
<path d="M33.4339 29.5182C34.9025 25.0308 28.8997 23.4511 28.7651 19.578C29.4906 19.2035 30.1693 18.7297 30.8129 18.168C30.6284 19.6725 30.9068 21.1532 31.5325 22.4331C32.6999 24.7928 34.2964 25.0279 35.0721 27.4003C34.6275 28.0673 34.0893 28.7693 33.4339 29.5182Z" fill="#F04343"/>
<path d="M11.5703 32.4023C10.7219 31.7003 10.0256 31.0391 9.44058 30.3956C9.25925 30.5419 9.08963 30.694 8.94336 30.8461C9.47837 28.6145 11.6766 28.5393 12.1144 23.6089C12.2252 22.212 12.3209 21.542 13.536 20.9702C13.5419 20.9702 13.5477 20.9644 13.5536 20.9585C13.8403 21.0521 14.1269 21.1281 14.4195 21.1925C15.695 25.3991 9.27674 27.9851 11.5703 32.4023Z" fill="#F04343"/>
</svg>
