<svg width="21" height="20" viewBox="0 0 21 20" fill="none" xmlns="http://www.w3.org/2000/svg">
<path d="M15.1416 4.57484V5.1915L12.1916 3.48317C11.075 2.8415 9.51665 2.8415 8.40831 3.48317L5.45831 5.19984V4.57484C5.45831 2.69984 6.48331 1.6665 8.35831 1.6665H12.2416C14.1166 1.6665 15.1416 2.69984 15.1416 4.57484Z" fill="#FF6F3E"/>
<path d="M15.1667 6.64186L15.05 6.58353L13.9167 5.93353L11.5667 4.5752C10.85 4.15853 9.75001 4.15853 9.03334 4.5752L6.68334 5.9252L5.55001 6.59186L5.40001 6.66686C3.94167 7.6502 3.84167 7.83353 3.84167 9.40853V13.1752C3.84167 14.7502 3.94167 14.9335 5.43334 15.9419L9.03334 18.0169C9.39167 18.2335 9.84167 18.3252 10.3 18.3252C10.75 18.3252 11.2083 18.2252 11.5667 18.0169L15.2 15.9169C16.6667 14.9335 16.7583 14.7585 16.7583 13.1752V9.40853C16.7583 7.83353 16.6583 7.6502 15.1667 6.64186ZM12.625 11.2502L12.1167 11.8752C12.0333 11.9669 11.975 12.1419 11.9833 12.2669L12.0333 13.0669C12.0667 13.5585 11.7167 13.8085 11.2583 13.6335L10.5167 13.3335C10.4 13.2919 10.2083 13.2919 10.0917 13.3335L9.35001 13.6252C8.89167 13.8085 8.54168 13.5502 8.57501 13.0585L8.62501 12.2585C8.63334 12.1335 8.57501 11.9585 8.49167 11.8669L7.97501 11.2502C7.65834 10.8752 7.80001 10.4585 8.27501 10.3335L9.05001 10.1335C9.17501 10.1002 9.31667 9.98353 9.38334 9.88353L9.81667 9.21686C10.0833 8.8002 10.5083 8.8002 10.7833 9.21686L11.2167 9.88353C11.2833 9.99186 11.4333 10.1002 11.55 10.1335L12.325 10.3335C12.8 10.4585 12.9417 10.8752 12.625 11.2502Z" fill="#FF6F3E"/>
</svg>
