<svg width="21" height="20" viewBox="0 0 21 20" fill="none" xmlns="http://www.w3.org/2000/svg">
<path d="M17.7834 13.3333V15.4167C17.7834 17.025 16.475 18.3333 14.8667 18.3333H6.53337C4.92503 18.3333 3.6167 17.025 3.6167 15.4167V14.875C3.6167 13.5667 4.68337 12.5 5.9917 12.5H16.95C17.4084 12.5 17.7834 12.875 17.7834 13.3333Z" fill="#FF6F3E"/>
<path d="M13.6167 1.6665H7.78337C4.45003 1.6665 3.6167 2.49984 3.6167 5.83317V12.1498C4.25003 11.5915 5.08337 11.2498 5.9917 11.2498H16.95C17.4084 11.2498 17.7834 10.8748 17.7834 10.4165V5.83317C17.7834 2.49984 16.95 1.6665 13.6167 1.6665ZM11.5334 8.95817H7.3667C7.02503 8.95817 6.7417 8.67484 6.7417 8.33317C6.7417 7.9915 7.02503 7.70817 7.3667 7.70817H11.5334C11.875 7.70817 12.1584 7.9915 12.1584 8.33317C12.1584 8.67484 11.875 8.95817 11.5334 8.95817ZM14.0334 6.0415H7.3667C7.02503 6.0415 6.7417 5.75817 6.7417 5.4165C6.7417 5.07484 7.02503 4.7915 7.3667 4.7915H14.0334C14.375 4.7915 14.6584 5.07484 14.6584 5.4165C14.6584 5.75817 14.375 6.0415 14.0334 6.0415Z" fill="#FF6F3E"/>
</svg>
