<svg width="20" height="20" viewBox="0 0 20 20" fill="none" xmlns="http://www.w3.org/2000/svg">
<path d="M12.825 4.34157L14 6.69157C14.1584 7.01657 14.5834 7.3249 14.9417 7.39157L17.0667 7.74157C18.425 7.96657 18.7417 8.9499 17.7667 9.93324L16.1084 11.5916C15.8334 11.8666 15.675 12.4082 15.7667 12.7999L16.2417 14.8499C16.6167 16.4666 15.75 17.0999 14.325 16.2499L12.3334 15.0666C11.975 14.8499 11.375 14.8499 11.0167 15.0666L9.02503 16.2499C7.60003 17.0916 6.73337 16.4666 7.10837 14.8499L7.58337 12.7999C7.65837 12.3999 7.50003 11.8582 7.22503 11.5832L5.5667 9.9249C4.5917 8.9499 4.90837 7.96657 6.2667 7.73324L8.3917 7.38324C8.75003 7.3249 9.17503 7.00824 9.33337 6.68324L10.5084 4.33324C11.15 3.06657 12.1834 3.06657 12.825 4.34157Z" fill="#FF6F3E"/>
<path d="M6.6665 4.7915H1.6665C1.32484 4.7915 1.0415 4.50817 1.0415 4.1665C1.0415 3.82484 1.32484 3.5415 1.6665 3.5415H6.6665C7.00817 3.5415 7.2915 3.82484 7.2915 4.1665C7.2915 4.50817 7.00817 4.7915 6.6665 4.7915Z" fill="#FF6F3E"/>
<path d="M4.1665 16.4585H1.6665C1.32484 16.4585 1.0415 16.1752 1.0415 15.8335C1.0415 15.4918 1.32484 15.2085 1.6665 15.2085H4.1665C4.50817 15.2085 4.7915 15.4918 4.7915 15.8335C4.7915 16.1752 4.50817 16.4585 4.1665 16.4585Z" fill="#FF6F3E"/>
<path d="M2.49984 10.625H1.6665C1.32484 10.625 1.0415 10.3417 1.0415 10C1.0415 9.65833 1.32484 9.375 1.6665 9.375H2.49984C2.8415 9.375 3.12484 9.65833 3.12484 10C3.12484 10.3417 2.8415 10.625 2.49984 10.625Z" fill="#FF6F3E"/>
</svg>
