<svg width="36" height="36" viewBox="0 0 36 36" fill="none" xmlns="http://www.w3.org/2000/svg">
<path d="M17.9112 31.696C17.6548 31.696 17.4436 31.492 17.4361 31.2341C17.4287 30.9716 17.6353 30.753 17.8978 30.7455C18.1607 30.7335 18.3816 30.937 18.3931 31.1995C18.4049 31.4617 18.2011 31.6837 17.9386 31.6953L17.9249 31.6958C17.9204 31.696 17.9158 31.696 17.9112 31.696ZM15.9997 31.6244C15.9809 31.6244 15.9624 31.6234 15.9434 31.6213L15.9422 31.621C15.681 31.5948 15.4918 31.3622 15.518 31.1007C15.5442 30.8395 15.7788 30.6494 16.0398 30.6753L16.0545 30.6768C16.3152 30.7075 16.5017 30.9438 16.471 31.2045C16.4426 31.4465 16.2374 31.6244 15.9997 31.6244ZM19.8185 31.4778C19.596 31.4778 19.3972 31.3208 19.3527 31.0942C19.3018 30.8366 19.4695 30.5866 19.7272 30.5359L19.7361 30.5343C19.9939 30.485 20.2429 30.6542 20.2922 30.912C20.3415 31.1697 20.1725 31.4189 19.9146 31.4682L19.911 31.4689C19.8798 31.4749 19.849 31.4778 19.8185 31.4778ZM14.1136 31.2622C14.0722 31.2622 14.0302 31.2567 13.9881 31.2454L13.9855 31.2447C13.7319 31.1771 13.5805 30.9169 13.6478 30.6633C13.7151 30.4095 13.9751 30.2584 14.2287 30.3254L14.2385 30.328C14.4918 30.3973 14.6411 30.6585 14.5719 30.9118C14.5142 31.1233 14.3226 31.2622 14.1136 31.2622ZM21.671 30.97C21.4765 30.97 21.2944 30.8503 21.224 30.6571C21.1343 30.4102 21.2617 30.1375 21.5083 30.0478L21.5162 30.0452C21.763 29.9565 22.0353 30.0846 22.1242 30.3317C22.2132 30.5787 22.0846 30.851 21.8375 30.9399L21.8334 30.9414C21.7796 30.9608 21.7248 30.97 21.671 30.97ZM12.3029 30.6138C12.238 30.6138 12.1722 30.6003 12.109 30.5717L12.1025 30.5689C11.8633 30.4605 11.7574 30.1788 11.8657 29.9397C11.9741 29.7005 12.2556 29.5946 12.4949 29.7029C12.7343 29.8111 12.8432 30.0937 12.7353 30.3331C12.6557 30.5093 12.4836 30.6138 12.3029 30.6138ZM23.422 30.1843C23.2519 30.1843 23.0877 30.093 23.0022 29.9327C22.8784 29.701 22.9661 29.4129 23.1978 29.2893C23.4278 29.1629 23.7169 29.2468 23.8436 29.4768C23.97 29.7068 23.8863 29.9959 23.6561 30.1223L23.6453 30.1283C23.5739 30.1663 23.4975 30.1843 23.422 30.1843ZM27.7395 25.9348L27.7427 25.937L27.6924 25.9012L27.7395 25.9348ZM5.7955 23.8627C5.6078 23.8627 5.42996 23.7507 5.35473 23.5661L5.35353 23.5628C5.25331 23.32 5.36891 23.042 5.61141 22.942C5.85414 22.8418 6.1322 22.9574 6.23218 23.1999L6.23554 23.2083C6.33456 23.4515 6.21728 23.7288 5.97406 23.8276C5.91566 23.8514 5.85486 23.8627 5.7955 23.8627ZM29.392 22.9504C29.3423 22.9504 29.2916 22.9425 29.2416 22.9259C28.9943 22.8435 28.8597 22.5772 28.9393 22.3294C29.0169 22.0797 29.2817 21.9386 29.5319 22.0146C29.7831 22.091 29.9249 22.3556 29.8489 22.6065L29.8429 22.6252C29.7766 22.8245 29.591 22.9504 29.392 22.9504ZM5.21414 22.0326C4.99904 22.0326 4.80414 21.8857 4.75199 21.6675L4.75054 21.6613C4.68974 21.4058 4.84716 21.1494 5.10263 21.0883C5.3581 21.0273 5.61453 21.1849 5.67533 21.4404L5.67678 21.4467C5.73782 21.7019 5.58016 21.9583 5.32493 22.0194C5.28768 22.0283 5.25067 22.0326 5.21414 22.0326ZM29.8292 21.0806C29.8018 21.0806 29.7742 21.0782 29.7461 21.0732C29.4894 21.028 29.3173 20.7843 29.3596 20.5279C29.3995 20.2695 29.6405 20.0912 29.8991 20.1292C30.1587 20.1676 30.3382 20.4082 30.3 20.668L30.2969 20.6877C30.2563 20.9182 30.0556 21.0806 29.8292 21.0806ZM4.9207 20.134C4.67676 20.134 4.46936 19.948 4.44773 19.7007L4.44629 19.681C4.4309 19.4188 4.63086 19.194 4.89306 19.1784C5.15286 19.1626 5.37708 19.3604 5.39511 19.6199C5.41602 19.8804 5.22279 20.1099 4.96203 20.1323C4.94809 20.1335 4.9344 20.134 4.9207 20.134ZM29.9748 19.1659C29.7122 19.1659 29.4995 18.9532 29.4995 18.6906V18.6843C29.4995 18.6809 29.4995 18.6776 29.4995 18.6745C29.4995 18.6704 29.4995 18.666 29.4995 18.662V18.6557C29.4995 18.393 29.7122 18.1801 29.9748 18.1801C30.2373 18.1801 30.4502 18.393 30.4502 18.6557V18.662C30.4502 18.6653 30.4502 18.6687 30.45 18.6718C30.4502 18.6759 30.4502 18.68 30.4502 18.6843V18.6906C30.4502 18.9532 30.2375 19.1659 29.9748 19.1659ZM4.9195 18.2147C4.9058 18.2147 4.89186 18.214 4.87792 18.2128C4.61668 18.1902 4.42321 17.9604 4.44532 17.6994C4.46359 17.4399 4.68565 17.2421 4.94737 17.2584C5.20957 17.2738 5.40953 17.4988 5.39415 17.7607L5.39246 17.7804C5.37108 18.028 5.16343 18.2147 4.9195 18.2147ZM29.8256 17.2231C29.5992 17.2231 29.3988 17.0609 29.3582 16.8302L29.3548 16.8105C29.3168 16.5507 29.4963 16.3091 29.7561 16.2709C30.0145 16.2327 30.2565 16.4117 30.2952 16.6708C30.3373 16.927 30.1654 17.1702 29.9088 17.2156C29.8809 17.2207 29.853 17.2231 29.8256 17.2231ZM5.20789 16.3166C5.17136 16.3166 5.13411 16.3122 5.0971 16.3034C4.84211 16.2426 4.68445 15.9866 4.74478 15.7316C4.80101 15.4781 5.0512 15.3161 5.30619 15.3694C5.5631 15.4233 5.72797 15.6751 5.67413 15.932L5.66981 15.9515C5.61789 16.1697 5.42299 16.3166 5.20789 16.3166ZM29.3894 15.3562C29.1894 15.3562 29.0027 15.2284 28.9361 15.0286L28.9309 15.0121C28.8535 14.7612 28.9943 14.4951 29.2454 14.418C29.4966 14.3406 29.7622 14.4814 29.8395 14.7326L29.8398 14.7333C29.9227 14.9825 29.7874 15.249 29.5382 15.3319C29.4891 15.3485 29.4389 15.3562 29.3894 15.3562ZM5.7842 14.4836C5.7246 14.4836 5.66404 14.4723 5.6054 14.4485C5.36218 14.3497 5.24514 14.0724 5.34392 13.8292L5.34632 13.8234C5.4451 13.5802 5.7222 13.4629 5.96565 13.5617C6.20887 13.6604 6.32591 13.9378 6.22713 14.181L6.22473 14.187C6.14974 14.3716 5.9719 14.4836 5.7842 14.4836ZM28.6684 13.5756C28.4954 13.5756 28.3281 13.4807 28.2435 13.3168L28.2363 13.3028C28.1205 13.0671 28.2176 12.7823 28.4533 12.6664C28.6888 12.5506 28.9736 12.6477 29.0897 12.8832L29.09 12.8842C29.2106 13.1173 29.1181 13.4023 28.8847 13.5227C28.8155 13.5585 28.7415 13.5756 28.6684 13.5756ZM6.63545 12.7614C6.5511 12.7614 6.46554 12.739 6.38839 12.6917C6.16464 12.5554 6.09375 12.2639 6.22905 12.0401C6.36003 11.8164 6.64723 11.7385 6.87362 11.8669C7.10193 11.9964 7.1822 12.2865 7.0529 12.5148C7.0493 12.521 7.04545 12.5273 7.04161 12.5335C6.95221 12.6804 6.79575 12.7614 6.63545 12.7614ZM27.6814 11.9265C27.5292 11.9265 27.3795 11.8534 27.2877 11.7181C27.1351 11.5044 27.1858 11.2096 27.3997 11.057C27.6131 10.9043 27.9116 10.956 28.0642 11.1697L28.0743 11.1841C28.2216 11.4013 28.1652 11.697 27.9479 11.8445C27.8662 11.9 27.7734 11.9265 27.6814 11.9265ZM7.74001 11.1899C7.63282 11.1899 7.52539 11.1538 7.43647 11.0803C7.23459 10.9125 7.20671 10.6128 7.37447 10.4107L7.37855 10.4059C7.5463 10.2038 7.84575 10.1761 8.04787 10.3437C8.24999 10.5114 8.27787 10.8111 8.11012 11.0132L8.10603 11.018C8.01206 11.1315 7.87651 11.1899 7.74001 11.1899ZM26.4567 10.4475C26.3317 10.4475 26.207 10.3987 26.1137 10.3014C25.9299 10.1139 25.9325 9.81229 26.1202 9.62844C26.3074 9.44482 26.6081 9.44747 26.7917 9.63492L26.7996 9.64285C26.9815 9.83223 26.9753 10.1334 26.7859 10.3151C26.6936 10.4037 26.5751 10.4475 26.4567 10.4475ZM9.07047 9.8046C8.93877 9.8046 8.80803 9.75052 8.71406 9.6443C8.54007 9.44771 8.55857 9.14729 8.75516 8.9733L8.75708 8.97161C8.95247 8.79689 9.25312 8.81276 9.42832 9.00814C9.60328 9.20329 9.5879 9.50298 9.393 9.67842L9.38531 9.68539C9.2947 9.76542 9.18223 9.8046 9.07047 9.8046ZM25.0212 9.17133C24.9236 9.17133 24.8255 9.14153 24.7407 9.07952L24.7246 9.06726C24.5174 8.906 24.4799 8.60751 24.6412 8.40011C24.8022 8.19318 25.1 8.15569 25.3072 8.31599C25.5148 8.47197 25.559 8.76661 25.4052 8.97666C25.312 9.10404 25.1675 9.17133 25.0212 9.17133ZM10.5951 8.63755C10.4382 8.63755 10.2846 8.55993 10.194 8.41789C10.0529 8.19679 10.1176 7.90359 10.338 7.76203C10.5548 7.6188 10.8472 7.67624 10.9934 7.89181C11.1409 8.10907 11.0842 8.40468 10.8669 8.552L10.8504 8.56305C10.7713 8.61352 10.6828 8.63755 10.5951 8.63755ZM23.4074 8.12782C23.3324 8.12782 23.2562 8.11003 23.1853 8.0723L23.174 8.06605C22.944 7.93964 22.8601 7.65052 22.9865 7.42052C23.1129 7.19053 23.4021 7.10665 23.6321 7.23307L23.6335 7.23379C23.863 7.359 23.9498 7.64716 23.8258 7.87739C23.7397 8.03697 23.5763 8.12782 23.4074 8.12782ZM12.2796 7.71661C12.0984 7.71661 11.9251 7.61255 11.8458 7.43687C11.7377 7.19774 11.8439 6.91631 12.083 6.80816L12.0941 6.80336C12.3344 6.69785 12.6146 6.80768 12.7201 7.04825C12.8251 7.28882 12.7156 7.56905 12.475 7.67431C12.4115 7.70291 12.345 7.71661 12.2796 7.71661Z" fill="#A7C7D3"/>
<path d="M21.1076 27.9127L13.9504 20.7555C13.5017 20.307 13.5012 19.5812 13.9492 19.1335C14.126 18.9566 14.3472 18.8494 14.5769 18.8131C14.9275 18.7566 15.2998 18.8636 15.5712 19.1349L13.7281 17.2918C13.5041 17.0678 13.3916 16.7742 13.3916 16.4812C13.3916 16.4201 13.3964 16.3589 13.4063 16.2978C13.443 16.0676 13.5497 15.847 13.7269 15.6698C13.9021 15.4946 14.1193 15.3884 14.3462 15.3507C14.655 15.2992 14.9804 15.3745 15.2397 15.5766L14.5385 14.8753C14.3142 14.6511 14.2018 14.3567 14.2018 14.0635C14.2013 14.0012 14.2068 13.9385 14.2171 13.8772C14.2539 13.6484 14.3604 13.429 14.5365 13.2528C14.7137 13.0757 14.9345 12.9685 15.1655 12.9322C15.5159 12.8758 15.8884 12.983 16.1595 13.254L16.9627 14.0572C16.6921 13.7866 16.5844 13.4136 16.6409 13.0632C16.6772 12.8332 16.7839 12.6126 16.9615 12.4352C17.4087 11.988 18.1352 11.9885 18.5834 12.4367L23.2348 17.088L23.2478 17.0695C23.4835 16.8338 23.7614 16.6662 24.0577 16.5663C24.789 16.3197 25.6309 16.4882 26.2144 17.0719L28.3831 19.2407C28.8001 19.6574 29.034 20.2222 29.0349 20.811L29.0361 22.1679C29.0366 22.8019 29.2889 23.4101 29.7381 23.8593L30.2217 24.3429L24.69 29.8745L24.0719 29.2564C23.6609 28.8454 23.1141 28.5979 22.5347 28.5599C21.9964 28.5246 21.4895 28.2946 21.1076 27.9127Z" fill="#FECBAA"/>
<path d="M24.3301 30.2338L30.6089 23.9549C30.8158 23.748 31.1511 23.748 31.358 23.9549L33.5941 26.191C33.801 26.3979 33.801 26.7334 33.5941 26.9401L27.3154 33.2189C27.1085 33.4259 26.773 33.4259 26.5663 33.2189L24.3301 30.9829C24.1234 30.776 24.1234 30.4405 24.3301 30.2338Z" fill="#FDD559"/>
<path d="M30.7763 26.7733C30.962 26.959 31.2627 26.9593 31.448 26.774C31.6333 26.5887 31.633 26.2878 31.4475 26.1022C31.2617 25.9165 30.9611 25.9162 30.7758 26.1015C30.5905 26.2871 30.5907 26.5877 30.7763 26.7733Z" fill="#FF8812"/>
<path d="M24.8364 18.6894L23.2349 17.088L23.2478 17.0695C23.4836 16.8338 23.7614 16.6663 24.0578 16.5663L25.5086 18.0172C25.6942 18.2027 25.6942 18.5038 25.5086 18.6894C25.3226 18.8754 25.022 18.8749 24.8364 18.6894Z" fill="#FFAE85"/>
<path d="M14.8914 27.9135L22.0486 20.7562C22.4973 20.3075 22.4978 19.5819 22.0501 19.1342C21.873 18.9571 21.6521 18.8499 21.4221 18.8136C21.0715 18.7571 20.6992 18.8643 20.4279 19.1354L22.2709 17.2926C22.4949 17.0686 22.6074 16.7749 22.6074 16.4817C22.6074 16.4209 22.6026 16.3594 22.5927 16.2985C22.556 16.0681 22.4493 15.8477 22.2721 15.6706C22.0969 15.4954 21.8797 15.3891 21.6528 15.3514C21.344 15.3 21.0186 15.3752 20.7593 15.5773L21.4605 14.8758C21.6848 14.6518 21.7973 14.3574 21.7973 14.0642C21.7977 14.0017 21.7922 13.939 21.7819 13.8777C21.7453 13.6492 21.6386 13.4295 21.4625 13.2533C21.2853 13.0764 21.0645 12.9693 20.8335 12.933C20.4831 12.8765 20.1106 12.9834 19.8395 13.2548L19.0363 14.058C19.307 13.7871 19.4146 13.4144 19.3581 13.0637C19.3219 12.834 19.2151 12.6133 19.0375 12.4357C18.5903 11.9885 17.8638 11.989 17.4156 12.4372L12.7642 17.0885L12.7512 17.0702C12.5155 16.8345 12.2377 16.667 11.9413 16.567C11.2098 16.3204 10.3681 16.4889 9.7846 17.0724L7.61587 19.2414C7.19889 19.6581 6.96505 20.2229 6.96409 20.8117L6.96265 22.1684C6.96241 22.8026 6.71006 23.4109 6.26089 23.86L5.77734 24.3436L11.309 29.8753L11.9271 29.2571C12.3381 28.8462 12.8849 28.5986 13.4643 28.5607C14.0026 28.5253 14.5095 28.2953 14.8914 27.9135Z" fill="#FECBAA"/>
<path d="M11.6685 30.2344L5.3896 23.9558C5.18267 23.7488 4.84741 23.7488 4.64049 23.9558L2.40446 26.1918C2.19754 26.3987 2.19754 26.734 2.40446 26.9409L8.68308 33.2198C8.89 33.4267 9.2255 33.4267 9.43243 33.2198L11.6685 30.9837C11.8754 30.7768 11.8754 30.4413 11.6685 30.2344Z" fill="#FF84A7"/>
<path d="M9.52487 31.0765C9.71064 30.8907 9.71088 30.59 9.52559 30.4047C9.34029 30.2192 9.0394 30.2195 8.85387 30.4052C8.66809 30.5908 8.66785 30.8917 8.85315 31.077C9.03868 31.2622 9.33933 31.262 9.52487 31.0765Z" fill="#EF6085"/>
<path d="M11.1629 18.69L12.7642 17.0884L12.7513 17.0702C12.5155 16.8344 12.2377 16.6669 11.9413 16.5669L10.4905 18.0176C10.3049 18.2031 10.3049 18.5045 10.4905 18.69C10.6765 18.876 10.9771 18.8755 11.1629 18.69Z" fill="#FFAE85"/>
<path d="M22.5773 10.7604V20.8824C22.5773 21.5169 22.0647 22.0302 21.4314 22.0302C21.181 22.0302 20.9491 21.9497 20.7606 21.8127C20.473 21.6048 20.2853 21.2657 20.2853 20.8824V23.4888C20.2853 23.8055 20.1572 24.0927 19.95 24.2999C19.907 24.3431 19.8599 24.383 19.8099 24.4191C19.621 24.5561 19.3898 24.6366 19.1394 24.6366C18.8916 24.6366 18.6626 24.558 18.4756 24.4244C18.2208 24.2424 18.044 23.9591 18.0036 23.6325V24.6246C18.0036 24.9416 17.8748 25.2292 17.6676 25.4364C17.6239 25.4809 17.5756 25.5215 17.5251 25.5575C17.3374 25.6933 17.1067 25.7731 16.8574 25.7731C16.6073 25.7731 16.3751 25.6926 16.1862 25.5551C15.8985 25.3472 15.7108 25.0081 15.7108 24.6246V23.4888C15.7108 23.8716 15.5234 24.2112 15.2355 24.4191C15.0473 24.5561 14.8158 24.6366 14.5649 24.6366C13.9321 24.6366 13.4188 24.1225 13.4188 23.4888V16.9107L13.3967 16.9145C13.0634 16.9145 12.7483 16.8364 12.4681 16.6978C11.7766 16.3548 11.3005 15.6405 11.3005 14.8153V11.7479C11.3005 11.1586 11.5344 10.5939 11.9501 10.1766L12.9086 9.21653C13.3568 8.76759 13.6084 8.15932 13.6084 7.52413V6.84015H21.4312V7.71423C21.4312 8.29535 21.6429 8.857 22.0257 9.29368C22.3814 9.69935 22.5773 10.2204 22.5773 10.7604Z" fill="#FEDFC5"/>
<path d="M22.05 19.1342C21.8729 18.9571 21.652 18.8501 21.422 18.8136C21.0714 18.7571 20.6991 18.8643 20.4278 19.1356L22.2709 17.2926C22.4948 17.0686 22.6076 16.7749 22.6076 16.4819C22.6076 16.4209 22.6025 16.3594 22.5927 16.2985C22.5559 16.0681 22.4494 15.8477 22.2723 15.6706C22.0971 15.4954 21.8796 15.3891 21.653 15.3514C21.3441 15.3 21.0187 15.3752 20.7592 15.5773L21.4607 14.8758C21.6847 14.6518 21.7972 14.3574 21.7972 14.0642C21.7976 14.002 21.7924 13.9392 21.782 13.8777C21.7453 13.6492 21.6386 13.4295 21.4624 13.2533C21.2855 13.0764 21.0644 12.9693 20.8337 12.933C20.4833 12.8765 20.1105 12.9837 19.8394 13.2548L19.0363 14.058C19.3069 13.7871 19.4145 13.4144 19.3581 13.0637C19.3218 12.834 19.2151 12.6133 19.0377 12.4357C18.5902 11.9885 17.8637 11.989 17.4155 12.4372L12.7641 17.0885L12.7512 17.0702C12.5154 16.8345 12.2376 16.667 11.9412 16.567C11.5904 16.4488 11.2142 16.4269 10.853 16.4997C11.1438 16.9393 11.5505 17.3038 12.046 17.5497C12.1835 17.6177 12.3243 17.6749 12.468 17.7211V23.4887C12.468 24.6459 13.4087 25.5873 14.5647 25.5873C14.7038 25.5873 14.8408 25.5738 14.9742 25.5474C15.1234 25.8524 15.346 26.1208 15.6265 26.3234C15.8005 26.4503 15.9903 26.5474 16.19 26.6147L22.0486 20.7562C22.4972 20.3075 22.4977 19.5819 22.05 19.1342Z" fill="#FFAE85"/>
<path d="M23.527 20.8824V16.8342C23.4287 16.9032 23.335 16.9818 23.247 17.0695L23.2341 17.088L18.5827 12.4367C18.1345 11.9885 17.408 11.988 16.9607 12.4352C16.7831 12.6126 16.6764 12.8332 16.6401 13.0632C16.5837 13.4136 16.6913 13.7866 16.9619 14.0572L16.1588 13.254C15.8877 12.983 15.5152 12.8758 15.1648 12.9322C14.9338 12.9685 14.7129 13.0757 14.5358 13.2528C14.3596 13.429 14.2529 13.6484 14.2162 13.8772C14.2061 13.9385 14.2005 14.0012 14.201 14.0635C14.201 14.3567 14.3135 14.6511 14.5377 14.8753L15.239 15.5766C14.9795 15.3745 14.6543 15.2993 14.3455 15.3507C14.1186 15.3884 13.9013 15.4946 13.7261 15.6698C13.549 15.847 13.4423 16.0676 13.4055 16.2978C13.3957 16.3589 13.3906 16.4201 13.3909 16.4812C13.3906 16.7744 13.5034 17.0678 13.7273 17.2918L15.5704 19.1349C15.2993 18.8638 14.9268 18.7566 14.5764 18.8131C14.3464 18.8494 14.1253 18.9566 13.9484 19.1335C13.5007 19.5814 13.5012 20.307 13.9496 20.7557L18.7445 25.5503C18.8733 25.5748 19.005 25.5873 19.1384 25.5873C19.5827 25.5873 20.0076 25.4496 20.3653 25.1903C20.4563 25.1244 20.5426 25.0511 20.6214 24.9723C21.0173 24.5765 21.2352 24.0497 21.2352 23.4887V22.972C21.2997 22.978 21.365 22.9809 21.4304 22.9809C22.5864 22.9809 23.527 22.0395 23.527 20.8824Z" fill="#FFAE85"/>
<path d="M22.5773 10.7604V20.8824C22.5773 21.5169 22.0647 22.0302 21.4314 22.0302C21.4143 22.0302 21.3958 22.0302 21.3776 22.029C21.1485 22.0182 20.9363 21.9403 20.7621 21.8134C20.7614 21.8134 20.7614 21.8127 20.7606 21.8127C20.473 21.6048 20.2853 21.2657 20.2853 20.8824V23.4888C20.2853 23.8055 20.1572 24.0927 19.95 24.2999C19.907 24.3431 19.8599 24.383 19.8099 24.4191C19.621 24.5561 19.3898 24.6366 19.1394 24.6366C18.8916 24.6366 18.6626 24.558 18.4756 24.4244C18.2208 24.2424 18.044 23.9591 18.0036 23.6325V24.6246C18.0036 24.9416 17.8748 25.2292 17.6676 25.4364C17.6239 25.4809 17.5756 25.5215 17.5251 25.5575C17.3374 25.6933 17.1067 25.7731 16.8574 25.7731C16.6073 25.7731 16.3751 25.6926 16.1862 25.5551C15.8985 25.3472 15.7108 25.0081 15.7108 24.6246V23.4888C15.7108 23.8716 15.5234 24.2112 15.2355 24.4191C15.0473 24.5561 14.8158 24.6366 14.5649 24.6366C13.9321 24.6366 13.4188 24.1225 13.4188 23.4888V16.9107L13.3967 16.9145C13.0634 16.9145 12.7483 16.8364 12.4681 16.6978C11.7766 16.3548 11.3005 15.6405 11.3005 14.8153V11.7479C11.3005 11.1586 11.5344 10.5939 11.9501 10.1766L12.9086 9.21653C13.1857 8.93895 13.3878 8.60032 13.5012 8.23142C13.5724 8.00335 13.6084 7.76302 13.6084 7.52413V6.84015H21.4312V7.71423C21.4312 7.9101 21.4523 8.11678 21.5066 8.30544C21.598 8.66882 21.7756 9.00792 22.0257 9.29368C22.3783 9.69623 22.5773 10.2242 22.5773 10.7604Z" fill="#FEDFC5"/>
<path d="M22.5765 10.7604V20.8824C22.5765 21.5169 22.0639 22.0302 21.4307 22.0302C21.4136 22.0302 21.3951 22.0302 21.3768 22.029C21.1478 22.0182 20.9356 21.9403 20.7613 21.8134L20.7808 12.0599C20.7808 12.001 20.7676 11.9077 20.7428 11.7893C20.3054 9.65874 18.5073 8.23142 16.3325 8.23142H13.5005C13.5716 8.00311 13.6077 7.76302 13.6077 7.52413V6.84015H21.4304V7.71423C21.4304 7.9101 21.4516 8.11678 21.5059 8.30544C21.5972 8.66882 21.7748 9.00792 22.025 9.29368C22.3776 9.69623 22.5765 10.2242 22.5765 10.7604Z" fill="#FECBAA"/>
<path d="M21.9389 6.84037H13.0592C12.7667 6.84037 12.5295 6.60317 12.5295 6.31069V3.14819C12.5295 2.85571 12.7667 2.6185 13.0592 2.6185H21.9389C22.2314 2.6185 22.4686 2.85571 22.4686 3.14819V6.31069C22.4686 6.60317 22.2314 6.84037 21.9389 6.84037Z" fill="#83D9FF"/>
<path d="M15.0394 4.72955C15.0394 4.46687 14.8269 4.25418 14.5647 4.25418C14.3025 4.25418 14.0901 4.46687 14.0901 4.72955C14.0901 4.99199 14.3025 5.20493 14.5647 5.20493C14.8269 5.20493 15.0394 4.99199 15.0394 4.72955Z" fill="#5186FF"/>
<path d="M20.7601 15.5853V21.8127C20.4722 21.6048 20.2845 21.2657 20.2845 20.8821V23.4885C20.2845 23.8055 20.1566 24.0927 19.9492 24.2999C19.9062 24.3431 19.8593 24.383 19.8091 24.4191V15.5853C19.8091 15.3228 20.0223 15.1099 20.2845 15.1099C20.5469 15.1099 20.7601 15.3228 20.7601 15.5853Z" fill="#FECBAA"/>
<path d="M18.4752 15.5853V24.4241C18.2202 24.2422 18.0435 23.9588 18.0029 23.6325V24.6246C18.0029 24.9413 17.8743 25.2292 17.6669 25.4364C17.6232 25.4808 17.5751 25.5212 17.5244 25.5575V15.5853C17.5244 15.3228 17.7373 15.1099 17.9998 15.1099C18.2622 15.1099 18.4752 15.3228 18.4752 15.5853Z" fill="#FECBAA"/>
<path d="M16.1851 15.5853V25.5549C15.8974 25.347 15.7097 25.0079 15.7097 24.6246V23.4885C15.7097 23.8714 15.5223 24.2112 15.2344 24.4191V15.5853C15.2344 15.3228 15.4475 15.1099 15.7097 15.1099C15.9729 15.1099 16.1851 15.3228 16.1851 15.5853Z" fill="#FECBAA"/>
<path d="M13.4188 14.6458V16.9106L13.3964 16.9142C13.0631 16.9142 12.748 16.8364 12.468 16.6977V14.6458C12.468 14.3833 12.6809 14.1704 12.9434 14.1704C13.2063 14.1704 13.4188 14.3833 13.4188 14.6458Z" fill="#FECBAA"/>
</svg>
