<svg width="71" height="19" viewBox="0 0 71 19" fill="none" xmlns="http://www.w3.org/2000/svg">
<path d="M2.55073 0.0614873V10.9212H9.5036V13.2134H0.00146482V0.0614873H2.55073Z" fill="#FF6F3E"/>
<path d="M10.7391 3.9132V13.2134H13.0953V3.9132H10.7391ZM13.3079 1.3392C13.3079 3.12401 10.5267 3.12401 10.5267 1.3392C10.5267 -0.445779 13.3079 -0.445779 13.3079 1.3392Z" fill="#FF6F3E"/>
<path d="M21.8464 13.2134V8.36598C21.8464 6.95685 21.0546 5.88593 19.548 5.88593C18.0996 5.88593 17.1146 7.06961 17.1146 8.47848V13.2134H14.7776V3.93198H16.8829L17.0374 5.19079C18.0028 4.27007 18.9686 3.80045 20.166 3.80045C22.4063 3.80045 24.2025 5.43509 24.2025 8.34732V13.2134H21.8464Z" fill="#FF6F3E"/>
<path d="M27.6993 8.3471C27.6993 9.9627 28.8194 10.9209 30.1908 10.9209C31.5428 10.9209 32.6628 9.94393 32.6628 8.3471C32.6628 6.75001 31.5428 5.73545 30.1908 5.73545C28.8194 5.73545 27.6993 6.73124 27.6993 8.3471ZM33.3196 3.01107L35.0577 4.28875L33.9957 5.60391C34.7294 6.41174 34.9998 7.33246 34.9998 8.3471C34.9998 9.49314 34.5557 11.1089 32.9913 11.804C34.5749 12.5742 34.9611 13.6829 34.9611 14.8663C34.9611 17.4218 32.9528 18.9997 30.1908 18.9997C27.4291 18.9997 25.3624 17.3654 25.3624 14.8663H27.6993C27.6993 16.0689 28.8389 16.858 30.1908 16.858C31.5428 16.858 32.605 16.1442 32.605 14.8663C32.605 13.5888 31.3688 13.0065 30.1908 13.0065C27.2165 13.0065 25.3624 11.2405 25.3624 8.3471C25.3624 5.45358 27.5255 3.64983 30.1908 3.64983C30.944 3.64983 31.7166 3.74388 32.3733 4.17599L33.3196 3.01107Z" fill="#FF6F3E"/>
<path d="M38.5352 3.95121V8.79854C38.5352 10.2077 39.3271 11.2787 40.8335 11.2787C42.2821 11.2787 43.2671 10.0951 43.2671 8.68578V3.95121H45.6041V13.2325H43.4988L43.3443 11.9738C42.3596 12.9133 41.4515 13.3641 40.119 13.3641C37.8401 13.3641 36.1792 11.6919 36.1792 8.81733V3.95121H38.5352Z" fill="#FF6F3E"/>
<path d="M49.1354 8.57163C49.1354 10.3379 50.3908 11.3899 51.9551 11.3899C55.6633 11.3899 55.6633 5.77222 51.9551 5.77222C50.3908 5.77222 49.1354 6.80563 49.1354 8.57163ZM54.8521 3.94975H57.1119V13.2125H54.8909L54.7749 11.8596C54.2341 12.9493 52.7469 13.4753 51.6849 13.4943C48.8649 13.5131 46.7791 11.822 46.7791 8.57163C46.7791 5.37773 48.9616 3.70551 51.7428 3.72443C53.0174 3.72443 54.2341 4.30675 54.7749 5.22746L54.8521 3.94975Z" fill="#FF6F3E"/>
<path d="M68.0643 0.0614873H70.8646V0.174214L66.2875 6.5623L70.9999 13.1382V13.2134H68.1415L64.6844 8.272L61.2274 13.2134H58.3688V13.1382L63.0621 6.5623L58.5042 0.174214V0.0614873H61.3045L64.6844 4.96528L68.0643 0.0614873Z" fill="#FF6F3E"/>
</svg>
