<svg width="36" height="36" viewBox="0 0 36 36" fill="none" xmlns="http://www.w3.org/2000/svg">
<path d="M23.5095 3.14166H13.477H12.4909C11.899 3.14166 11.4202 3.62049 11.4202 4.21238V8.90612H12.4032H13.4677V5.37516C13.4677 5.16386 13.6376 4.99086 13.8489 4.99086H22.1521C22.3634 4.99086 22.5333 5.16386 22.5333 5.37516V8.90612H24.5808V4.21238C24.5808 3.62049 24.102 3.14166 23.5095 3.14166Z" fill="#954C35"/>
<path d="M13.4771 3.14166C12.8852 3.14166 12.4027 3.62049 12.4027 4.21238V8.90612H11.4197V4.21238C11.4197 3.62049 11.8985 3.14166 12.4904 3.14166H13.4771Z" fill="#954C35"/>
<path d="M30.3357 18.4066H5.66529C4.92203 18.4066 4.22264 18.1953 3.61777 17.8209C3.07901 17.4934 2.61316 17.0399 2.25049 16.4981V31.0606C2.25049 32.135 3.04132 32.1535 4.01133 32.1535H5.37862H32.0873C33.0134 32.1535 33.7505 32.1344 33.7505 31.1013V16.4974C32.9757 17.6534 31.7345 18.4066 30.3357 18.4066Z" fill="#954C35"/>
<path d="M5.37862 32.1529H4.01133C3.04132 32.1529 2.25049 32.1338 2.25049 31.0599V16.4974C2.61254 17.0393 3.07901 17.4928 3.61777 17.8202V31.0593C3.61777 32.1338 4.40861 32.1529 5.37862 32.1529Z" fill="#7C3F2C"/>
<path d="M33.7505 31.06V31.1008C33.7505 32.0708 32.9596 32.8585 31.9896 32.8585H4.01133C3.04132 32.8585 2.25049 32.0708 2.25049 31.1008V31.06C2.29127 31.0977 2.33575 31.1354 2.37962 31.1669C2.82384 31.532 3.39102 31.7526 4.01133 31.7526H31.9896C32.6099 31.7526 33.1771 31.532 33.6214 31.1669C33.6652 31.1354 33.7097 31.0977 33.7505 31.06Z" fill="#FF9F22"/>
<path d="M33.6209 31.1668C33.3626 31.8125 32.7263 32.269 31.9892 32.269H4.01087C3.27378 32.269 2.63741 31.8125 2.37915 31.1668C2.82338 31.532 3.39056 31.7525 4.01087 31.7525H31.9892C32.6095 31.7525 33.1767 31.5326 33.6209 31.1668Z" fill="#FFC14F"/>
<path d="M25.2388 20.0568H27.3746V32.8585H25.2388V20.0568Z" fill="#FF9F22"/>
<path d="M26.3064 20.0568H27.374V32.8585H26.3064V20.0568Z" fill="#FFC14F"/>
<path d="M8.62573 20.0568H10.7616V32.8585H8.62573V20.0568Z" fill="#FF9F22"/>
<path d="M9.69409 20.0568H10.7617V32.8585H9.69409V20.0568Z" fill="#FFC14F"/>
<path d="M33.7505 10.6669V16.6427C33.7505 18.5265 32.2195 20.0575 30.3357 20.0575H5.66529C3.7815 20.0575 2.25049 18.5265 2.25049 16.6427V10.6669C2.25049 9.6969 3.04132 8.90607 4.01133 8.90607H13.0516H13.0547H15.096H15.0991H24.1647H24.1678H26.2122H26.2153H31.989C32.9596 8.90607 33.7505 9.6969 33.7505 10.6669Z" fill="#AE583E"/>
<path d="M33.7504 10.6669V16.6427C33.7504 18.5265 32.2193 20.0575 30.3356 20.0575H7.29689C5.41618 20.0575 3.88208 18.5265 3.88208 16.6427V10.6669C3.88208 9.6969 4.67292 8.90607 5.64293 8.90607H13.0515H13.0545H15.0959H15.099H24.1646H24.1676H26.2121H26.2152H31.9889C32.9595 8.90607 33.7504 9.6969 33.7504 10.6669Z" fill="#C0694E"/>
<path d="M19.6323 18.6272V21.3395C19.6323 21.431 19.56 21.5063 19.4686 21.5063H16.5326C16.4412 21.5063 16.3689 21.431 16.3689 21.3395V18.6272C16.3689 18.5358 16.4412 18.4604 16.5326 18.4604H19.4686C19.56 18.4598 19.6323 18.5358 19.6323 18.6272Z" fill="#FF9F22"/>
<path d="M19.632 18.6272V21.3395C19.632 21.431 19.5597 21.5063 19.4683 21.5063H17.6605C17.569 21.5063 17.4937 21.431 17.4937 21.3395V18.6272C17.4937 18.5358 17.569 18.4604 17.6605 18.4604H19.4683C19.5597 18.4598 19.632 18.5358 19.632 18.6272Z" fill="#FFC14F"/>
</svg>
