<svg width="36" height="36" viewBox="0 0 36 36" fill="none" xmlns="http://www.w3.org/2000/svg">
<path d="M32.8609 20.7157C32.8609 14.1888 27.5698 8.89768 21.0429 8.89768C14.516 8.89768 9.22485 14.1888 9.22485 20.7157C9.22485 27.2426 14.516 32.5337 21.0429 32.5337C27.5698 32.5337 32.8609 27.2426 32.8609 20.7157Z" fill="#A7D3F8"/>
<path fill-rule="evenodd" clip-rule="evenodd" d="M21.0479 8.89569C27.5758 8.89569 32.8677 14.1876 32.8677 20.7155C32.8677 27.2434 27.5757 32.5353 21.0479 32.5353L21.0935 32.3926C23.5232 24.7975 23.5232 16.6335 21.0935 9.03837L21.0479 8.89569Z" fill="#60B7FE"/>
<path fill-rule="evenodd" clip-rule="evenodd" d="M21.0471 8.40366C27.8467 8.40366 33.3592 13.916 33.3592 20.7157C33.3592 27.5154 27.8467 33.0277 21.0471 33.0277C14.2475 33.0277 8.73511 27.5153 8.73511 20.7156C8.73511 13.916 14.2475 8.40366 21.0471 8.40366ZM11.737 27.1702C13.0605 26.6033 14.4446 26.1536 15.8762 25.8344C15.6519 24.3444 15.5229 22.7958 15.5008 21.2079H9.73027C9.82469 23.4183 10.5525 25.4648 11.737 27.1702ZM16.8389 25.6406C19.6151 25.1417 22.4792 25.1417 25.2553 25.6406C25.4662 24.2202 25.5876 22.7369 25.609 21.2078H16.4852C16.5067 22.7369 16.6281 24.2202 16.8389 25.6406ZM26.2181 25.8344C27.6497 26.1536 29.0338 26.6033 30.3572 27.1702C31.5417 25.4648 32.2695 23.4183 32.3641 21.2078H26.5935C26.5713 22.7958 26.4424 24.3444 26.2181 25.8344ZM29.7425 27.9758C28.5622 27.4858 27.3304 27.0923 26.057 26.8053C25.7634 28.4232 25.3558 29.9597 24.8498 31.389C26.769 30.7053 28.4538 29.5178 29.7425 27.9758ZM25.0958 26.6105C22.4321 26.1309 19.6622 26.1309 16.9984 26.6105C17.3294 28.4419 17.8108 30.1638 18.4182 31.7364C20.1398 32.1457 21.9544 32.1457 23.676 31.7364C24.2834 30.1638 24.7647 28.4419 25.0958 26.6105ZM16.0373 26.8053C14.7639 27.0922 13.5321 27.4858 12.3518 27.9758C13.6405 29.5178 15.3253 30.7053 17.2445 31.3891C16.7384 29.9597 16.3308 28.4232 16.0373 26.8053ZM30.6996 14.7847C29.3029 15.4093 27.8344 15.9029 26.3097 16.2496C26.4775 17.5374 26.5745 18.8661 26.5935 20.2235H32.3641C32.279 18.2347 31.6813 16.3789 30.6996 14.7847ZM25.3458 16.4477C22.507 16.9702 19.5872 16.9702 16.7484 16.4477C16.5933 17.6665 16.5034 18.9286 16.4852 20.2235H25.609C25.5908 18.9286 25.5009 17.6665 25.3458 16.4477ZM15.7846 16.2495C14.2598 15.9029 12.7913 15.4092 11.3947 14.7846C10.413 16.3788 9.81533 18.2347 9.73027 20.2234H15.5008C15.5197 18.8661 15.6167 17.5374 15.7846 16.2495ZM11.9538 13.9598C13.222 14.5153 14.5503 14.9584 15.9261 15.276C16.2199 13.4464 16.6626 11.686 17.2445 10.0423C15.1224 10.7983 13.2837 12.1722 11.9538 13.9598ZM16.8873 15.4759C19.6192 15.9817 22.4751 15.9817 25.2069 15.4759C24.8831 13.4356 24.3662 11.4817 23.6761 9.69486C21.9545 9.28561 20.1399 9.28561 18.4183 9.69486C17.728 11.4817 17.2111 13.4356 16.8873 15.4759ZM26.1682 15.276C27.544 14.9583 28.8722 14.5153 30.1405 13.9598C28.8105 12.1721 26.9719 10.7984 24.8498 10.0423C25.4317 11.686 25.8743 13.4464 26.1682 15.276Z" fill="#48A7E6"/>
<path fill-rule="evenodd" clip-rule="evenodd" d="M19.2576 2.9722H11.8572C10.7877 2.9722 9.9126 3.84731 9.9126 4.91681V8.58994C9.9126 9.65952 10.7877 10.5345 11.8572 10.5345H17.6796C18.3885 10.5345 18.9985 10.7913 19.494 11.2983L21.2021 13.0463V4.91688C21.2022 3.84731 20.3271 2.9722 19.2576 2.9722Z" fill="#FF4B00"/>
<path fill-rule="evenodd" clip-rule="evenodd" d="M11.5945 13.9168H4.19412C3.12462 13.9168 2.24951 14.7919 2.24951 15.8614V19.5346C2.24951 20.6041 3.12454 21.4792 4.19412 21.4792H10.0165C10.7254 21.4792 11.3354 21.736 11.8309 22.243L13.5391 23.9909V15.8614C13.5391 14.7919 12.664 13.9168 11.5945 13.9168Z" fill="#E33F65"/>
<path fill-rule="evenodd" clip-rule="evenodd" d="M19.2576 2.9722H11.8572C10.7877 2.9722 9.9126 3.84731 9.9126 4.9168V8.58994C9.9126 8.72864 9.92743 8.86399 9.95536 8.99463C10.2715 9.21709 10.656 9.34803 11.0697 9.34803H16.8921C17.6009 9.34803 18.211 9.60481 18.7064 10.1118L20.4146 11.8598V3.73037C20.4146 3.59167 20.3997 3.45631 20.3718 3.3256C20.0558 3.10321 19.6712 2.9722 19.2576 2.9722Z" fill="#F5934C"/>
<path fill-rule="evenodd" clip-rule="evenodd" d="M11.5945 13.9168H4.19412C3.12462 13.9168 2.24951 14.7919 2.24951 15.8614V19.5346C2.24951 19.6733 2.26435 19.8086 2.29227 19.9393C2.6084 20.1617 2.99292 20.2927 3.40658 20.2927H9.22899C9.93786 20.2927 10.5479 20.5495 11.0433 21.0565L12.7516 22.8044V14.6749C12.7516 14.5362 12.7367 14.4009 12.7088 14.2702C12.3927 14.0479 12.0082 13.9168 11.5945 13.9168Z" fill="#FA6E85"/>
<path fill-rule="evenodd" clip-rule="evenodd" d="M24.4041 20.1617H31.8045C32.8739 20.1617 33.7491 21.0367 33.7491 22.1063V25.7794C33.7491 26.8489 32.874 27.724 31.8045 27.724H25.982C25.2732 27.724 24.6631 27.9808 24.1677 28.4878L22.4595 30.2358V22.1063C22.4595 21.0367 23.3346 20.1617 24.4041 20.1617Z" fill="#FFBF31"/>
<path fill-rule="evenodd" clip-rule="evenodd" d="M24.4046 20.1617H31.805C32.8745 20.1617 33.7496 21.0367 33.7496 22.1063V25.7448C33.3974 26.0956 32.9124 26.3131 32.3792 26.3131H26.5567C25.8479 26.3131 25.2378 26.5699 24.7424 27.0769L23.0342 28.8249V20.7299C23.3864 20.3792 23.8713 20.1617 24.4046 20.1617Z" fill="#FFE177"/>
<path fill-rule="evenodd" clip-rule="evenodd" d="M12.8811 5.98522C12.6092 5.98522 12.3889 5.7648 12.3889 5.49304C12.3889 5.22119 12.6093 5.00085 12.8811 5.00085H18.2334C18.5053 5.00085 18.7256 5.22127 18.7256 5.49304C18.7256 5.76488 18.5052 5.98522 18.2334 5.98522H12.8811ZM28.5632 24.7109C28.8351 24.7109 29.0554 24.9313 29.0554 25.203C29.0554 25.4748 28.835 25.6952 28.5632 25.6952H25.4287C25.1568 25.6952 24.9365 25.4748 24.9365 25.203C24.9365 24.9313 25.1569 24.7109 25.4287 24.7109H28.5632ZM30.781 22.1901C31.0529 22.1901 31.2732 22.4105 31.2732 22.6823C31.2732 22.9541 31.0528 23.1744 30.781 23.1744H25.4287C25.1568 23.1744 24.9365 22.954 24.9365 22.6823C24.9365 22.4104 25.1569 22.1901 25.4287 22.1901H30.781ZM7.43632 19.4508C7.16448 19.4508 6.94414 19.2304 6.94414 18.9586C6.94414 18.6868 7.16455 18.4664 7.43632 18.4664H10.5709C10.8427 18.4664 11.063 18.6868 11.063 18.9586C11.063 19.2304 10.8426 19.4508 10.5709 19.4508H7.43632ZM5.2185 16.93C4.94666 16.93 4.72632 16.7096 4.72632 16.4378C4.72632 16.166 4.94673 15.9456 5.2185 15.9456H10.5709C10.8427 15.9456 11.063 16.166 11.063 16.4378C11.063 16.7097 10.8426 16.93 10.5709 16.93H5.2185ZM15.0989 8.506C14.827 8.506 14.6067 8.28559 14.6067 8.01382C14.6067 7.74197 14.8271 7.52164 15.0989 7.52164H18.2334C18.5053 7.52164 18.7256 7.74205 18.7256 8.01382C18.7256 8.28566 18.5052 8.506 18.2334 8.506H15.0989Z" fill="white"/>
</svg>
