<svg width="140" height="39" viewBox="0 0 140 39" fill="none" xmlns="http://www.w3.org/2000/svg">
<path d="M5.02682 0.123692V22.136H18.737V26.7824H0V0.123692H5.02682Z" fill="#D84918"/>
<path d="M21.1734 7.93103V26.7824H25.8194V7.93103H21.1734ZM26.2386 2.71358C26.2386 6.33136 20.7545 6.33136 20.7545 2.71358C20.7545 -0.904531 26.2386 -0.904531 26.2386 2.71358Z" fill="#D84918"/>
<path d="M43.075 26.7824V16.9567C43.075 14.1004 41.5136 11.9297 38.5429 11.9297C35.6867 11.9297 33.7446 14.329 33.7446 17.1848V26.7824H29.1363V7.96908H33.2876L33.5922 10.5207C35.496 8.6544 37.4004 7.70248 39.7615 7.70248C44.179 7.70248 47.721 11.0159 47.721 16.9189V26.7824H43.075Z" fill="#D84918"/>
<path d="M54.6169 16.9182C54.6169 20.193 56.8256 22.1353 59.5298 22.1353C62.1958 22.1353 64.4043 20.1549 64.4043 16.9182C64.4043 13.6809 62.1958 11.6245 59.5298 11.6245C56.8256 11.6245 54.6169 13.6429 54.6169 16.9182ZM65.6994 6.10219L69.1267 8.69202L67.0326 11.3578C68.4794 12.9953 69.0125 14.8616 69.0125 16.9182C69.0125 19.2412 68.1369 22.5164 65.052 23.9252C68.1747 25.4865 68.9363 27.7338 68.9363 30.1325C68.9363 35.3123 64.9761 38.5109 59.5298 38.5109C54.0841 38.5109 50.009 35.1981 50.009 30.1325H54.6169C54.6169 32.5701 56.864 34.1696 59.5298 34.1696C62.1958 34.1696 64.2903 32.7228 64.2903 30.1325C64.2903 27.543 61.8528 26.3628 59.5298 26.3628C53.6648 26.3628 50.009 22.783 50.009 16.9182C50.009 11.0531 54.2741 7.39694 59.5298 7.39694C61.015 7.39694 62.5386 7.58758 63.8334 8.46346L65.6994 6.10219Z" fill="#D84918"/>
<path d="M75.9838 8.00764V17.8331C75.9838 20.6894 77.5455 22.8603 80.5159 22.8603C83.3724 22.8603 85.3145 20.4612 85.3145 17.6045V8.00764H89.9228V26.8207H85.7715L85.4669 24.2692C83.525 26.1736 81.7345 27.0873 79.1069 27.0873C74.6132 27.0873 71.3381 23.6979 71.3381 17.8712V8.00764H75.9838Z" fill="#D84918"/>
<path d="M96.8864 17.3735C96.8864 20.9538 99.3617 23.0861 102.446 23.0861C109.758 23.0861 109.758 11.6992 102.446 11.6992C99.3617 11.6992 96.8864 13.7939 96.8864 17.3735ZM108.159 8.00505H112.615V26.7804H108.235L108.007 24.0381C106.94 26.2469 104.008 27.3132 101.914 27.3516C96.3529 27.3897 92.2401 23.962 92.2401 17.3735C92.2401 10.8995 96.5436 7.50998 102.028 7.54832C104.541 7.54832 106.94 8.72867 108.007 10.5949L108.159 8.00505Z" fill="#D84918"/>
<path d="M134.211 0.123692H139.733V0.352186L130.708 13.3007L140 26.63V26.7824H134.364L127.547 16.7662L120.73 26.7824H115.093V26.63L124.348 13.3007L115.36 0.352186V0.123692H120.882L127.547 10.0636L134.211 0.123692Z" fill="#D84918"/>
</svg>
