<svg width="24" height="24" viewBox="0 0 24 24" fill="none" xmlns="http://www.w3.org/2000/svg">
<path d="M17.8915 21.6587C16.7484 22.7669 15.5002 22.5919 14.2987 22.067C13.0272 21.5304 11.8606 21.507 10.5191 22.067C8.83935 22.7902 7.9528 22.5802 6.94959 21.6587C1.25698 15.7911 2.09687 6.85554 8.55939 6.52892C10.1342 6.61058 11.2307 7.39214 12.1523 7.46213C13.5288 7.18217 14.8469 6.37727 16.3167 6.48226C18.0782 6.62224 19.408 7.32215 20.2829 8.58199C16.6434 10.7634 17.5066 15.5578 20.8428 16.8993C20.1779 18.6491 19.3147 20.3872 17.8799 21.6703L17.8915 21.6587ZM12.0356 6.45893C11.8606 3.85759 13.972 1.71119 16.3984 1.50122C16.7367 4.51084 13.6687 6.75056 12.0356 6.45893Z" fill="black"/>
</svg>
