<svg width="38" height="36" viewBox="0 0 38 36" fill="none" xmlns="http://www.w3.org/2000/svg">
<circle cx="22" cy="20" r="16" fill="white"/>
<path d="M20.0805 13.3252C20.1882 13.3252 20.2975 13.2993 20.399 13.2448L22.3418 12.2007C22.6696 12.0245 22.7926 11.6158 22.6163 11.2879C22.4403 10.9601 22.0317 10.8372 21.7036 11.0133L19.7609 12.0574C19.433 12.2336 19.31 12.6423 19.4862 12.9701C19.6079 13.1966 19.8404 13.3252 20.0805 13.3252Z" fill="#FF6F3E"/>
<path d="M14.9432 16.3379C15.0571 16.3379 15.1726 16.309 15.2784 16.2483L18.5394 14.375C18.8621 14.1896 18.9735 13.7776 18.7881 13.4548C18.6027 13.1321 18.1907 13.0207 17.8679 13.2061L14.6069 15.0795C14.2842 15.2648 14.1728 15.6768 14.3582 15.9996C14.4829 16.2166 14.7098 16.3379 14.9432 16.3379Z" fill="#FF6F3E"/>
<path d="M18.7011 16.677C18.8261 16.8924 19.0522 17.0127 19.2846 17.0127C19.3995 17.0127 19.5159 16.9833 19.6223 16.9215L25.5298 13.492C25.8517 13.3051 25.9612 12.8927 25.7743 12.5708C25.5873 12.2487 25.1749 12.1394 24.853 12.3262L18.9456 15.7557C18.6237 15.9426 18.5142 16.3551 18.7011 16.677Z" fill="#FF6F3E"/>
<path d="M14.7261 19.668C14.8414 19.668 14.9582 19.6383 15.0651 19.576L17.8228 17.9672C18.1444 17.7796 18.2531 17.3669 18.0654 17.0454C17.8778 16.7238 17.4652 16.6152 17.1436 16.8029L14.3858 18.4117C14.0642 18.5993 13.9556 19.0119 14.1432 19.3334C14.2685 19.5482 14.4942 19.668 14.7261 19.668Z" fill="#FF6F3E"/>
<path d="M25.3127 16.0962C25.4368 16.3149 25.6647 16.4375 25.8993 16.4375C26.0121 16.4375 26.1264 16.4092 26.2315 16.3495L28.6401 14.9818C28.9638 14.7979 29.0772 14.3865 28.8934 14.0628C28.7094 13.739 28.2981 13.6258 27.9745 13.8096L25.5659 15.1774C25.2422 15.3611 25.1288 15.7726 25.3127 16.0962Z" fill="#FF6F3E"/>
<path d="M24.594 16.5692C24.404 16.2491 23.9906 16.1438 23.6704 16.3336L14.3301 21.8776C14.01 22.0676 13.9045 22.4812 14.0945 22.8012C14.2205 23.0134 14.4447 23.1313 14.6748 23.1313C14.7917 23.1313 14.9103 23.1008 15.0181 23.0368L24.3584 17.4929C24.6785 17.3029 24.784 16.8894 24.594 16.5692Z" fill="#FF6F3E"/>
<path d="M28.8575 23.0676L25.5931 24.9664C25.2713 25.1536 25.1621 25.5662 25.3493 25.8879C25.4744 26.1031 25.7004 26.2231 25.9326 26.2231C26.0476 26.2231 26.1642 26.1936 26.2708 26.1316L29.5353 24.2328C29.8571 24.0458 29.9662 23.6331 29.779 23.3114C29.5918 22.9896 29.1791 22.8805 28.8575 23.0676Z" fill="#FF6F3E"/>
<path d="M23.8743 25.9781L21.6937 27.2805C21.3741 27.4714 21.2698 27.8852 21.4607 28.2047C21.5869 28.4161 21.8105 28.5332 22.04 28.5332C22.1575 28.5332 22.2767 28.5024 22.385 28.4377L24.5655 27.1353C24.8851 26.9444 24.9894 26.5305 24.7985 26.2111C24.6077 25.8914 24.194 25.7874 23.8743 25.9781Z" fill="#FF6F3E"/>
<path d="M29.155 19.7324L26.1169 21.5481C25.7974 21.739 25.6932 22.1529 25.8841 22.4724C26.0103 22.6836 26.2339 22.8008 26.4634 22.8008C26.5809 22.8008 26.7001 22.7699 26.8085 22.7052L29.8466 20.8896C30.166 20.6986 30.2702 20.2848 30.0793 19.9651C29.8885 19.6457 29.4747 19.5415 29.155 19.7324Z" fill="#FF6F3E"/>
<path d="M25.2273 22.8493C25.042 22.5266 24.6303 22.4151 24.3073 22.6002L18.701 25.8175C18.3781 26.0028 18.2666 26.4146 18.4518 26.7376C18.5765 26.9547 18.8035 27.0762 19.037 27.0762C19.1508 27.0762 19.2661 27.0474 19.3719 26.9866L24.9782 23.7694C25.3011 23.5841 25.4126 23.1722 25.2273 22.8493Z" fill="#FF6F3E"/>
<path d="M19.7237 22.6778C19.8494 22.8911 20.0742 23.0098 20.3052 23.0098C20.4214 23.0098 20.5391 22.9796 20.6466 22.9164L29.9514 17.4867C30.2721 17.2977 30.379 16.8846 30.1901 16.5639C30.0013 16.2432 29.5883 16.1365 29.2672 16.3252L19.9624 21.7549C19.6417 21.9438 19.5348 22.3569 19.7237 22.6778Z" fill="#FF6F3E"/>
<path d="M18.9745 23.1132C18.7867 22.7917 18.3739 22.6836 18.0526 22.8713L15.5792 24.3679C15.2578 24.5558 15.1495 24.9685 15.3372 25.2899C15.4626 25.5045 15.6881 25.624 15.9199 25.624C16.0353 25.624 16.1524 25.5942 16.2592 25.532L18.7326 24.0351C19.0539 23.8474 19.1623 23.4346 18.9745 23.1132Z" fill="#FF6F3E"/>
<mask id="mask0_39_5864" style="mask-type:alpha" maskUnits="userSpaceOnUse" x="0" y="0" width="35" height="30">
<rect x="0.764648" y="21.6372" width="34.2324" height="10.4597" transform="rotate(-37.3386 0.764648 21.6372)" fill="#FFB526"/>
</mask>
<g mask="url(#mask0_39_5864)">
<circle cx="22" cy="20" r="16" fill="#FFB526"/>
</g>
<path d="M14.16 20.6124C14.3629 20.6709 14.5442 20.6824 14.7038 20.6469C14.8635 20.6114 15.0139 20.5412 15.1552 20.4362C15.4464 20.22 15.593 19.95 15.595 19.6262C15.5992 19.3009 15.4455 18.9285 15.1338 18.5089C14.846 18.1214 14.5658 17.8894 14.293 17.813C14.0187 17.7344 13.7542 17.7897 13.4995 17.9789C13.3196 18.1124 13.1936 18.2692 13.1213 18.4491C13.0511 18.6275 13.0149 18.8337 13.0128 19.0678L14.16 20.6124ZM12.6669 18.6022C12.6905 18.3522 12.7537 18.1175 12.8566 17.8983C12.9595 17.679 13.1201 17.4883 13.3385 17.3261C13.529 17.1846 13.7281 17.0949 13.9358 17.0569C14.144 17.0152 14.3533 17.0242 14.5636 17.0838C14.7724 17.1413 14.9789 17.2471 15.183 17.4011C15.3871 17.5551 15.5813 17.7563 15.7658 18.0046C15.9613 18.2679 16.1062 18.5324 16.2005 18.7979C16.2968 19.0618 16.3413 19.3161 16.3337 19.5609C16.3283 19.8041 16.2707 20.0329 16.1609 20.2473C16.0495 20.4596 15.8857 20.646 15.6695 20.8066C15.5646 20.8845 15.4603 20.9454 15.3567 20.9892C15.2546 21.0351 15.1518 21.0666 15.0482 21.0837C14.9468 21.0992 14.8444 21.1022 14.741 21.0927C14.6375 21.0831 14.5318 21.0637 14.4236 21.0344L14.5975 21.3288C14.6455 21.4293 14.6246 21.5129 14.5347 21.5797L14.1301 21.8802L10.6097 17.1406L11.2359 16.6755L12.6669 18.6022ZM18.4163 15.6024C18.3241 15.4783 18.2209 15.3773 18.1065 15.2994C17.9944 15.2199 17.8754 15.1671 17.7497 15.1409C17.6239 15.1147 17.4959 15.1168 17.3656 15.1471C17.2354 15.1775 17.106 15.2403 16.9776 15.3357C16.7142 15.5313 16.563 15.7615 16.5239 16.0264C16.487 16.2897 16.5483 16.5713 16.708 16.8713L18.4163 15.6024ZM20.0686 16.747C20.0583 16.8941 20.0275 17.0382 19.9762 17.1793C19.9233 17.3183 19.8552 17.4502 19.772 17.5752C19.6887 17.7001 19.5932 17.8175 19.4855 17.9274C19.3799 18.0358 19.2683 18.1336 19.1505 18.2211C18.9258 18.388 18.6892 18.5056 18.4409 18.5738C18.1931 18.6382 17.9445 18.6501 17.6951 18.6095C17.4463 18.5652 17.2019 18.4643 16.9621 18.3069C16.7229 18.1458 16.4983 17.9239 16.2884 17.6413C16.1199 17.4144 15.9986 17.1773 15.9245 16.93C15.8489 16.6806 15.8223 16.4346 15.8448 16.1921C15.8694 15.9479 15.9459 15.7133 16.0744 15.4883C16.203 15.2633 16.386 15.0626 16.6237 14.8861C16.8227 14.7382 17.0304 14.6354 17.2467 14.5778C17.4635 14.5164 17.6791 14.5025 17.8933 14.536C18.1075 14.5695 18.3165 14.6518 18.5202 14.7829C18.726 14.9124 18.9155 15.0938 19.0888 15.3272C19.1604 15.4235 19.1982 15.4967 19.2022 15.5469C19.2046 15.5949 19.177 15.6404 19.1192 15.6833L16.9805 17.2718C17.1317 17.4618 17.2859 17.6113 17.4433 17.7203C17.599 17.8272 17.7555 17.897 17.9127 17.9297C18.072 17.9609 18.2291 17.9555 18.384 17.9135C18.5388 17.8716 18.6901 17.7957 18.8378 17.686C18.977 17.5827 19.0849 17.4776 19.1617 17.3707C19.2406 17.2623 19.3029 17.1629 19.3487 17.0724C19.395 16.9782 19.4308 16.8968 19.4562 16.8281C19.4838 16.7578 19.5168 16.7084 19.5553 16.6798C19.6067 16.6416 19.6606 16.6314 19.7171 16.6493L20.0686 16.747ZM22.1699 15.9885C21.9066 16.184 21.6483 16.2612 21.3952 16.2201C21.1442 16.1773 20.9169 16.0189 20.7134 15.7449L19.2633 13.7925L18.8844 14.0739C18.848 14.101 18.809 14.1133 18.7674 14.111C18.7264 14.1049 18.6891 14.0794 18.6557 14.0345L18.4673 13.7808L18.9423 13.3134L18.3609 12.2355C18.3425 12.1927 18.3378 12.153 18.3471 12.1162C18.3569 12.0757 18.381 12.0412 18.4196 12.0125L18.7375 11.7764L19.5508 12.8714L20.4756 12.1845L20.8143 12.6405L19.8895 13.3274L21.3086 15.238C21.404 15.3665 21.5066 15.4398 21.6163 15.4579C21.7267 15.4723 21.8311 15.4429 21.9296 15.3697C21.9874 15.3268 22.031 15.2827 22.0606 15.2375C22.0923 15.1908 22.1167 15.1477 22.134 15.1083C22.1496 15.0668 22.1626 15.0305 22.1729 14.9997C22.1832 14.9688 22.1969 14.947 22.214 14.9343C22.2354 14.9184 22.2554 14.9118 22.2741 14.9145C22.2933 14.9136 22.3173 14.919 22.346 14.9309L22.7565 15.0944C22.7237 15.2649 22.6557 15.4283 22.5526 15.5846C22.4494 15.741 22.3219 15.8756 22.1699 15.9885ZM24.115 12.2168C23.8666 12.4146 23.6655 12.5955 23.5117 12.7596C23.3563 12.9216 23.242 13.0696 23.1688 13.2036C23.0957 13.3377 23.0607 13.4583 23.0639 13.5655C23.0656 13.6706 23.0982 13.766 23.1618 13.8516C23.2222 13.9329 23.2875 13.994 23.3577 14.0349C23.4285 14.072 23.5007 14.0932 23.5743 14.0983C23.6484 14.0997 23.7228 14.0859 23.7976 14.057C23.8724 14.028 23.9462 13.9865 24.019 13.9324C24.1154 13.8608 24.196 13.786 24.2609 13.7079C24.3279 13.6282 24.384 13.545 24.4292 13.4583C24.4729 13.3694 24.5077 13.2755 24.5338 13.1764C24.5598 13.0773 24.5792 12.9715 24.592 12.859L24.115 12.2168ZM21.2694 12.2228C21.3225 11.9142 21.4233 11.6384 21.5716 11.3954C21.7221 11.1507 21.9247 10.9338 22.1795 10.7446C22.3657 10.6063 22.5536 10.5149 22.7431 10.4704C22.9311 10.4238 23.1149 10.4185 23.2944 10.4546C23.474 10.4906 23.6448 10.5663 23.807 10.6818C23.9712 10.7956 24.1218 10.9446 24.2585 11.1287L25.804 13.2095L25.5246 13.417C25.4626 13.4631 25.4083 13.4885 25.3619 13.493C25.3139 13.4955 25.2596 13.476 25.199 13.4347L24.9193 13.199C24.893 13.3381 24.8615 13.4678 24.8246 13.5881C24.7862 13.7064 24.738 13.8203 24.6798 13.9299C24.6223 14.0357 24.5511 14.1367 24.4664 14.2329C24.3817 14.329 24.2783 14.4224 24.1563 14.513C24.0279 14.6084 23.8942 14.6812 23.7553 14.7312C23.617 14.7775 23.479 14.7952 23.3415 14.7844C23.2039 14.7737 23.07 14.732 22.9396 14.6594C22.8114 14.5852 22.6933 14.4753 22.5852 14.3297C22.4898 14.2013 22.4326 14.0527 22.4136 13.8841C22.3952 13.7118 22.4292 13.5204 22.5155 13.3102C22.604 13.0983 22.7522 12.8686 22.9603 12.621C23.1706 12.3719 23.4577 12.1055 23.8217 11.8218L23.6452 11.5842C23.4623 11.338 23.2731 11.1929 23.0776 11.1488C22.8821 11.1047 22.6826 11.1581 22.4792 11.3092C22.3422 11.411 22.2393 11.5139 22.1706 11.6182C22.104 11.7208 22.0523 11.8189 22.0156 11.9126C21.9795 12.0026 21.9484 12.0838 21.9225 12.1562C21.8987 12.227 21.86 12.2823 21.8065 12.3221C21.7637 12.3539 21.7175 12.3699 21.6679 12.3702C21.6204 12.3689 21.5751 12.3594 21.532 12.3416L21.2694 12.2228Z" fill="white"/>
</svg>
