<svg width="25" height="24" viewBox="0 0 25 24" fill="none" xmlns="http://www.w3.org/2000/svg">
<path d="M17.99 9.59965L6.1 16.7696C5.4 17.1896 4.5 16.6896 4.5 15.8696V7.86965C4.5 4.37965 8.27 2.19965 11.3 3.93965L15.89 6.57965L17.98 7.77965C18.67 8.18965 18.68 9.18965 17.99 9.59965Z" fill="white"/>
<path d="M18.5901 15.4596L14.5401 17.7996L10.5001 20.1296C9.05005 20.9596 7.41005 20.7896 6.22005 19.9496C5.64005 19.5496 5.71006 18.6596 6.32006 18.2996L19.0301 10.6796C19.6301 10.3196 20.4201 10.6596 20.5301 11.3496C20.7801 12.8996 20.1401 14.5696 18.5901 15.4596Z" fill="white"/>
</svg>
