<svg width="20" height="20" viewBox="0 0 20 20" fill="none" xmlns="http://www.w3.org/2000/svg">
<path d="M12.825 4.34206L14 6.69206C14.1584 7.01706 14.5834 7.32539 14.9417 7.39206L17.0667 7.74206C18.425 7.96706 18.7417 8.95039 17.7667 9.93373L16.1084 11.5921C15.8334 11.8671 15.675 12.4087 15.7667 12.8004L16.2417 14.8504C16.6167 16.4671 15.75 17.1004 14.325 16.2504L12.3334 15.0671C11.975 14.8504 11.375 14.8504 11.0167 15.0671L9.02503 16.2504C7.60003 17.0921 6.73337 16.4671 7.10837 14.8504L7.58337 12.8004C7.65837 12.4004 7.50003 11.8587 7.22503 11.5837L5.5667 9.92539C4.5917 8.95039 4.90837 7.96706 6.2667 7.73373L8.3917 7.38373C8.75003 7.32539 9.17503 7.00873 9.33337 6.68373L10.5084 4.33373C11.15 3.06706 12.1834 3.06706 12.825 4.34206Z" fill="#80706B"/>
<path d="M6.6665 4.79199H1.6665C1.32484 4.79199 1.0415 4.50866 1.0415 4.16699C1.0415 3.82533 1.32484 3.54199 1.6665 3.54199H6.6665C7.00817 3.54199 7.2915 3.82533 7.2915 4.16699C7.2915 4.50866 7.00817 4.79199 6.6665 4.79199Z" fill="#80706B"/>
<path d="M4.1665 16.458H1.6665C1.32484 16.458 1.0415 16.1747 1.0415 15.833C1.0415 15.4913 1.32484 15.208 1.6665 15.208H4.1665C4.50817 15.208 4.7915 15.4913 4.7915 15.833C4.7915 16.1747 4.50817 16.458 4.1665 16.458Z" fill="#80706B"/>
<path d="M2.49984 10.625H1.6665C1.32484 10.625 1.0415 10.3417 1.0415 10C1.0415 9.65833 1.32484 9.375 1.6665 9.375H2.49984C2.8415 9.375 3.12484 9.65833 3.12484 10C3.12484 10.3417 2.8415 10.625 2.49984 10.625Z" fill="#80706B"/>
</svg>
