<svg width="20" height="20" viewBox="0 0 20 20" fill="none" xmlns="http://www.w3.org/2000/svg">
<path d="M18.3332 10.7166C18.3332 12.6249 17.3499 14.3166 15.8332 15.3833L14.7166 17.8416C14.4582 18.3999 13.7082 18.5083 13.3166 18.0333L12.0832 16.5499C10.5332 16.5499 9.10824 16.0249 8.0249 15.1499L8.5249 14.5583C12.3749 14.2666 15.4166 11.2166 15.4166 7.49994C15.4166 6.8666 15.3249 6.2416 15.1582 5.6416C17.0499 6.6416 18.3332 8.5416 18.3332 10.7166Z" fill="#80706B"/>
<path d="M13.5832 5.05866C12.6082 3.05866 10.4332 1.66699 7.9165 1.66699C4.4665 1.66699 1.6665 4.27533 1.6665 7.50033C1.6665 9.40866 2.64984 11.1003 4.1665 12.167L5.28317 14.6253C5.5415 15.1837 6.2915 15.2837 6.68317 14.817L7.1415 14.267L7.9165 13.3337C11.3665 13.3337 14.1665 10.7253 14.1665 7.50033C14.1665 6.62533 13.9582 5.80033 13.5832 5.05866ZM9.99984 8.12533H5.83317C5.4915 8.12533 5.20817 7.84199 5.20817 7.50033C5.20817 7.15866 5.4915 6.87533 5.83317 6.87533H9.99984C10.3415 6.87533 10.6248 7.15866 10.6248 7.50033C10.6248 7.84199 10.3415 8.12533 9.99984 8.12533Z" fill="#80706B"/>
</svg>
