<svg width="20" height="20" viewBox="0 0 20 20" fill="none" xmlns="http://www.w3.org/2000/svg">
<path d="M14.1665 2.02539H5.83317C3.33317 2.02539 1.6665 3.69206 1.6665 6.19206V11.1921C1.6665 13.6921 3.33317 15.3587 5.83317 15.3587V17.1337C5.83317 17.8004 6.57484 18.2004 7.12484 17.8254L10.8332 15.3587H14.1665C16.6665 15.3587 18.3332 13.6921 18.3332 11.1921V6.19206C18.3332 3.69206 16.6665 2.02539 14.1665 2.02539ZM9.99984 12.1671C9.64984 12.1671 9.37484 11.8837 9.37484 11.5421C9.37484 11.2004 9.64984 10.9171 9.99984 10.9171C10.3498 10.9171 10.6248 11.2004 10.6248 11.5421C10.6248 11.8837 10.3498 12.1671 9.99984 12.1671ZM11.0498 8.70872C10.7248 8.92539 10.6248 9.06706 10.6248 9.30039V9.47539C10.6248 9.81706 10.3415 10.1004 9.99984 10.1004C9.65817 10.1004 9.37484 9.81706 9.37484 9.47539V9.30039C9.37484 8.33372 10.0832 7.85872 10.3498 7.67539C10.6582 7.46706 10.7582 7.32539 10.7582 7.10872C10.7582 6.69206 10.4165 6.35039 9.99984 6.35039C9.58317 6.35039 9.2415 6.69206 9.2415 7.10872C9.2415 7.45039 8.95817 7.73372 8.6165 7.73372C8.27484 7.73372 7.9915 7.45039 7.9915 7.10872C7.9915 6.00039 8.8915 5.10039 9.99984 5.10039C11.1082 5.10039 12.0082 6.00039 12.0082 7.10872C12.0082 8.05872 11.3082 8.53372 11.0498 8.70872Z" fill="#80706B"/>
</svg>
