<svg width="20" height="20" viewBox="0 0 20 20" fill="none" xmlns="http://www.w3.org/2000/svg">
<path d="M6.04174 10.0003C6.04174 9.65866 6.32507 9.37533 6.66674 9.37533H9.16674V6.25033C9.16674 5.79199 8.79174 5.41699 8.33341 5.41699H6.47507C3.85007 5.41699 1.56674 7.56699 1.66674 10.1837C1.71674 11.3753 2.21674 12.4503 3.00841 13.242C3.84174 14.067 4.98341 14.5837 6.25007 14.5837H8.33341C8.79174 14.5837 9.16674 14.2087 9.16674 13.7503V10.6253H6.66674C6.32507 10.6253 6.04174 10.342 6.04174 10.0003Z" fill="#80706B"/>
<path d="M16.9918 6.75866C16.1585 5.93366 15.0168 5.41699 13.7502 5.41699H11.6668C11.2085 5.41699 10.8335 5.79199 10.8335 6.25033V9.37533H13.3335C13.6752 9.37533 13.9585 9.65866 13.9585 10.0003C13.9585 10.342 13.6752 10.6253 13.3335 10.6253H10.8335V13.7503C10.8335 14.2087 11.2085 14.5837 11.6668 14.5837H13.5252C16.1502 14.5837 18.4335 12.4337 18.3252 9.81699C18.2835 8.62532 17.7752 7.55032 16.9918 6.75866Z" fill="#80706B"/>
<path d="M10.8332 9.375H9.1665V10.625H10.8332V9.375Z" fill="#80706B"/>
</svg>
