<svg width="20" height="20" viewBox="0 0 20 20" fill="none" xmlns="http://www.w3.org/2000/svg">
<path d="M15.625 6.66699V8.41699C15.2583 8.36699 14.8417 8.34199 14.375 8.33366V6.66699C14.375 4.04199 13.6333 2.29199 10 2.29199C6.36667 2.29199 5.625 4.04199 5.625 6.66699V8.33366C5.15833 8.34199 4.74167 8.36699 4.375 8.41699V6.66699C4.375 4.25033 4.95833 1.04199 10 1.04199C15.0417 1.04199 15.625 4.25033 15.625 6.66699Z" fill="#80706B"/>
<path d="M15.6248 8.41634C15.2582 8.36634 14.8415 8.34134 14.3748 8.33301H5.62484C5.15817 8.34134 4.7415 8.36634 4.37484 8.41634C2.24984 8.67467 1.6665 9.71634 1.6665 12.4997V14.1663C1.6665 17.4997 2.49984 18.333 5.83317 18.333H14.1665C17.4998 18.333 18.3332 17.4997 18.3332 14.1663V12.4997C18.3332 9.71634 17.7498 8.67467 15.6248 8.41634ZM7.25817 13.9247C7.09984 14.0747 6.88317 14.1663 6.6665 14.1663C6.55817 14.1663 6.44984 14.1413 6.34984 14.0997C6.2415 14.058 6.15817 13.9997 6.07484 13.9247C5.92484 13.7663 5.83317 13.5497 5.83317 13.333C5.83317 13.2247 5.85817 13.1163 5.89984 13.0163C5.9415 12.9163 5.99984 12.8247 6.07484 12.7413C6.15817 12.6663 6.2415 12.608 6.34984 12.5663C6.65817 12.433 7.02484 12.508 7.25817 12.7413C7.33317 12.8247 7.3915 12.9163 7.43317 13.0163C7.47484 13.1163 7.49984 13.2247 7.49984 13.333C7.49984 13.5497 7.40817 13.7663 7.25817 13.9247ZM10.7665 13.6497C10.7248 13.7497 10.6665 13.8413 10.5915 13.9247C10.4332 14.0747 10.2165 14.1663 9.99984 14.1663C9.77484 14.1663 9.5665 14.0747 9.40817 13.9247C9.33317 13.8413 9.27484 13.7497 9.23317 13.6497C9.1915 13.5497 9.1665 13.4413 9.1665 13.333C9.1665 13.108 9.25817 12.8997 9.40817 12.7413C9.7165 12.433 10.2748 12.433 10.5915 12.7413C10.7415 12.8997 10.8332 13.108 10.8332 13.333C10.8332 13.4413 10.8082 13.5497 10.7665 13.6497ZM13.9248 13.9247C13.7665 14.0747 13.5498 14.1663 13.3332 14.1663C13.1165 14.1663 12.8998 14.0747 12.7415 13.9247C12.5915 13.7663 12.4998 13.558 12.4998 13.333C12.4998 13.108 12.5915 12.8997 12.7415 12.7413C13.0582 12.433 13.6165 12.433 13.9248 12.7413C13.9582 12.783 13.9915 12.8247 14.0248 12.8747C14.0582 12.9163 14.0832 12.9663 14.0998 13.0163C14.1248 13.0663 14.1415 13.1163 14.1498 13.1663C14.1582 13.2247 14.1665 13.283 14.1665 13.333C14.1665 13.5497 14.0748 13.7663 13.9248 13.9247Z" fill="#80706B"/>
</svg>
