<svg width="20" height="20" viewBox="0 0 20 20" fill="none" xmlns="http://www.w3.org/2000/svg">
<path d="M17.7499 6.31706H13.0999C12.7749 6.31706 12.5166 6.05872 12.5166 5.73372C12.5166 5.40872 12.7749 5.15039 13.0999 5.15039H17.7499C18.0749 5.15039 18.3333 5.40872 18.3333 5.73372C18.3333 6.05872 18.0749 6.31706 17.7499 6.31706Z" fill="#80706B"/>
<path d="M5.34984 6.31706H2.24984C1.92484 6.31706 1.6665 6.05872 1.6665 5.73372C1.6665 5.40872 1.92484 5.15039 2.24984 5.15039H5.34984C5.67484 5.15039 5.93317 5.40872 5.93317 5.73372C5.93317 6.05872 5.6665 6.31706 5.34984 6.31706Z" fill="#80706B"/>
<path d="M8.44987 9.02474C10.2678 9.02474 11.7415 7.55101 11.7415 5.73307C11.7415 3.91514 10.2678 2.44141 8.44987 2.44141C6.63193 2.44141 5.1582 3.91514 5.1582 5.73307C5.1582 7.55101 6.63193 9.02474 8.44987 9.02474Z" fill="#80706B"/>
<path d="M17.7502 14.8415H14.6502C14.3252 14.8415 14.0669 14.5831 14.0669 14.2581C14.0669 13.9331 14.3252 13.6748 14.6502 13.6748H17.7502C18.0752 13.6748 18.3336 13.9331 18.3336 14.2581C18.3336 14.5831 18.0752 14.8415 17.7502 14.8415Z" fill="#80706B"/>
<path d="M6.89984 14.8415H2.24984C1.92484 14.8415 1.6665 14.5831 1.6665 14.2581C1.6665 13.9331 1.92484 13.6748 2.24984 13.6748H6.89984C7.22484 13.6748 7.48317 13.9331 7.48317 14.2581C7.48317 14.5831 7.2165 14.8415 6.89984 14.8415Z" fill="#80706B"/>
<path d="M11.55 17.5579C13.3679 17.5579 14.8416 16.0842 14.8416 14.2663C14.8416 12.4483 13.3679 10.9746 11.55 10.9746C9.73203 10.9746 8.2583 12.4483 8.2583 14.2663C8.2583 16.0842 9.73203 17.5579 11.55 17.5579Z" fill="#80706B"/>
</svg>
