<svg width="20" height="20" viewBox="0 0 20 20" fill="none" xmlns="http://www.w3.org/2000/svg">
<path d="M16.2581 4.87533L11.3081 2.01699C10.4998 1.55033 9.49977 1.55033 8.68311 2.01699L3.74144 4.87533C2.93311 5.34199 2.43311 6.20866 2.43311 7.15033V12.8503C2.43311 13.7837 2.93311 14.6503 3.74144 15.1253L8.69144 17.9837C9.49977 18.4503 10.4998 18.4503 11.3164 17.9837L16.2664 15.1253C17.0748 14.6587 17.5748 13.792 17.5748 12.8503V7.15033C17.5664 6.20866 17.0664 5.35033 16.2581 4.87533ZM9.99977 6.11699C11.0748 6.11699 11.9414 6.98366 11.9414 8.05866C11.9414 9.13366 11.0748 10.0003 9.99977 10.0003C8.92477 10.0003 8.05811 9.13366 8.05811 8.05866C8.05811 6.99199 8.92477 6.11699 9.99977 6.11699ZM12.2331 13.8837H7.76644C7.09144 13.8837 6.69977 13.1337 7.07477 12.5753C7.64144 11.7337 8.74144 11.167 9.99977 11.167C11.2581 11.167 12.3581 11.7337 12.9248 12.5753C13.2998 13.1253 12.8998 13.8837 12.2331 13.8837Z" fill="#80706B"/>
</svg>
