<svg width="18" height="24" viewBox="0 0 18 24" fill="none" xmlns="http://www.w3.org/2000/svg">
<path d="M15.2476 5.70357L13.9951 8.48232C13.9951 8.48232 16.9539 10.5973 13.5676 13.4098L4.18887 13.5036C0.611367 10.6423 4.02387 8.48232 4.02387 8.48232L2.91762 6.02607C1.57512 1.98357 4.59387 0.517323 5.97387 0.517323C7.36512 0.517323 8.15262 0.982323 8.56887 1.38732L9.04512 1.07607C12.1276 -1.12143 16.1739 2.24232 15.2476 5.70357Z" fill="#594940"/>
<path d="M11.1987 14.279L10.2927 8.94723L7.7266 8.83398L6.80298 14.2704L11.1987 14.279Z" fill="#E2B3B3"/>
<path d="M9.17625 3.02637C8.05013 3.93265 6.6873 4.49626 5.25 4.65012V6.37512C5.25 7.36968 5.64509 8.32351 6.34835 9.02677C7.05161 9.73003 8.00544 10.1251 9 10.1251C9.99456 10.1251 10.9484 9.73003 11.6517 9.02677C12.3549 8.32351 12.75 7.36968 12.75 6.37512V4.63887C11.4339 4.4377 10.198 3.88004 9.17625 3.02637Z" fill="#FFCFD3"/>
<path d="M16.6124 16.5496L16.1643 15.3547C16.034 15.0074 15.8316 14.6916 15.5704 14.4281C15.3091 14.1647 14.995 13.9596 14.6487 13.8264L10.875 12.375L10.749 12.5639C10.5571 12.8519 10.297 13.088 9.99189 13.2513C9.68677 13.4146 9.34606 13.5 9 13.5C8.65394 13.5 8.31323 13.4146 8.00811 13.2513C7.703 13.088 7.44292 12.8519 7.25096 12.5639L7.125 12.375L3.35127 13.8264C3.00499 13.9596 2.69088 14.1647 2.42965 14.4281C2.16841 14.6916 1.96598 15.0074 1.8357 15.3547L1.38764 16.5496C1.21396 17.0128 1.125 17.5034 1.125 17.998V23.625H16.875V17.998C16.875 17.5034 16.786 17.0128 16.6124 16.5496Z" fill="#5D5D66"/>
<path d="M13.0238 13.95C10.5863 16.3463 10.1626 22.965 10.1288 23.58C10.1267 23.5949 10.1255 23.6099 10.1251 23.625H7.87507C7.87465 23.6099 7.8734 23.5949 7.87132 23.58C7.83757 22.965 7.41382 16.3463 4.97632 13.95L5.55007 12.9825L7.12507 12.375L7.25257 12.5625C7.44392 12.8508 7.70361 13.0873 8.00851 13.2508C8.31342 13.4144 8.65405 13.5 9.00006 13.5C9.34606 13.5 9.6867 13.4144 9.9916 13.2508C10.2965 13.0873 10.5562 12.8508 10.7475 12.5625L10.8751 12.375L12.4501 12.9825L13.0238 13.95Z" fill="#E6E6EF"/>
<path d="M13.875 15.3743L12.4511 12.9805C10.9486 14.7689 10.125 17.0298 10.125 19.3655V23.6243C10.5 19.8743 12.75 17.9993 12.75 17.9993L12 16.8743L13.875 15.3743Z" fill="#43434F"/>
<path d="M5.54894 12.9805L4.125 15.3743L6 16.8743L5.25 17.9993C5.25 17.9993 7.5 19.8743 7.875 23.6243V19.3655C7.875 17.0298 7.05135 14.7689 5.54894 12.9805Z" fill="#43434F"/>
<path d="M15 23.6246H14.2087C12.7762 20.5534 14.2237 17.5834 14.2912 17.4559C14.3132 17.4119 14.3437 17.3727 14.3809 17.3405C14.4182 17.3084 14.4614 17.2839 14.5081 17.2686C14.5548 17.2532 14.6041 17.2473 14.6532 17.2511C14.7022 17.2549 14.75 17.2685 14.7937 17.2909C14.8824 17.3355 14.9498 17.4133 14.9814 17.5074C15.013 17.6015 15.0062 17.7042 14.9625 17.7934C14.9475 17.8196 13.5675 20.6659 14.9587 23.4559C14.9847 23.5084 14.9988 23.566 15 23.6246Z" fill="#43434F"/>
<path d="M3.79125 23.6242H3C3.00119 23.5656 3.01527 23.508 3.04125 23.4554C4.44 20.6579 3.0525 17.8192 3.04125 17.7929C2.99711 17.7045 2.98978 17.6022 3.02086 17.5083C3.05195 17.4145 3.11892 17.3368 3.20713 17.2922C3.29535 17.2476 3.39763 17.2397 3.49163 17.2703C3.58562 17.3009 3.66369 17.3675 3.70875 17.4554C3.77625 17.5829 5.22375 20.5529 3.79125 23.6242Z" fill="#43434F"/>
<path d="M17.625 23.625H0.375C0.275544 23.625 0.180161 23.5855 0.109835 23.5152C0.0395089 23.4448 0 23.3495 0 23.25C0 23.1505 0.0395089 23.0552 0.109835 22.9848C0.180161 22.9145 0.275544 22.875 0.375 22.875H17.625C17.7245 22.875 17.8198 22.9145 17.8902 22.9848C17.9605 23.0552 18 23.1505 18 23.25C18 23.3495 17.9605 23.4448 17.8902 23.5152C17.8198 23.5855 17.7245 23.625 17.625 23.625Z" fill="#2D2B33"/>
<path d="M12.4162 17.5012L12.0187 17.82C11.9804 17.851 11.9364 17.874 11.8892 17.8877C11.842 17.9015 11.7925 17.9057 11.7436 17.9001C11.6947 17.8945 11.6474 17.8793 11.6045 17.8552C11.5616 17.8312 11.5239 17.7988 11.4937 17.76C11.4626 17.722 11.4393 17.6781 11.4253 17.6311C11.4113 17.584 11.4068 17.5346 11.412 17.4857C11.4173 17.4369 11.4321 17.3896 11.4558 17.3465C11.4795 17.3035 11.5115 17.2656 11.5499 17.235L11.9999 16.875L12.4162 17.5012Z" fill="#2D2B33"/>
<path d="M5.58374 17.5012L5.98124 17.82C6.01947 17.851 6.06349 17.874 6.11072 17.8877C6.15795 17.9015 6.20745 17.9057 6.25633 17.9001C6.3052 17.8945 6.35247 17.8793 6.39538 17.8552C6.43829 17.8312 6.47598 17.7988 6.50624 17.76C6.53734 17.722 6.56057 17.6781 6.57459 17.6311C6.58861 17.584 6.59313 17.5346 6.5879 17.4857C6.58266 17.4369 6.56778 17.3896 6.5441 17.3465C6.52043 17.3035 6.48844 17.2656 6.44999 17.235L5.99999 16.875L5.58374 17.5012Z" fill="#2D2B33"/>
<path d="M14.5649 9.04117L14.0661 10.1437C14.0365 10.2094 13.9885 10.2652 13.928 10.3044C13.8675 10.3437 13.797 10.3647 13.7249 10.3649C13.6718 10.3649 13.6193 10.3534 13.5711 10.3312C13.5262 10.3111 13.4858 10.2823 13.452 10.2465C13.4183 10.2107 13.392 10.1686 13.3746 10.1226C13.3571 10.0766 13.349 10.0276 13.3505 9.97849C13.3521 9.92933 13.3633 9.88097 13.3836 9.83617L13.9949 8.48242C14.2077 8.64386 14.3992 8.8316 14.5649 9.04117Z" fill="#42322E"/>
<path d="M4.44383 10.3312C4.39563 10.3534 4.34317 10.3649 4.29008 10.3649C4.21797 10.3647 4.14746 10.3437 4.08695 10.3044C4.02645 10.2652 3.9785 10.2094 3.94883 10.1437L3.42383 8.98492C3.60556 8.79674 3.80668 8.62831 4.02383 8.48242L4.63133 9.83617C4.65205 9.8809 4.66364 9.92932 4.66541 9.97859C4.66718 10.0279 4.65909 10.077 4.64163 10.1231C4.62417 10.1692 4.59768 10.2113 4.56371 10.2471C4.52974 10.2828 4.48899 10.3114 4.44383 10.3312Z" fill="#42322E"/>
<path d="M9.60508 1.52399C9.49823 1.3221 9.3636 1.13619 9.20513 0.97168C9.15173 1.00613 9.09797 1.03819 9.0451 1.07589L8.56885 1.38714C8.7167 1.51276 8.83777 1.66684 8.92485 1.84021C8.96678 1.93042 9.04283 2.00027 9.13627 2.03441C9.22971 2.06854 9.33288 2.06416 9.42309 2.02223C9.51329 1.98029 9.58315 1.90424 9.61728 1.81081C9.65142 1.71737 9.64701 1.6142 9.60508 1.52399Z" fill="#42322E"/>
</svg>
