<svg width="24" height="24" viewBox="0 0 24 24" fill="none" xmlns="http://www.w3.org/2000/svg">
<path d="M20.7225 15.8485L14.625 13.126L12.75 15.751H11.25L9.375 13.126L3.2625 15.8897C2.73731 16.1281 2.29185 16.5127 1.97931 16.9975C1.66678 17.4822 1.50038 18.0467 1.5 18.6235V23.3447C1.5 23.4193 1.52963 23.4909 1.58238 23.5436C1.63512 23.5963 1.70666 23.626 1.78125 23.626H22.2188C22.2933 23.626 22.3649 23.5963 22.4176 23.5436C22.4704 23.4909 22.5 23.4193 22.5 23.3447V18.5897C22.4998 18.01 22.3318 17.4428 22.0164 16.9564C21.701 16.47 21.2517 16.0852 20.7225 15.8485Z" fill="#494A59"/>
<path d="M14.625 10.5527V13.5002L12.75 16.1252H11.25L9.375 13.5002V10.5527C10.0758 11.2402 11.0183 11.6252 12 11.6252C12.9817 11.6252 13.9242 11.2402 14.625 10.5527Z" fill="#EAC2B9"/>
<path d="M6.75 7.32859V3.00049C6.74995 2.8035 6.78871 2.60842 6.86407 2.4264C6.93943 2.24439 7.04992 2.07901 7.18922 1.93971C7.32852 1.80041 7.4939 1.68993 7.67591 1.61456C7.85792 1.5392 8.053 1.50044 8.25 1.50049C8.25045 1.20226 8.36912 0.916374 8.58 0.705492C8.79088 0.49461 9.07677 0.375941 9.375 0.375494H12.6788C13.9863 0.359126 15.2667 0.749645 16.3425 1.49299C17.2538 2.14924 18.0675 3.10924 17.9963 4.44799C17.9493 5.31106 17.6442 5.82852 16.8372 7.28157L6.75 7.32859Z" fill="#494A59"/>
<path d="M10.8751 23.6254H8.62507L6.37507 19.5004L7.50007 18.3754L6.00007 17.6254L4.69507 15.2404L7.54132 13.9541L10.2451 21.7954L10.8751 23.6254Z" fill="#343544"/>
<path d="M13.7549 21.796L13.1249 23.626H10.8749L10.2449 21.796L10.8749 18.376H13.1249L13.7549 21.796Z" fill="#494A59"/>
<path d="M13.875 16.426L13.125 18.376H10.875L10.125 16.426L11.25 15.751H12.75L13.875 16.426Z" fill="#343544"/>
<path d="M16.4625 13.9472L14.625 16.876L13.875 16.426L12.75 15.751L14.625 13.126L16.4625 13.9472Z" fill="#D0DBF7"/>
<path d="M11.25 15.751L10.125 16.426L9.37501 16.876L7.54126 13.9547L9.37501 13.126L11.25 15.751Z" fill="#D0DBF7"/>
<path d="M10.875 18.3754L10.245 21.7954L7.54126 13.9541L9.37501 16.8754L10.125 16.4254L10.875 18.3754Z" fill="#E6ECFF"/>
<path d="M16.4625 13.9463L13.755 21.795L13.125 18.375L13.875 16.425L14.625 16.875L16.4625 13.9463Z" fill="#E6ECFF"/>
<path d="M17.625 7.50098V8.25098C17.6251 8.34948 17.6057 8.44702 17.568 8.53802C17.5303 8.62903 17.4751 8.71172 17.4054 8.78137C17.3358 8.85102 17.2531 8.90627 17.1621 8.94395C17.0711 8.98163 16.9735 9.00101 16.875 9.00098H15.3C15.3501 8.75411 15.3752 8.50285 15.375 8.25098V6.75098H16.875C17.0738 6.75156 17.2642 6.83077 17.4047 6.97129C17.5453 7.11182 17.6245 7.30224 17.625 7.50098Z" fill="#EAC2B9"/>
<path d="M8.7 9.00098H7.125C7.0265 9.00101 6.92896 8.98163 6.83795 8.94395C6.74694 8.90627 6.66425 8.85102 6.5946 8.78137C6.52495 8.71172 6.46971 8.62903 6.43203 8.53802C6.39435 8.44702 6.37497 8.34948 6.375 8.25098V7.50098C6.37558 7.30224 6.45479 7.11182 6.59531 6.97129C6.73584 6.83077 6.92627 6.75156 7.125 6.75098H8.625V8.25098C8.62487 8.50285 8.65 8.75411 8.7 9.00098Z" fill="#EAC2B9"/>
<path d="M15.75 5.62598V8.25098C15.75 9.24554 15.3549 10.1994 14.6517 10.9026C13.9484 11.6059 12.9946 12.001 12 12.001C11.0054 12.001 10.0516 11.6059 9.34835 10.9026C8.64509 10.1994 8.25 9.24554 8.25 8.25098V4.87598C8.25 4.87598 9.08332 4.92956 10.5 3.75098C10.5 3.75098 12 5.62598 15.75 5.62598Z" fill="#FFDDD4"/>
<path d="M18 17.625L16.5 18.375L17.625 19.5L15.375 23.625H13.125L13.755 21.795L16.4625 13.9463L19.3162 15.2213L18 17.625Z" fill="#343544"/>
<path d="M20.1562 19.501V23.626H19.5938V19.501C19.5937 19.4264 19.6234 19.3548 19.6761 19.3021C19.7289 19.2494 19.8004 19.2197 19.875 19.2197C19.9496 19.2197 20.0211 19.2494 20.0739 19.3021C20.1266 19.3548 20.1562 19.4264 20.1562 19.501Z" fill="#343544"/>
<path d="M7.54135 13.9538L7.5376 13.9463L7.54135 13.9538Z" fill="black"/>
<path d="M7.54135 13.9538L7.5376 13.9463L7.54135 13.9538Z" fill="black"/>
<path d="M4.40625 19.501V23.626H3.84375V19.501C3.84375 19.4264 3.87338 19.3548 3.92613 19.3021C3.97887 19.2494 4.05041 19.2197 4.125 19.2197C4.19959 19.2197 4.27113 19.2494 4.32387 19.3021C4.37662 19.3548 4.40625 19.4264 4.40625 19.501Z" fill="#343544"/>
</svg>
